<svg xmlns="http://www.w3.org/2000/svg" viewBox="0 0 357.13 357.13"><defs><style>.cls-1{fill:none;stroke:#000;stroke-linecap:round;stroke-linejoin:round;stroke-width:2.8px;}</style></defs><g id="Layer_2" data-name="Layer 2"><g id="Layer_1-2" data-name="Layer 1"><path class="cls-1" d="M231.71,12l-.2-2.07-.6-2-1-1.83L228.6,4.51,227,3.19l-1.84-1-2-.6-2.08-.21m0,0h-85m0,0L134,1.61l-2,.6-1.84,1-1.61,1.32-1.32,1.62-1,1.83-.6,2-.2,2.07m0,285.39V345.1m0-164.61V262m0-250v133m0,200,.2,2.07.6,2,1,1.84,1.32,1.61,1.61,1.32,1.84,1,2,.61,2.08.2m0,0h85m0,0,2.08-.2,2-.61,1.84-1,1.61-1.32,1.32-1.61,1-1.84.6-2,.2-2.07m0-306.65V12m0,143.34V73.88m0,271.22V190.81M267.12,77.58,252.26,76l-15.51-1.6-16-1.58L201.4,70.91,181.77,69m.67-35.37,19.06,1.83,18.81,1.83,18.27,1.81L256.2,41l16.7,1.82,15.59,1.82,11.39,1.44,10.49,1.44,9.54,1.42,8.55,1.44,7.46,1.44,6.32,1.43,4.08,1.11,3.38,1.11,2.63,1.11,1.48.82,1.07.83.47.55.29.56.09.55m0,0-.09.56-.29.56-.47.55-1.07.83-1.48.82-2.63,1.11-3.38,1.12-4.08,1.1-6.08,1.38L329,69.28l-8.16,1.39-9.1,1.38-10,1.38-10.84,1.39L279.34,76.2l-12.22,1.38M178.57,65.5V37.19m0,28.31.06.65.17.63.29.58.4.52.48.45.55.34.61.24.64.12m.67-35.37h-.73l-.72.15-.67.31-.6.43-.49.55-.36.64-.23.7-.07.74M1.4,123.64v35.44m0,0,.1.55.28.56.47.55.67.55,1.88,1.1,2.63,1.11,4.7,1.5,6,1.48L25.31,168l8.41,1.49L43.24,171,53.6,172.4l11.31,1.47,12.16,1.46L90,176.79l18.58,2,19.51,2,20.21,2,20.65,2,20.74,2,20.27,1.95,19.82,2,19.15,1.95,18.24,1.95m0,0L280.23,193l12.37-1.49,11.48-1.49,10.49-1.48,9.44-1.49,8.2-1.47,7-1.46,5.83-1.46,4.61-1.46,2.63-1.11,1.89-1.11.66-.55.48-.55.28-.56.1-.55-.09-.56-.29-.55-.47-.56-1.06-.82-1.48-.83-2.64-1.11-3.36-1.11-4.09-1.11-6.13-1.39-7.21-1.4-8.24-1.4-9.19-1.39-10.09-1.39-11-1.4-11.7-1.4L266.38,159,250,157.24l-17.17-1.76-17.72-1.75L196.91,152l-18.33-1.75-19.43-1.86-19.23-1.86-18.71-1.86-18.07-1.86L86,140.92l-16-1.86-11.69-1.47-10.78-1.46-9.79-1.45L29,133.21l-7.64-1.46-6.45-1.46-4.08-1.11-3.37-1.11L4.8,127l-1.48-.82-1.07-.83-.47-.55-.28-.56-.1-.56M174.69,302.21l-19.06-1.82-18.81-1.84-18.27-1.81-17.62-1.83-16.7-1.83-15.59-1.82-11.39-1.44-10.49-1.43L37.22,287l-8.55-1.44-7.46-1.44-6.32-1.43-4.08-1.1-3.37-1.12L4.8,279.32l-1.48-.82-1.07-.83-.47-.55-.28-.56L1.4,276m177.17-5.64-.06-.65-.18-.63-.29-.58-.4-.52-.48-.44-.55-.35L176,267l-.64-.13M1.4,240.57l.1.56.28.56.47.55,1.07.82,1.48.83L7.44,245l3.37,1.11,4.08,1.11,7,1.56,8.35,1.58,9.62,1.57,10.78,1.56,11.92,1.58,12.92,1.57,13.76,1.56,16.07,1.73,16.83,1.73,17.38,1.72,17.83,1.74,18,1.72M1.4,276V240.57m173.29,61.64h.73l.72-.16.67-.31.6-.43.49-.55.36-.64.23-.7.08-.73m0,0V270.37M231.71,122,249,120.28l18.23-2,13.11-1.48,12.36-1.49,11.48-1.49,10.47-1.48,9.45-1.49,8.19-1.47,7-1.46,5.83-1.45,4.6-1.47,2.63-1.11,1.88-1.1.67-.55.47-.56.29-.55.09-.56M90,136.05l18.58-2,16.83-1.7m0-35.44-4.25.42L103.11,99.2,86,101.06l-16,1.85-11.69,1.47L47.5,105.85l-9.78,1.45L29,108.77l-7.64,1.46-6.44,1.46-4.08,1.1-3.37,1.12L4.79,115l-1.48.82-1.06.83-.47.55-.29.56-.09.55.1.56.28.56.48.55.66.55,1.89,1.1,2.63,1.11,4.71,1.5,6,1.48,7.22,1.48,8.42,1.5,9.52,1.49,10.36,1.45L65,133.13l12.17,1.46L90,136.05M355.73,65.18l-.09.56-.29.55-.47.56-1.07.82-1.48.83-2.64,1.11-3.37,1.11-4.08,1.11-6.13,1.39-7.22,1.39L320.64,76l-9.18,1.39-10.1,1.4-11,1.4-11.7,1.39L266.35,83l-16.42,1.76L232.76,86.5l-1,.1m124,14V65.18M125.42,213.84l-4.25.42-18.06,1.87L86,218l-16,1.85-11.69,1.47L47.5,222.77l-9.78,1.46L29,225.69l-7.64,1.47-6.44,1.45-4.08,1.11-3.37,1.12-2.64,1.1-1.48.83-1.06.83-.47.55-.29.56-.09.55.1.56.28.55.48.56.66.55,1.89,1.1,2.63,1.11,4.71,1.49,6,1.49,7.22,1.48,8.42,1.5,9.52,1.49,10.36,1.45L65,250.06l12.17,1.46L90,253m265.72-70.86-.09.56-.29.55-.47.55-1.07.83-1.48.83-2.64,1.11-3.37,1.11-4.08,1.11-6.13,1.38-7.22,1.4-8.25,1.4-9.18,1.39-10.1,1.4-11,1.4-11.7,1.39-12.35,1.39-16.42,1.76-17.17,1.76-1,.1m0,35.43L249,237.21l18.23-2,13.11-1.48,12.36-1.49,11.48-1.49,10.47-1.48,9.45-1.49,8.19-1.47,7-1.46,5.83-1.45,4.6-1.47,2.63-1.11,1.88-1.1.67-.55.47-.56.29-.55.09-.56M90,253l18.58-2,16.83-1.71m230.31-31.74V182.11"/></g></g></svg>