<svg xmlns="http://www.w3.org/2000/svg" viewBox="0 0 315.07 315.07"><defs><style>.cls-1{fill:none;stroke:#000;stroke-linecap:round;stroke-linejoin:round;stroke-width:2.8px;}</style></defs><g id="Layer_2" data-name="Layer 2"><g id="Layer_1-2" data-name="Layer 1"><path class="cls-1" d="M313.67,268.45V46.61M268.45,1.4H46.61m0,312.27H268.45M1.4,46.61V268.45m45.21,45.22-6.1-.42-6.28-1.31L28,309.65l-6-3.29-5.52-4.22-4.83-5-3.76-5.35L5,286l-2-5.91-1.16-5.91-.37-5.76M268.45,1.4l6.11.41,6.28,1.32,6.25,2.29,6,3.28,5.52,4.23,4.83,5,3.76,5.34L310.11,29l2,5.91,1.16,5.91.37,5.75M1.4,46.61l.41-6.1,1.32-6.28L5.42,28,8.7,22l4.23-5.52,5-4.83,5.34-3.76L29,5l5.91-2,5.91-1.16,5.75-.37M313.67,268.45l-.42,6.11-1.31,6.28-2.29,6.25-3.29,6-4.22,5.52-5,4.83-5.35,3.76L286,310.11l-5.91,2-5.91,1.16-5.76.37M56.62,76.8l-3,.7-3.05.4L47.51,78l-3.06-.24-3-.56-2.94-.86-2.84-1.17-2.71-1.45L30.4,72l-2.35-2-2.13-2.21L24,65.36l-1.63-2.6L21,60,20,57.13l-.76-3-.45-3-.13-3.06L18.83,45l.5-3,.81-3,1.11-2.86,1.41-2.73,1.68-2.57,1.93-2.39,2.17-2.17,2.39-1.93,2.57-1.68,2.73-1.41L39,20.14l3-.81,3-.5,3.07-.19,3.06.13,3,.45,3,.76L60,21l2.75,1.36L65.36,24l2.42,1.89L70,28.05l2,2.35,1.72,2.54,1.45,2.71,1.17,2.84.86,2.94.56,3L78,47.51l-.07,3.07-.4,3.05-.7,3m0,201.83.7,3,.4,3,.07,3.07-.24,3.06-.56,3-.86,2.95-1.17,2.84-1.45,2.71L72,284.67,70,287l-2.21,2.14L65.36,291l-2.6,1.63L60,294l-2.88,1.06-3,.76-3,.45-3.06.13L45,296.24l-3-.5-3-.81-2.86-1.12-2.73-1.4-2.57-1.68-2.39-1.94-2.17-2.17-1.93-2.38-1.68-2.57-1.41-2.73-1.11-2.86-.81-3-.5-3L18.64,267l.13-3.07.45-3,.76-3L21,255.06l1.36-2.76L24,249.7l1.89-2.41,2.13-2.21,2.35-2,2.54-1.73,2.71-1.45,2.84-1.16,2.94-.87,3-.55,3.06-.25,3.07.08,3.05.39,3,.71m201.83,0,3-.71,3-.39,3.07-.08,3.06.25,3,.55,2.95.87,2.84,1.16,2.7,1.45,2.55,1.73,2.34,2,2.14,2.21L291,249.7l1.63,2.6,1.36,2.76,1.06,2.88.76,3,.45,3,.13,3.07-.19,3.07-.5,3-.81,3-1.12,2.86-1.4,2.73-1.68,2.57-1.94,2.38-2.17,2.17-2.38,1.94-2.57,1.68-2.73,1.4-2.86,1.12-3,.81-3,.5-3.07.19L264,296.3l-3-.45-3-.76L255.06,294l-2.76-1.36L249.7,291l-2.41-1.89L245.08,287l-2-2.34-1.73-2.54-1.45-2.71-1.16-2.84-.87-2.95-.55-3-.25-3.06.08-3.07.39-3,.71-3m0-201.83-.71-3-.39-3.05-.08-3.07.25-3.06.55-3,.87-2.94,1.16-2.84,1.45-2.71,1.73-2.54,2-2.35,2.21-2.13L249.7,24l2.6-1.63L255.06,21,257.94,20l3-.76,3-.45,3.07-.13,3.07.19,3,.5,3,.81,2.86,1.11,2.73,1.41,2.57,1.68,2.38,1.93,2.17,2.17,1.94,2.39,1.68,2.57,1.4,2.73L294.93,39l.81,3,.5,3,.19,3.07-.13,3.06-.45,3-.76,3L294,60l-1.36,2.75L291,65.36l-1.89,2.42L287,70l-2.34,2-2.55,1.72-2.7,1.45-2.84,1.17-2.95.86-3,.56-3.06.24-3.07-.07-3-.4-3-.7m50.39-29.59-.35-5.35-1.05-5.26-1.72-5.08-2.37-4.8-3-4.46-3.54-4-4-3.53-4.46-3-4.81-2.37-5.07-1.72-5.26-1-5.35-.35m-23.41,0-42,8.4m0,0-4.53.45m0,0H117.12m0,0-4.53-.45m0,0-42-8.4m-23.4,0-5.35.35-5.26,1L31.52,9.35l-4.8,2.37-4.46,3-4,3.53-3.53,4-3,4.46-2.37,4.8L7.63,36.6l-1,5.26-.35,5.35m0,0v23.4m0,0,8.4,42m0,0,.45,4.53m0,0v80.82m0,0-.45,4.53m0,0-8.4,42m0,23.41.35,5.35,1,5.26,1.72,5.07,2.37,4.81,3,4.46,3.53,4,4,3.54,4.46,3,4.8,2.37,5.08,1.72,5.26,1.05,5.35.35m23.4,0,42-8.4m0,0,4.53-.45m0,0h80.82m0,0,4.53.45m0,0,42,8.4m0,0h23.41m0,0,5.35-.35,5.26-1.05,5.07-1.72,4.81-2.37,4.46-3,4-3.54,3.54-4,3-4.46,2.37-4.81,1.72-5.07,1.05-5.26.35-5.35m0,0V244.45m0,0-8.4-42m0,0-.45-4.53m0,0V117.12m0,0,.45-4.53m0,0,8.4-42M6.23,244.45v23.41M267.86,6.23H244.45M47.21,308.84h23.4m0-302.61H47.21M308.84,70.61V47.21M56.62,76.8l1.7-.55,1.83-.73,1.43-.67,1.85-1,1.52-1,1.11-.79,1-.81,1.15-1,1-1L70.5,68l1.26-1.52.89-1.2,1.18-1.84,1-1.86.68-1.43.72-1.84.56-1.7m0,201.83-.55-1.7-.73-1.83-.67-1.44-1-1.84-1-1.53-.79-1.1-.81-1-1-1.16-1-1L68,244.57l-1.52-1.26-1.2-.89-1.84-1.19-1.86-1-1.43-.67-1.84-.73-1.7-.55m201.83,0-1.7.55-1.83.73-1.44.67-1.84,1-1.53,1L249,243l-1,.82-1.16,1-1,1-1.22,1.29-1.26,1.52-.89,1.21-1.19,1.84-1,1.85-.67,1.44-.73,1.83-.55,1.71m0-201.83.55,1.7.73,1.83.67,1.43,1,1.85,1,1.52.78,1.11.82,1,1,1.15,1,1,1.29,1.23,1.52,1.26,1.21.89,1.84,1.18,1.85,1,1.44.68,1.83.72,1.71.56m-223,80.73.15,6.24.48,6.22.8,6.18,1.1,6.14,1.43,6.07,1.72,6,2,5.9,2.33,5.78,2.62,5.66L51,217.23l3.19,5.36,3.45,5.19,3.72,5,4,4.81,4.21,4.6L74,246.58l4.65,4.15,4.86,3.91,5.06,3.65,5.23,3.39,5.4,3.12,5.56,2.84,5.69,2.55,5.81,2.26,5.92,1.95,6,1.66,6.09,1.34,6.15,1,6.19.71,6.23.4,6.23.08,6.23-.24,6.22-.55,6.17-.88,6.12-1.18,6.06-1.5,6-1.81,5.87-2.11,5.75-2.4,5.62-2.7,5.48-3L223.9,260l5.15-3.52,5-3.78,4.76-4,4.55-4.27,4.32-4.49,4.09-4.71,3.84-4.91,3.59-5.1,3.33-5.28,3-5.44,2.77-5.59,2.48-5.72,2.18-5.85,1.88-5.94,1.58-6,1.27-6.1.95-6.17.63-6.2.32-6.23v-6.24l-.32-6.22-.63-6.21-.95-6.16-1.27-6.11-1.58-6-1.88-6-2.18-5.84-2.48-5.72-2.77-5.59-3-5.44-3.33-5.28-3.59-5.1-3.84-4.91-4.09-4.71-4.32-4.49-4.55-4.27-4.76-4-5-3.78-5.15-3.52-5.32-3.26-5.48-3-5.62-2.69-5.75-2.41-5.87-2.11-6-1.8-6.06-1.5-6.12-1.19-6.17-.87-6.22-.56-6.23-.24-6.23.08-6.23.4-6.19.72-6.15,1L128.2,39l-6,1.65-5.92,2-5.81,2.26-5.69,2.55L99.2,50.27l-5.4,3.12-5.23,3.39-5.06,3.65-4.86,3.91L74,68.48l-4.44,4.39-4.21,4.6-4,4.81-3.72,5-3.45,5.19L51,97.84l-2.91,5.52L45.49,109l-2.33,5.79-2,5.89-1.72,6L38,132.76l-1.1,6.13-.8,6.19-.48,6.22-.15,6.23m12.29,0,.16,5.9.48,5.87.79,5.85,1.1,5.79,1.41,5.72,1.71,5.64,2,5.54,2.31,5.43,2.6,5.29,2.88,5.14,3.15,5,3.41,4.8,3.67,4.62,3.91,4.41,4.14,4.2,4.36,4,4.57,3.73,4.76,3.48,4.94,3.21,5.11,2.95,5.25,2.67,5.4,2.39,5.51,2.09L127,263l5.71,1.49,5.78,1.17,5.83.87,5.87.56,5.89.23,5.89-.08,5.89-.39,5.85-.71,5.81-1,5.74-1.33,5.66-1.64,5.57-1.94,5.45-2.24,5.33-2.53,5.18-2.81,5-3.08,4.85-3.35,4.67-3.61,4.46-3.85,4.25-4.08,4-4.31,3.79-4.51,3.54-4.72,3.28-4.89,3-5.07,2.74-5.22,2.46-5.36,2.16-5.48,1.87-5.59,1.56-5.69,1.26-5.76.94-5.82.64-5.86.31-5.89v-5.89L267,148.7l-.64-5.86L265.4,137l-1.26-5.76-1.56-5.69L260.71,120l-2.16-5.48-2.46-5.36-2.74-5.23-3-5.06L247.05,94l-3.54-4.71-3.79-4.52-4-4.3-4.25-4.09L227,72.48l-4.67-3.6-4.85-3.35-5-3.09-5.18-2.81-5.33-2.52-5.45-2.24-5.57-1.94-5.66-1.64L179.5,50l-5.81-1-5.85-.71-5.89-.4-5.89-.08-5.89.24-5.87.55-5.83.87-5.78,1.18L127,52.07l-5.61,1.79L115.86,56l-5.4,2.38L105.21,61l-5.11,3-4.94,3.22L90.4,70.65l-4.57,3.73-4.36,4-4.14,4.19L73.42,87l-3.67,4.61-3.41,4.81-3.15,5-2.88,5.15-2.6,5.29-2.31,5.42-2,5.54-1.71,5.64-1.41,5.73-1.1,5.79-.79,5.84-.48,5.88-.16,5.89m171,51.76h0l-.18.17-.42.37-.65.58-.85.76-1,.92-1.19,1.06-1.31,1.16-1.39,1.24-1.43,1.28m0,0-1.43,1.27-1.39,1.24-1.31,1.16L205,221.56l-1,.92-.86.76-.64.58-.42.37-.19.17h0m35.51-74.56h0l-.06-.24-.13-.55-.2-.84-.27-1.11-.33-1.35-.38-1.54-.41-1.71-.44-1.81-.45-1.86m0,0-.46-1.86-.44-1.81-.41-1.7-.38-1.55-.32-1.35-.27-1.11-.21-.84L232,128l-.06-.24h0m-87.84-25.31,4.15-.85,4.21-.54,4.23-.21,4.24.09,4.22.42,4.18.73,4.11,1,4,1.34,3.91,1.64,3.77,1.93,3.63,2.21,3.44,2.47,3.25,2.72,3,3,2.81,3.17,2.57,3.38,2.31,3.56,2,3.72,1.75,3.86,1.46,4,1.15,4.08.85,4.15.53,4.21.22,4.23-.1,4.24-.41,4.22-.73,4.18-1,4.11-1.35,4L209,181.41,207,185.19l-2.21,3.62-2.47,3.44-2.72,3.25-2.95,3-3.18,2.81-3.37,2.57-3.56,2.31-3.72,2L179,210l-4,1.46-4.08,1.15-4.16.85-4.2.53-4.24.22-4.24-.1-4.21-.41L145.7,213l-4.11-1-4-1.35L133.66,209,129.88,207l-3.62-2.21-3.45-2.47-3.25-2.72-3-2.95-2.81-3.18-2.56-3.37-2.31-3.56-2-3.72L105.06,179l-1.46-4-1.15-4.08-.85-4.16-.54-4.2-.21-4.24.09-4.23.42-4.22.73-4.18,1-4.11,1.34-4,1.64-3.91,1.93-3.78,2.21-3.62,2.46-3.45,2.72-3.25,3-3,3.17-2.81,3.38-2.56,3.56-2.31,3.72-2,3.86-1.75,4-1.46,4.08-1.15m-3.85-15.84,4.72-1,4.78-.67,4.82-.35,4.82,0,4.82.28,4.79.6,4.74.92,4.67,1.23L183,89.14,187.49,91l4.33,2.13L196,95.5l4,2.68,3.83,2.94,3.63,3.18,3.41,3.42,3.17,3.64,2.93,3.83,2.67,4,2.4,4.19,2.11,4.33,1.82,4.47,1.53,4.58,1.21,4.67.91,4.74.59,4.8.27,4.81,0,4.83-.37,4.81-.68,4.78-1,4.72-1.31,4.65-1.61,4.55-1.91,4.43-2.2,4.3L218.92,197l-2.75,4-3,3.78-3.24,3.57-3.47,3.35-3.69,3.12-3.89,2.86-4.06,2.6-4.23,2.33-4.37,2-4.5,1.75-4.61,1.45L172.42,229l-4.75.83-4.8.51-4.82.19-4.83-.12-4.81-.45-4.76-.76-4.71-1.07-4.62-1.38-4.52-1.69-4.41-2-4.26-2.27-4.1-2.54-3.92-2.81-3.73-3.07-3.52-3.3-3.3-3.53-3-3.73-2.8-3.94-2.54-4.1-2.25-4.27-2-4.41-1.68-4.52L86.9,176l-1.06-4.71-.75-4.77-.43-4.81-.12-4.82.21-4.82.52-4.8.84-4.75,1.16-4.69,1.45-4.6,1.76-4.5,2.06-4.37,2.34-4.22L97.49,116l2.87-3.87,3.13-3.68,3.36-3.47,3.58-3.23,3.79-3,4-2.73,4.15-2.47,4.31-2.18,4.43-1.9,4.56-1.6,4.65-1.29M274.93,33.39l-.15-3.16m0,0-2.44,2m10.16,4.09-3.11.59m2.77,18.61,3.15-.34M271,31.83l-.93-3m-4.95-.2-1.17,2.94m2.82-.24-1.65-2.7m13.3,7.29.13.13.13.12.13.13.12.13.13.12.12.14.12.13.13.13m6.94,8.48-3-1m3.13,6-2.68-1.71M270,28.8l-1.87,2.56m12.94,7.82,1.4-2.85m1.23,10.89v1.43m-5.38-12.76.65-3.1m2.07,6.39.1.15.09.15.09.15.09.16.09.15.09.16.09.16.08.16M259.88,62.3,258,61.18l-1.74-1.38-1.52-1.62-1.29-1.82-1-2-.71-2.11-.41-2.18-.1-2.23.22-2.21.54-2.16.84-2.06,1.12-1.92,1.38-1.74,1.62-1.53L258.71,35l2-1,2.1-.72,2.19-.41,2.22-.09,2.22.22,2.15.53,2.07.84,1.92,1.12,1.74,1.39,1.53,1.61,1.28,1.82,1,2,.71,2.11.41,2.18.1,2.23L282.12,51l-.54,2.16-.83,2.06-1.13,1.92-1.38,1.74-1.62,1.53-1.81,1.28-2,1-2.1.72-2.19.41-2.22.09-2.21-.22-2.16-.53-2.06-.84m15.05-28.91.15.09.16.09.15.09.16.09.15.1.15.09.16.1.15.1m7.31,17.33,3-1.11m-3,1.11,0,.18,0,.17,0,.18,0,.17,0,.18,0,.17,0,.18-.05.17M266.73,31.3h.9l.18,0h.35M282.92,43l.06.17,0,.17.05.17.05.18.05.17.05.17,0,.18,0,.17M282.92,43,285,40.62m-6-7.83-2.87,1.35m7.57,13.08,2.6-1.82m-1,9.79-2.17-2.32M271,31.83l.17.05.18,0,.17,0,.17.05.17.06.17.05.18.06.17.05m-9.84-.4.17,0,.18,0,.17,0,.18,0,.18,0,.17,0,.18,0,.18,0m-1.41.3-2.27-2.21m0,0-.41,3.15m-1.28.64.16-.09.16-.08.15-.08.17-.08.16-.08.16-.08.16-.08.16-.07m-1.28.64-2.75-1.58m0,0,.39,3.15m-1.09.94.14-.12.13-.12.13-.12.14-.12.13-.12.14-.11.14-.12.14-.11m-1.09.94L252,35.09m0,0L253.2,38m-.82,1.18.1-.15.1-.15.1-.15.1-.15.1-.15.11-.14.1-.15.11-.14m-.82,1.18-3.17-.06m0,0,1.86,2.57m-.5,1.35.06-.17.06-.17.06-.17.06-.17.06-.17.07-.16.06-.17.07-.17m-.5,1.35-3.08.74m0,0,2.44,2m-.15,1.43v-.18l0-.18v-.18l0-.18,0-.18,0-.17,0-.18,0-.18m-.15,1.43L247,48.75m0,0,2.87,1.35m.21,1.42,0-.17,0-.18,0-.18,0-.17,0-.18,0-.18,0-.18,0-.18m.21,1.42-2.34,2.13m0,0,3.11.6m.56,1.33-.08-.17-.07-.16-.07-.16-.08-.17-.06-.17-.07-.16-.07-.17-.06-.17m.56,1.33-1.75,2.64m0,0L252.8,58m.87,1.14-.12-.14-.11-.14-.11-.14-.11-.14-.11-.14-.1-.15-.11-.14-.1-.15m.87,1.14-1,3m0,0,3-1m1.13.9-.14-.11-.15-.11-.14-.11-.14-.11-.14-.11-.14-.11-.14-.12-.14-.12m1.13.9-.25,3.16m0,0,2.68-1.7m1.31.58-.17-.06-.16-.07-.17-.07-.16-.07-.17-.08-.16-.07-.16-.08-.16-.08m1.31.58.54,3.13m0,0L263.23,65m1.42.24-.18,0-.18,0-.17,0-.18,0-.18,0-.17,0-.18,0-.18,0m1.42.24,1.3,2.89m0,0,1.53-2.78m1.43-.12-.17,0-.18,0-.18,0-.18,0h-.72m1.43-.12,2,2.48m0,0,.8-3.07m1.35-.48-.17.07-.16.06-.17.07-.17.06-.17,0-.17.06-.17.06-.17,0m1.35-.48L275.57,66m0,0V62.85m1.19-.8-.14.11-.15.1-.15.11-.15.1-.15.09-.15.1-.15.1-.15.09m1.19-.8,2.93,1.22m0,0-.78-3.07m1-1.07-.12.14-.11.14-.12.13-.12.14-.12.13-.12.13-.13.13-.12.13m1-1.07,3.14.45m0,0-1.53-2.78m.67-1.27-.08.16-.08.16-.08.16-.08.16-.09.16-.08.16-.09.16-.09.15M285,40.62l-3.17-.2M57,33.7l.16.09.15.09.15.1.15.1.15.1.15.1.15.1.15.1m5.93,25.68-1.42-2.83m-2,6.4L60,60.63m-6,3.7,2.47,2m0,0,.11-3.17M53.11,32l.17.05.17.06.17,0,.17.06.17.06.17.06.17.06.17.07m-23,18.46-2.42,2m2.3-6.31L28.53,48m0,0,2.81,1.45M57.83,62.41l2.88,1.32M47.34,28.55l-1.27,2.9m7,.54-.82-3.06m0,0-2,2.49M57,33.7l0-3.17m0,0-2.51,1.93m5.9,3.86.76-3.08M34.27,38.71l-3.16-.17m0,0,1.76,2.63m2,17.52-1.14,3m0,0,3-.86M29.08,53l3.09.71m5.31,11.19,2.74-1.6m26.59-22L63.65,41M48.9,31.31h.71l.18,0H50l.18,0,.18,0m-5.68.28.18,0,.17,0,.18,0,.18,0,.17,0,.18,0,.18,0,.18,0m-5.43,1.68.16-.08L41,33l.16-.07.16-.08.17-.07.16-.07.17-.07.16-.07m-9.61,10,.06-.17.06-.17.07-.16.07-.17.06-.16.08-.17.07-.16.07-.17M41.51,63.9l-.17-.07-.16-.08L41,63.68l-.16-.08-.16-.08-.16-.08-.16-.09-.16-.08M45.6,65.1l-.18,0-.17,0-.18,0-.18,0-.17,0-.18,0-.17-.05-.18,0M46.79,68l1.63-2.72M67.9,51.06l-2.61-1.8m-1.85,6.82,3.16-.23m0,0-2.08-2.39M61,59.6l3.12.56M49.86,65.25l1.89,2.55m0,0,.9-3m-7,.34L46.79,68m-5.86-6-1.88-1.19-1.69-1.44-1.47-1.67-1.21-1.87-.94-2-.64-2.13-.33-2.2,0-2.23.3-2.2L33.67,43l.91-2,1.19-1.88,1.44-1.69,1.67-1.47,1.87-1.21,2-.94,2.13-.64,2.2-.33,2.23,0,2.2.3,2.14.62,2,.91,1.88,1.19,1.69,1.44,1.47,1.67,1.21,1.87.94,2,.64,2.13.33,2.2,0,2.23-.3,2.2L63,53.66l-.91,2-1.19,1.88-1.44,1.69-1.67,1.47-1.87,1.21-2,.94-2.13.64-2.2.33-2.23,0-2.2-.3L43,63l-2-.91m.58,1.86L41.94,67m0,0,2.25-2.23m-6.34-3.09-.37,3.15M32.68,55,30.84,57.6m0,0L34,57.52M63,39.7l1.5-2.8M32.33,42.5l-3.11.62m0,0,2.36,2.12m33.73,2.59L68,46.1M34.08,34.57l1.05,3m2.81-6.1.28,3.16m4.24-5.21-.52,3.13M31.5,50.92l0-.18,0-.18,0-.17,0-.18,0-.18,0-.18v-.18l0-.18M32.68,55l-.07-.17-.07-.16-.06-.17-.07-.17-.06-.17L32.29,54l-.06-.16-.06-.17m29-20.44-2.91,1.24M61,59.6l-.12.13-.12.13-.12.14-.12.12-.13.13-.13.13-.12.13-.13.12M63,39.7l.09.15.08.16.09.16.09.15.08.16.08.16.08.16.08.17m.83-4.07-3.14.48m-1-1.06.13.13.12.13.13.13.12.13L61,37l.12.14.12.14.11.13M48.9,31.31l-1.56-2.76M44.65,31.7l-2.19-2.29m-1.82,3.72-2.7-1.67m-.84,4.06.14-.12.13-.12.14-.11.14-.11.14-.12.15-.11.14-.1.14-.11m-1.12.9-3-1m.19,4.14.1-.15.11-.15.1-.14.11-.15L34.8,38l.11-.14L35,37.7l.11-.14m-3.75,9.1,0-.18,0-.18,0-.18,0-.17,0-.18,0-.18,0-.18,0-.17m3.26,13.45-.11-.14-.11-.14-.1-.15-.11-.14-.1-.15-.1-.15-.1-.15-.1-.15m3.84,4.2-.15-.11-.14-.12-.13-.11-.14-.12-.14-.11L37,61l-.14-.12-.13-.12m13.11,4.46h-.18l-.18,0H48.42m5.6-1-.17.06-.17.06-.17,0-.17.06-.17,0-.17,0-.18,0-.17.05m5.18-2.35-.15.1-.15.09-.15.1-.16.1-.15.09-.15.09-.16.09-.16.09m6.84-7.08-.08.16-.09.16-.08.15-.09.16-.09.16-.09.15-.09.15-.1.16m2.17-5.26,0,.18,0,.17,0,.17,0,.18,0,.17-.05.17-.06.18,0,.17m.38-1.39,3-1m-2.59-3.23v1.43M68,46.1,65,45m-.34-1.39,0,.17,0,.17,0,.18,0,.17,0,.17,0,.18,0,.18L65,45m-.34-1.39,2.15-2.34m212,213.49.76-3.08M260,282.34l-.16-.07-.16-.07-.17-.08-.16-.08-.16-.08-.16-.08-.16-.08-.16-.09m24.26-26.36-3.13.48M268.3,283.69l-.17,0h-1.26m-14.72-3.66,3-.87M279.48,278l-.12.14-.12.13-.12.13-.13.13-.12.13-.13.12-.13.13-.13.13m-22.19,1.08-.14-.11-.14-.11-.14-.12-.14-.11-.13-.12-.14-.12-.13-.12-.13-.12m27.9-17.17,2.15-2.33M264,283.55l-.17,0-.18,0-.18,0-.17,0-.18,0-.17,0-.18,0-.17,0m19.25-8.74-.09.16-.08.16-.09.16-.09.16-.08.15-.1.16-.09.15-.09.15M250,269.37l0-.18,0-.18,0-.18,0-.18v-.18l0-.17,0-.18v-.18m21.76-17.5-.82-3.07m4.7,1.6-2.52,1.93m-.44,31.88-.17.06-.17.05L272,283l-.17.05-.18.05-.17.06-.17,0-.17.05m5.17-2.35-.15.1-.15.1-.15.1-.15.09-.15.09-.16.1-.15.09-.16.08m-18.76-1.44-.37,3.15m27.84-17v1.44m-2.32-9.57.09.16.09.15.09.16.08.16.09.16.08.16.08.16.08.16M250.77,261l.06-.17.07-.17.06-.17.07-.16.07-.17.07-.16.07-.17.08-.16m-1.49,5.48,0-.17,0-.18,0-.18,0-.18,0-.18,0-.17,0-.18,0-.18m1.1,9.78-.07-.16-.07-.17-.07-.17-.06-.16-.07-.17-.06-.17-.06-.17,0-.17m2.67,5-.11-.14-.11-.15-.11-.14-.1-.15-.1-.15-.11-.14-.09-.15-.1-.15m20,6.81,2.46,2m-4.74,1.47.91-3m-7.06.35,1.2,2.93m-4.86-1,2.26-2.23m-2.69-.92.43,3.15m15.08-33.35.15.1.15.09.16.1.15.09.15.1.15.1.14.11.15.1m-5.11-2.49.17.05.17,0,.17.06.18.05.16.06.17.06.17.07.17.06m-5.57-1.14h.36l.18,0h.36l.18,0,.18,0,.17,0m-5.67.28.17,0,.18,0,.17,0,.18,0,.18,0,.17,0,.18,0,.18,0m-5.43,1.68.16-.08.16-.08.17-.08.16-.07.16-.08.17-.07.16-.07.17-.07m-4.84,3,.13-.11.14-.12.14-.11.14-.12.14-.11.14-.11.14-.11.15-.11m-4,4.09.1-.14.1-.15.11-.15.11-.14.1-.14.11-.15.12-.14.11-.14m7.32-8.14-.51,3.12m-1,29.51-1.88-1.19-1.69-1.45-1.47-1.67-1.22-1.86-.93-2-.65-2.13-.33-2.2v-2.22l.3-2.21.61-2.13.91-2,1.19-1.88,1.45-1.69,1.67-1.47,1.86-1.22,2-.93,2.13-.65,2.2-.33h2.22l2.21.3,2.14.61,2,.91,1.88,1.19,1.7,1.45,1.46,1.67,1.22,1.86.94,2,.64,2.13.33,2.2v2.22L282,270l-.61,2.14-.91,2L279.3,276l-1.45,1.7-1.67,1.46-1.86,1.22-2,.94-2.13.64-2.2.33h-2.22l-2.21-.3-2.13-.61-2-.91M250,269.37l-2.42,2m0,0,3.09.71m-.79-7L247,266.48m0,0,2.82,1.46m13.31-17.79-2.2-2.29m-4.51,2,.28,3.16m10.67-3.3L265.79,247m4.94.38-2,2.5m6.69,2.27,0-3.17m-7.13,34.72,1.89,2.55m13.15-15.72,0,.17,0,.18,0,.17-.05.17-.05.18-.05.17-.05.17,0,.17m.13-9.84,0,.17.05.18,0,.17.05.17,0,.18,0,.17,0,.18,0,.18m-4.62-8.69.12.12.13.13.12.13.12.14.12.13.12.13.12.14.12.14m1.63,2.31,1.5-2.79m-3.34-3.66-2.92,1.24M265.79,247l-1.28,2.91m-5.43,1.68-2.69-1.68m-.84,4.06-3-1m0,0,1.06,3m-.86,1.15-3.17-.17m0,0,1.77,2.64m-.55,1.33-3.11.62m0,0,2.37,2.11m1.1,9.78-1.84,2.59m0,0,3.17-.08m.83,1.17-1.14,3m3.77,3.21,2.74-1.6m6.58,4.77,1.63-2.72m8.06,1,.12-3.17m1.22-.75,2.89,1.32m0,0-.68-3.09m1-1,3.12.57m0,0-1.42-2.84m.71-1.25,3.16-.23m0,0L283,271.9m.37-1.38,3-1m0,0-2.61-1.8m0-1.44,2.66-1.72m0,0-3-1.09m1.81-3.73-3.15-.32M40.93,280.49l-1.88-1.19-1.69-1.45-1.47-1.67-1.21-1.86-.94-2-.64-2.13-.33-2.2,0-2.22.3-2.21.62-2.13.91-2,1.19-1.88,1.44-1.69,1.67-1.47,1.87-1.22,2-.93,2.13-.65,2.2-.33h2.23l2.2.3,2.14.61,2,.91,1.88,1.19,1.69,1.45,1.47,1.67,1.21,1.86.94,2,.64,2.13.33,2.2,0,2.22-.3,2.21L63,272.11l-.91,2L60.85,276l-1.44,1.7-1.67,1.46-1.87,1.22-2,.94-2.13.64-2.2.33H47.3l-2.2-.3L43,281.4l-2-.91m24.38-14.22L68,264.55m-1.37,9.74-2.08-2.39M68,264.55l-3-1.09m-30.73-6.31.1-.14.11-.15.1-.15.11-.14.11-.14.11-.15.11-.14.11-.14m26-4.31-2.91,1.24m5.22,21.59,3.16-.23M57,249l-2.51,1.93m-5.57-1.14h.36l.18,0h.35l.18,0,.18,0,.18,0M64.9,270.52l3-1m0,0-2.61-1.8M37.1,254l.14-.11.13-.12.14-.11.14-.12.14-.11.15-.11.14-.11.14-.11m28.59,6.67-3.16-.32m-32.15,10,0-.18,0-.18,0-.18,0-.18,0-.18,0-.17v-.18l0-.18m26.49,12.91,2.88,1.32m-28-8.71-.07-.16-.07-.17-.06-.17-.07-.16-.06-.17-.06-.17-.06-.17-.06-.17m20.94-21.68-.82-3.07M57,252.14,57,249m3.39,5.8.76-3.08m-16.48-1.54.18,0,.17,0,.18,0,.18,0,.17,0,.18,0,.18,0,.18,0m-8.22,30.26-.37,3.15m0,0,2.74-1.6M61,278l3.12.57M31.38,265.1l0-.17,0-.18,0-.18,0-.18,0-.18,0-.17,0-.18,0-.18M48.9,249.76,47.34,247m0,0-1.27,2.91m18.41,5.45-3.14.48m3.32,6.23,2.15-2.33M32.33,261l.06-.17.06-.17.07-.17.07-.16.06-.17.08-.16.07-.17.07-.16m31.28,19-1.42-2.84m-2,6.4L60,279.08m-7.75-31.71-2,2.5m-.47,33.82,1.89,2.55M32.68,273.46l-1.84,2.59m22.27-25.61.17.05.17,0,.17.06.17.05.17.06.17.06.17.07.17.06m-13.83.68.16-.08.16-.08.16-.08.16-.07.17-.08.16-.07.17-.07.16-.07m-4-1.08.28,3.16m-3.38,24.08-.11-.14-.11-.15-.1-.14-.11-.15-.1-.15-.1-.14-.1-.15L34,276m3.84,4.19-.15-.11-.14-.11-.13-.12-.14-.11-.14-.12-.13-.12-.14-.12-.13-.12m4.76,3.11-.17-.07-.16-.07-.16-.08-.16-.08L40.7,282l-.16-.08-.16-.08-.16-.09m5.38,1.84-.18,0-.17,0-.18,0-.18,0-.17,0-.18,0-.17,0-.18,0m9.83-.48-.17.06-.17.05-.17.06-.17.05-.17.05-.17.06-.18,0-.17.05m7.72-28.43.13.12.12.13.13.13.12.14.12.13.12.13.12.14.11.14M63,258.14l.09.16.08.15.09.16.09.16.08.16.08.16.08.16.08.16M63,258.14l1.5-2.79M57,252.14l.16.1.15.09.15.1.15.09.15.1.15.1.15.11.15.1m-13.57-2.78-2.19-2.29m0,0L41.94,251m-1.3.6-2.7-1.68M37.1,254l-3-1m0,0,1.05,3m-.86,1.15L31.11,257m0,0,1.76,2.64M32.33,261l-3.11.62m0,0,2.36,2.11m-.2,1.42-2.85,1.38m0,0,2.81,1.46m.16,1.43-2.42,2m0,0,3.09.71m-1.33,3.93L34,276m.83,1.17-1.14,3m0,0,3-.87m4.76,3.11.43,3.15m0,0,2.25-2.23m1.41.29,1.19,2.93m0,0,1.63-2.72m1.44-.07-.18,0H48.42m3.33,2.48.9-3m1.37-.42,2.47,2m0,0,.11-3.17m1.23-.75-.15.1-.15.1-.15.1-.16.09-.15.09-.15.1-.16.09-.16.08M61,278l-.12.14-.12.13-.12.13-.12.13-.13.13-.13.12-.12.13-.13.13m3.4-4.56-.08.16-.09.16-.08.16-.09.16-.09.15-.09.16-.09.15-.1.15m2.17-5.25,0,.17,0,.18,0,.17,0,.17,0,.18-.05.17-.06.17,0,.17m.79-5.63v1.44m-.63-5.65,0,.17,0,.18,0,.17,0,.17,0,.18,0,.17,0,.18,0,.18m153.77-54.17-3.88-4.36M198,220l3.88,4.35M232,127.76l-5.67,1.38m5.36,22,5.67-1.38"/></g></g></svg>