<svg xmlns="http://www.w3.org/2000/svg" viewBox="0 0 610.8 314.38"><defs><style>.cls-1{fill:none;stroke:#000;stroke-linecap:round;stroke-linejoin:round;stroke-width:2.8px;}</style></defs><g id="Layer_2" data-name="Layer 2"><g id="Layer_1-2" data-name="Layer 1"><path class="cls-1" d="M569.72,135.07l1.28-1.18M95.8,280.49l-1.2-.65-.8-.76-.53-1L93.18,277l.33-1.07.76-1,.92-.76m1.34-.69,2.25-.69M566.35,138.87,563,142.14l-4.25,3.53-5.25,3.56-6.34,3.34-.71.28M194.91,307.21l5.2-2.66,4.48-2.83,3.81-2.87,3.19-2.79,2.64-2.6M373.63,19l-.85-.2-.84-.29-.63-.31-.4-.34-.15-.35v-.05m168.33,3.43L539,29.25m27.33,109.62,1-.63.35-.39m26-106.12-.06,7m12.92,4,.29-1.91M1.4,179.59l0,.13.24.38.52.36.78.33,1,.29,1.21.23m0,0L22.31,184m33.45.13-.53-.08-.56-.06-.56,0-.59,0-.59,0-.6,0h-1.2M22.31,184l.66.09.69.08.71.07.73.05.74,0,.75,0h1.5m0,0,23-.5M95.19,274.1h0l1-.53M55.76,184.12l59.7,9.33m28.07,78.45-5.48-3.39-5.93-2.7-6.3-1.94-6.57-1.14-6.25-.31-6.75.47-2.73.42-3,.63-3.29.88L93.68,266m0,0-5,2.71M194.2,307.49l.71-.28m22.69-17.55-1.86,2.16-1.51,1.64M92.31,279.77l3.49.72m46.88-69.88,10.4-4.56M128.25,213l-1.59-.54-1.41-1.08-1.09-1.5-.63-1.75-.12-1.82.41-1.69.89-1.37,1.29-.91,1.53-.34,1.62.25,1.52.82,1.27,1.31.87,1.65.38,1.81-.15,1.77-.66,1.55-1.1,1.16-1.43.63-1.6,0m-12.77-21.53-.09,10.84m25.86,4-.31,2.95-.86,2.74-1.37,2.4-1.82,2-2.2,1.43-2.48.84-2.65.21-2.7-.42-2.64-1-2.46-1.61-2.17-2.11-1.79-2.53-1.33-2.82-.82-3-.26-3m25.94-6.8-.08,10.84m1.34,15.46.09-11.18m-11.29,19.15.09-11m8.15,21.41-1.62-.4-1.55-.75L135,238l-1.25-1.33-1-1.55-.76-1.71-.46-1.8-.15-1.83m33.68,14-25.44-3.54m25.44,3.54.75.16.73.3.7.41.65.52.58.62.51.7.41.76.31.81m0,0,11.71,37.49m-1.61,5.66.56-.46.47-.56.38-.65.27-.73.16-.79,0-.82-.08-.83-.19-.82m-1.61,5.66-5.18,3.09-5.43,2.56-5.67,2-5.85,1.47-6,.91-6.11.33-6.19-.23-6.21-.81-6.2-1.37-6.15-1.94-6-2.47-5.91-3-5.74-3.51-5.52-4-5.28-4.45m-3.63-11-1.5,1.8-1.05,2.2-.56,2.47,0,2.62.49,2.64L87,283l1.44,2.29,1.82,1.93M183.85,298l-5.52,3.3L172.54,304l-6,2.19-6.23,1.62-6.39,1-6.51.44-6.6-.17-6.62-.76L127.54,307,121,305.06l-6.48-2.51-6.34-3.06-6.18-3.6-6-4.11-5.72-4.59M183.85,298l1.4-1.14,1.19-1.41.95-1.63.68-1.82.39-2,.1-2.05-.2-2.08-.49-2.06M175.1,242.9l12.77,40.91m-19.74-47.34,1.13.26,1.1.44,1,.62,1,.78.88.92.75,1,.62,1.14.47,1.22m-7-6.43-15.65-2.17m0,0-1.94-.49-1.86-.89L147,231.65l-1.5-1.6-1.23-1.86-.91-2.05-.55-2.16-.18-2.19m75,67.87,8-10.58,7.38-11.68,6.67-12.77,5.85-13.86,4.89-14.91M84.71,261.37l1,1.65,1,1.64,1,1.63,1,1.62.36.55m65-78.62-.09,10.85m0,0,0,.7-.05.7-.08.69-.12.68-.14.67-.17.65-.21.64-.23.63M153,217.22l.09-11.17m9.79,23.68-1.93-.48-1.86-.89-1.72-1.28-1.5-1.59-1.23-1.87-.91-2.05-.55-2.16-.18-2.19m25.54,14.69-15.66-2.18m15.66,2.18,1.13.25,1.1.44,1.05.62,1,.78.88.92.75,1.05.62,1.15.47,1.21m0,0,12.77,40.91m-4,14.15,1.4-1.14,1.19-1.4.95-1.64.68-1.82.39-2,.1-2-.2-2.09-.49-2.06m-4,14.15-5.52,3.31L184,299m-35.69-22.43-4.78-4.67M145.88,283l.6.07,1.27-.26,1-.83.61-1.2.12-1.44-.37-1.46-.82-1.27m-45.2-5.16-.14.36-.2,1,0,1.08.31,1.07.54,1,.73.8m71.1,17.07-2.4.74L166.93,296l-6.32.82-6.43.19-6.5-.44-6.51-1.06-6.49-1.68-6.4-2.28L122,288.64l-6.1-3.44-5.88-4-5.63-4.5m145.94-50.85,3.07-12.39,2.3-12.71m-20.39-.91L63.81,173M60,169.49l-1.22.92-.06.52.36.52,1.34.75,1.53.48,1.87.36m346-157.11L60,169.49M423.51,15.13l-3.69-.36-3.91,0-3.63.42-1.39.33-1.12.39m13.74-.8L595,41.93m3.74,3.54,1.23-.92.07-.51-.34-.52-1.49-.81-1.36-.41L595,41.93m3.74,3.54L249,199m-13.67.82,2.11.25,2,.12,3.44-.05,1.9-.16,1.68-.26L249,199m-133.51-7.58,25.85,4m12.86-5.65-12.86,5.65m96.35,7.4-83.49-13m83.49,13,2.37-1m15.66-1.09-2.83.83-4.08.52-4.34.09-4.41-.35m19.26-2.67-3.6,1.58M607.79,46.19l-348.48,153M604,42.07l3.19.83L609,44l.19,1.18-1.44,1M604,42.07l2.36-1m0,0,.48-.21M582.06,37l24.79,3.87M593.7,31.73,582.06,37m5.42-6.19,6.22,1m-6.22-1-10.34,4.45m0,0L525,27.06m14.11-6.2L525,27.06M513.24,16.82l25.85,4m-25.85-4L499.13,23M428.72,12l70.41,11M428.72,12l-.5-.08-.49-.1-.45-.11-.41-.11-.39-.12-.34-.13-.3-.14-.26-.14m-9.26-5.55,9.26,5.55m-13.2-6.71.64.1.6.13.56.13.52.14.48.15.43.17.38.16.33.18M395.25,1.69l17.13,2.68m-27.45-2,.86-.31,1.08-.25,1.26-.19,1.39-.13L391,1.4l1.48,0,1.44.1,1.35.17m-10.32.64-13.1,5.75m2,2.53-1-.24-.84-.28-.63-.32-.4-.34-.16-.35.1-.35.33-.34.58-.31m5.08,3.13-3-.6m6.8,5.27,1.06-.58.62-.62.17-.65-.29-.64-.73-.63-1.17-.58-1.54-.53-1.88-.44M46,162.79,380.67,15.88M28.46,164.15l2.4.23,2.5.1h2.52l2.47-.13,2.32-.24,2.1-.35,1.81-.44,1.45-.53m-17.57,1.36-3.4-.41m0,0-1.29-.12-1.35-.05H21.05l-1.33.07-1.25.13-1.13.19-1,.24-.79.28m-13.1,5.75,13.1-5.75M370.82,9l-.06,8.4M546.45,152.89l5.82-2.92,5.48-3.48,5.14-4,4.18-4m.6-.57,3.41-3.88m0,0,10.85-14.91,9.1-15.87,7.35-16.55L604,69.8m0,0,3.08-12.46,2.31-12.82M1.47,171.19l-.07,8.4M138.51,308.72l2.2.72,6.32,1.48M55,184.05l2.26,11.16,4.57,16.4,5.82,16.2,7,15.78,8.1,15.18,6.2,9.81M147,310.92l8.49,1.32L164,313M95.18,274.1l.59-.38.66-.31M164,313l6.33,0m-30.78-34.74,4.16,3.55m0,0,1,.74,1.16.43m-49.45-9.55,6.88-2,5.67-.91,4.39-.25,3.2.08,4,.4,5.33,1.11,4.22,1.38,4.61,2.09,4.82,2.95m54.52,29.33L546.56,152.84M170.36,313l7.26-.7L184,311l5.54-1.65,4.75-1.86m-20.7-3.92L184,299"/></g></g></svg>