<svg xmlns="http://www.w3.org/2000/svg" viewBox="0 0 282.77 462.16"><defs><style>.cls-1{fill:none;stroke:#000;stroke-linecap:round;stroke-linejoin:round;stroke-width:2.8px;}</style></defs><g id="Layer_2" data-name="Layer 2"><g id="Layer_1-2" data-name="Layer 1"><path class="cls-1" d="M240,109.63H178.25m0,28.34H240m0,0,.46,0,.44-.14.41-.22.36-.29.29-.36.22-.41.13-.44.05-.46m0,0v-2.36m0,0h19.49m0,0,.46-.05.44-.13.41-.22.36-.29.29-.36.22-.41.13-.44.05-.46m0,0V116.71m0,0-.05-.46-.13-.44-.22-.41-.29-.36-.36-.29-.41-.22-.44-.13-.46-.05m0,0H242.33m0,0V112m0,0-.05-.46-.13-.45-.22-.4-.29-.36-.36-.3-.41-.21-.44-.14-.46,0m-85.75,0H125.11m0,28.34h29.11M1.4,112v23.62m0,0h.07m-.07,0,.05.46.13.44.22.41.29.36.36.29.41.22.44.14.46,0m0,0h.07m-.07-28.34h.07m-.07,0-.46,0-.44.14-.41.21-.36.3-.29.36-.22.4-.13.45L1.4,112m0,0h.07m99.62-2.36H3.83m0,0-.46,0-.44.14-.41.21-.36.3-.29.36-.22.4-.13.45-.05.46m0,0v23.62m0,0,.05.46.13.44.22.41.29.36.36.29.41.22.44.14.46,0m0,0h97.26M243.82,459.55l13.86,1.21m.07,0h-.07m-50.43-21,3.1,3.59,3.41,3.3,3.71,3,3.95,2.62,4.18,2.26L230,456.4l4.52,1.47,4.63,1.05,4.71.63m.07,0h-.07m-89.6-288.64V138m0-28.34V96.93m0,41V109.63M103,250.2l5.74,15.69,6.15,15.55,6.53,15.39L128.37,312l7.3,15,7.68,14.85,8.05,14.65L159.83,371l8.78,14.22,9.14,14L187.24,413l9.83,13.52,10.18,13.26m.07,0h-.07M104.63,84.89l-.69.06-.67.21-.61.32-.54.44-.44.54-.32.61-.2.67-.07.69m3.61-3.54h-.07M257.75,460.76V269.21m0,0-51.68-24.1m0,0L202,243l-3.82-2.49-3.56-2.84-3.27-3.16-3-3.45-2.62-3.73-2.27-3.95-1.88-4.15-1.48-4.3-1.06-4.43-.64-4.51-.22-4.55m0,0v-113m0,0-.07-.69-.2-.67-.33-.61-.44-.54-.54-.44-.61-.32L175.4,85l-.69-.06m0,0h-70m0,0L104,85l-.67.21-.61.32-.54.44-.44.54-.32.61-.21.67-.06.69M103.1,250.2l5.74,15.69L115,281.44l6.53,15.39L128.44,312l7.3,15,7.68,14.85,8.05,14.65L159.9,371l8.78,14.22,9.14,14L187.31,413l9.83,13.52,10.18,13.26m0,0,3.1,3.59,3.41,3.3,3.71,3,4,2.62,4.18,2.26L230,456.4l4.52,1.47,4.63,1.05,4.71.63m0,0,13.86,1.21M154.29,96.93H125.11m29.18,74v-74m-29.18,74h29.18m-29.18-74v74m-24-82.48v21.2m0,0V138m0,0V238.84m.07-150.41V238.84m0-150.41h-.07m0,150.41,0,1.45.09,1.44.15,1.44.21,1.43.28,1.42.33,1.41.39,1.39.46,1.38m.07,0H103m-1.87-11.36,0,1.45.09,1.44.15,1.44.21,1.43.28,1.42.33,1.41.39,1.39.46,1.38m-1.94-11.36h-.07m9.22-198.6v41.1m.07,0h-.07m0,0,.07.69.2.67.33.61.44.54.53.44.62.33.66.2.69.07m-6.59-48.16.62.15.58.25.53.35.45.44.37.51.28.57.16.61.06.63m.07,0h-.07M71.67,29.84l4.41,1.06,4.42,1,4.43,1,4.45.89,4.45.84,4.47.77,4.48.72,4.48.66m.07,0h-.07M139.9,1.4h-.07m0,0-8.62.28-8.61.54L114,3l-8.56,1.05L96.92,5.38,88.43,6.94,80,8.75l-8.38,2.07M69,14.24V26.4m2.71-15.58h-.07m0,0-.55.19-.51.28-.45.36-.4.43-.31.49-.23.53-.15.56,0,.58m.07,0H69m44.94,70.65h52m3.54-3.55-.07.69-.2.67-.33.61-.44.54-.54.44-.61.33-.66.2-.69.07m3.54-44.65v41.1m3-44.61-.62.15-.58.25-.53.35-.45.44-.37.51-.28.57-.16.61-.06.63m38.64-10.4-4.41,1.06-4.42,1-4.43,1-4.45.89-4.45.84-4.47.77-4.48.72-4.48.66M210.76,26.4l0,.58-.14.57-.24.54-.32.49-.4.43-.46.36-.52.28-.56.19m2.69-15.6V26.4m-2.64-15.58.55.19.51.28.45.36.39.43.32.49.23.53.14.56,0,.58M139.9,1.4l8.63.28,8.61.54,8.59.8,8.56,1.05,8.53,1.31,8.49,1.56,8.43,1.81,8.38,2.07M139.9,1.4l-8.62.28-8.61.54-8.59.8-8.56,1.05L97,5.38,88.5,6.94,80.07,8.75l-8.38,2.07m0,0-.55.19-.51.28-.45.36-.4.43-.31.49-.23.53-.15.56,0,.58m0,0V26.4m2.69,3.44,4.41,1.06,4.42,1,4.43,1,4.45.89,4.45.84,4.47.77,4.48.72,4.48.66m0,0,.62.15.58.25.53.35.45.44.37.51.28.57.16.61.06.63m0,0v41.1m0,0,.07.69.2.67.33.61.44.54.53.44.62.33.66.2.69.07M69.05,26.4l0,.58.14.57.24.54.32.49.4.43.46.36.52.28.56.19M69.05,26.4H69m0,0L69,27l.15.57.24.54.32.49.4.43.46.36.52.28.56.19m.07,0h-.07M271.85,73.49V172.7m-4.72,28.94v13.94m.07,0h-.07m0,0,.05.46.13.44.22.41.29.36.36.29.41.22.44.13.46.05m.07,0h-.07m.07-189.69h-.07m0,0-.46.05-.44.13-.41.22-.36.29-.29.36-.22.41-.13.44-.05.47m.07,0h-.07m0,0V44.55M249.42,183.92l2.77.22,2.7.65,2.57,1.06,2.37,1.46,2.11,1.8,1.81,2.12,1.45,2.37,1.06,2.56.65,2.71.22,2.77m.07,0h-.07m.07-157.09h-.07m0,0-.22,2.77L266.26,50,265.2,52.6,263.75,55l-1.81,2.11-2.11,1.81-2.37,1.45-2.57,1.06-2.7.65-2.77.22m-4.07,92.12h-.07m0,0v27.17m.07,0h-.07m0,0,.05.46.13.44.22.41.29.36.36.29.41.22.44.14.46,0m.07,0h-.07m.07-121.65h-.07m0,0-.46,0-.44.14-.41.22L246,63l-.29.36-.22.41-.13.44-.05.46m.07,27.17h4.73m31.29,123.78v-185m0,0,0-.47-.14-.44L281,29.3l-.29-.36-.36-.29-.41-.22-.44-.13-.46-.05m0,0h-9.45m0,0-.46.05-.44.13-.41.22-.36.29-.29.36-.22.41-.13.44-.05.47m0,0V44.55m0,0L267,47.32,266.33,50l-1.06,2.57L263.82,55,262,57.08l-2.11,1.81-2.37,1.45L255,61.4l-2.7.65-2.77.22m0,0h-1.78m0,0-.46,0-.44.14-.41.22L246,63l-.29.36-.22.41-.13.44-.05.46m4.73,27.17.46,0,.44-.13.41-.22.36-.3.29-.35.22-.41.13-.45.05-.46m0,0V73.49m0,0h19.48m0,0V172.7m0,0H252.44m0,0V156.76m0,0-.05-.46-.13-.45-.22-.41-.29-.35-.36-.3-.41-.22-.44-.13-.46-.05m0,0h-4.73m0,0v27.17m0,0,.05.46.13.44.22.41.29.36.36.29.41.22.44.14.46,0m0,0h1.78m0,0,2.77.22,2.7.65,2.57,1.06,2.37,1.46,2.11,1.8,1.81,2.12,1.45,2.37,1.06,2.56.65,2.71.22,2.77m0,0v13.94m0,0,.05.46.13.44.22.41.29.36.36.29.41.22.44.13.46.05m0,0H279m0,0,.46-.05.44-.13.41-.22.36-.29.29-.36.22-.41.14-.44,0-.46m-36-151V91.8m0-27.17h-.07m0,0V91.8m.07,0h-.07m20.08,54.92v10.16m0-67.56V99.47m0,7.09v33.07M253.5,75.85h-.07m.07,13.47h-.07m0-13.47V89.32m.07,67.56h-.07m0,0v13.46m.07,0h-.07m-9.85-23.62h21.85m-21.85-35.44h6.61m15.24-11.81H243.58m6.61,35.44h-6.61m21.85,22H253.5m0,0v13.46m0,0h17.36m0,0V75.85m0,0H253.5m0,0V89.32m0,0h11.93m0,0V99.47m-15.24,11.81v-4.72m0,0h15.24m0,0v33.07m0,0H250.19m0,0v-4.72m15.24,11.81v10.16m-21.85-10.16h-.07m.07-11.81v11.81m0-11.81h-.07m0,0v11.81m.07-47.25v11.81m0-11.81h-.07m0,0v11.81m.07,0h-.07"/></g></g></svg>