<svg xmlns="http://www.w3.org/2000/svg" viewBox="0 0 380.98 263.02"><defs><style>.cls-1{fill:none;stroke:#000;stroke-linecap:round;stroke-linejoin:round;stroke-width:2.8px;}</style></defs><g id="Layer_2" data-name="Layer 2"><g id="Layer_1-2" data-name="Layer 1"><path class="cls-1" d="M357.23,54.72l2.2,2.05,2,2.29,1.7,2.48,1.43,2.66L365.66,67l.83,2.9.5,3,.19,3-.15,3-.47,3-.79,2.91-1.1,2.8-1.39,2.67-1.68,2.51-1.94,2.31-2.17,2.08L355.1,99l-2.57,1.57-2.73,1.28-2.85,1-2.94.67-3,.34-3,0-3-.31-2.94-.63-2.87-.94-2.74-1.25-2.59-1.54-2.41-1.81m34-24.57,6.43-.56m-8.09-.56.09.25.15.23.17.2.22.17.23.14.26.09.26,0h.28M341.13,61l2.15.42,2.06.72,1.94,1,1.77,1.28L350.62,66,352,67.72,353,69.63l.79,2M339.74,59.59l0,.27.1.26.13.23.17.21.2.18.24.14.25.1.26.05m-1.95-7.87.56,6.43m1.12-8.16-.34,0-.33.08-.31.16-.26.22-.21.27-.15.3-.08.34v.34m24.13,17.11-.83-2.73-1.13-2.61-1.43-2.47-1.71-2.29-2-2.07-2.18-1.83-2.38-1.57-2.55-1.28-2.68-1-2.77-.67-2.83-.34m21,20.8.34-.07.31-.14.28-.19.23-.26.16-.3.1-.32,0-.34,0-.34m-40.09,9-6.44.57m8.1.56-.1-.25-.15-.23-.17-.21-.21-.17-.24-.13-.26-.09-.26,0h-.27M337.55,91l-2.15-.41-2.06-.73-1.94-1-1.77-1.28-1.57-1.52-1.33-1.73-1.07-1.91-.78-2m14.06,12.07,0-.26-.09-.26-.14-.24-.17-.21-.2-.17-.24-.14-.25-.1-.26-.06m2,7.88-.57-6.44m-1.12,8.16h.34l.34-.09.3-.16.26-.21.21-.27.15-.31.08-.33v-.34M315.37,81.8l.83,2.73,1.13,2.62,1.43,2.47,1.71,2.28,2,2.08,2.18,1.83L327,97.38l2.55,1.28,2.68,1,2.77.66,2.83.34m-21-20.79-.34.06-.31.14-.28.2-.22.25-.17.3-.1.33,0,.34,0,.33m1-61.34,40.82,34.26M313.37,24.26l-.07-.69.09-.68.24-.65.37-.59.49-.49.58-.37.65-.24.69-.09m-32.57,39,3.1-.09,3.07-.42,3-.74,2.91-1.05,2.79-1.35,2.63-1.64,2.45-1.9L306,50.11l2-2.38,1.73-2.57,1.45-2.74,1.15-2.87.85-3,.53-3,.2-3.1-.12-3.09-.44-3.07M280.62,63.1l0-.69.13-.68.26-.64.4-.56.51-.47.6-.35.66-.2.69-.06m37.61,37.91L280.62,63.1m51.56,21.47,1.55,1.08,1.7.81,1.82.51,1.88.2,1.88-.12,1.84-.45,1.74-.74,1.58-1,1.39-1.28,1.15-1.5.88-1.67.59-1.79.27-1.87,0-1.89L350.05,73l-.68-1.77-.95-1.62-1.23-1.44-1.44-1.22-1.63-1-1.77-.66L340.49,65l-1.88,0-1.87.28-1.79.6-1.67.89-1.49,1.16-1.27,1.39-1,1.59-.74,1.74-.43,1.84-.12,1.88.2,1.88.52,1.81.82,1.71,1.1,1.53,1.33,1.34m10.41,7.59.56,6.44m.56-8.1-.25.1-.23.14-.2.18-.17.21-.14.24-.09.26,0,.26v.27m11.75-14.33L353.93,80,353.21,82l-1,1.94-1.28,1.77-1.53,1.57-1.73,1.33-1.91,1.07-2,.78m12.07-14.06-.26,0-.26.09-.23.14-.21.17-.18.2-.14.23-.1.26-.06.26m7.88-2-6.44.57M364,77.55l0-.34-.09-.33-.15-.3-.22-.26-.27-.21-.31-.15-.33-.08h-.34M345.11,100l2.73-.83,2.61-1.13,2.47-1.44,2.28-1.7,2.08-2,1.83-2.18,1.57-2.39L362,85.84l1-2.68.67-2.77.34-2.84m-20.8,21,.07.33.13.32.2.27.26.23.29.17.33.1.34,0,.34,0m-9-40.1-.56-6.43M335,61.57l.25-.1.23-.14.21-.18.17-.21.13-.23.09-.26,0-.27v-.27M324.34,74.24l.41-2.14.72-2.07,1-1.93,1.28-1.77,1.52-1.57L331,63.42l1.91-1.06,2-.79M322.9,75.64l.26,0,.26-.09.23-.13.22-.17L324,75l.14-.23.1-.25.06-.27m-7.88,2,6.44-.56m-8.17-1.12,0,.34.09.33.15.31.22.26.27.21.31.15.33.08h.34m17.11-24.13-2.73.82L328.23,54l-2.47,1.43-2.28,1.71-2.08,2-1.83,2.18L318,63.69l-1.28,2.55-1,2.68-.67,2.77-.34,2.83m20.8-21-.07-.34-.13-.31-.2-.28-.26-.23-.29-.16-.33-.11-.34,0-.34,0M141.2,2.2l3,.16,3,.49,2.9.8,2.8,1.12,2.66,1.41,2.5,1.69,2.3,2L162.42,12l1.82,2.4L165.8,17l1.26,2.74,1,2.85.65,3,.33,3v3l-.33,3L168,37.48l-1,2.85-1.26,2.74-1.56,2.58-1.82,2.4-2.07,2.19-2.3,1.95-2.5,1.69-2.66,1.41-2.8,1.12-2.9.8-3,.49-3,.17m0,0H87.91m63.56-40.69L156,12.61m-6.57,4.77.24.13.26.09.27,0h.27l.26-.06.26-.09.23-.14.21-.17m-18.54.2,1.91-1.06,2-.77,2.13-.47,2.18-.16,2.19.16,2.13.47,2,.77,1.91,1.06m-18.53-.2.21.17.23.14.25.09.27.06h.27l.27,0,.25-.09.24-.13m-6.56-4.77,4.57,4.57m-4.39-7-.25.23-.2.28L126,11l-.06.34v.34L126,12l.16.3.21.27m29.49-2.4-2.39-1.56-2.55-1.28-2.68-1-2.78-.65-2.83-.33h-2.85L137,5.75l-2.78.65-2.68,1-2.55,1.28-2.39,1.56M156,12.61l.21-.27.15-.3.09-.33v-.34l-.06-.34-.13-.31-.2-.28-.25-.23M130.94,42.88l-4.57,4.57m6.56-4.77-.24-.13-.25-.09-.27,0h-.27l-.27,0-.25.09-.23.14-.21.17m18.53-.2-1.91,1.06-2,.77-2.13.47-2.19.16L139,45l-2.13-.47-2-.77-1.91-1.06m18.54.2-.21-.17-.23-.14-.26-.09-.26,0h-.27l-.27,0-.26.09-.24.13M156,47.45l-4.57-4.57m4.39,7,.25-.24.2-.28.13-.31.06-.34v-.34L156.4,48l-.15-.3-.21-.27m-29.49,2.41,2.39,1.56,2.55,1.27,2.68,1,2.78.65,2.83.33h2.85l2.83-.33,2.78-.65,2.68-1,2.55-1.27,2.39-1.56m-29.49-2.41-.21.27L126,48l-.08.33v.34L126,49l.13.31.2.28.25.24M87.91,2.2H141.2M88,7.06l-.48-.48L87.16,6l-.24-.65-.09-.68L86.89,4l.21-.66.34-.6.47-.51M88,53l2.32-2.07,2.08-2.29,1.83-2.5,1.56-2.68,1.27-2.82,1-3,.65-3L99,31.58v-3.1l-.32-3.08-.65-3-1-2.94L95.81,16.6l-1.56-2.68-1.83-2.5L90.34,9.13,88,7.06m-.11,50.81-.47-.52-.34-.6-.21-.66-.06-.69.09-.68.24-.65.38-.58L88,53M141.2,41.16l1.89-.16,1.82-.47,1.72-.78,1.57-1.06,1.36-1.3,1.12-1.52.85-1.69.56-1.8.24-1.88-.08-1.88-.4-1.85-.7-1.75-1-1.61L148.91,22l-1.47-1.18-1.65-.93L144,19.26l-1.86-.32h-1.89l-1.86.32-1.78.62-1.65.93L133.5,22l-1.25,1.42-1,1.61-.7,1.75-.4,1.85-.08,1.88.24,1.88.55,1.8.85,1.69,1.13,1.52,1.36,1.3,1.56,1.06,1.72.78,1.83.47,1.88.16m12.86-.86,4.56,4.56m-4.77-6.56-.13.24-.08.26,0,.26v.28l.05.26.09.26.14.23.18.21m-.21-18.54,1.06,1.91.77,2,.48,2.13.15,2.18-.15,2.18-.48,2.14-.77,2-1.06,1.91m.21-18.54-.18.21-.14.24-.09.25-.05.27V21l0,.26.08.26.13.24m4.77-6.56-4.56,4.56m7-4.38-.23-.26-.28-.19-.32-.13-.33-.07-.34,0-.33.08-.31.15-.27.22M161,44.69l1.56-2.39,1.27-2.55,1-2.69.66-2.77.33-2.83V28.6l-.33-2.83L164.83,23l-1-2.69-1.27-2.55L161,15.38m-2.41,29.48.27.22.31.15.33.09h.34l.33-.07.32-.13.28-.19.23-.25M128.35,19.76l-4.57-4.56m4.78,6.56.13-.24.08-.26,0-.26v-.27l-.05-.27-.1-.25-.13-.24-.18-.21m.21,18.54-1.06-1.91-.78-2-.47-2.14L126.09,30l.16-2.18.47-2.13.78-2,1.06-1.91m-.21,18.54.18-.21.13-.23.1-.26.05-.26v-.28l0-.26-.08-.26-.13-.24m-4.78,6.56,4.57-4.56m-7,4.39.23.25.28.19.31.13.34.07h.34l.33-.09.31-.15.26-.22m-2.4-29.48-1.56,2.38-1.27,2.55-1,2.69-.66,2.77-.33,2.83v2.86l.33,2.83.66,2.77,1,2.69,1.27,2.55,1.56,2.39m2.4-29.49-.26-.22-.31-.15-.33-.08-.34,0-.34.07-.31.13-.28.19-.23.26M231.22,57.87l-.47-.52-.34-.6-.21-.66-.06-.69.09-.68.24-.65.37-.58.49-.49m63.45-35.82,4.57-4.57m-6.57,4.77.24.13.26.09.27,0h.27l.26-.06.26-.09.23-.14.21-.17m-18.54.2,1.91-1.06,2.05-.77,2.13-.47,2.18-.16,2.18.16,2.14.47,2,.77,1.91,1.06m-18.53-.2.2.17.24.14.25.09.27.06h.27l.27,0,.25-.09.24-.13m-6.56-4.77,4.57,4.57m-4.39-7-.25.23-.2.28-.13.31-.06.34v.34l.08.33.15.3.22.27m29.49-2.4-2.39-1.56-2.55-1.28-2.68-1-2.78-.65-2.83-.33h-2.86l-2.83.33-2.77.65-2.68,1-2.56,1.28-2.38,1.56m29.49,2.4.21-.27.15-.3.09-.33v-.34l-.06-.34-.14-.31-.19-.28-.25-.23M274.25,42.88l-4.57,4.57m6.56-4.77-.24-.13-.25-.09-.27,0h-.27l-.27,0-.25.09-.24.14-.2.17m18.53-.2-1.91,1.06-2,.77-2.14.47-2.18.16L282.33,45l-2.13-.47-2.05-.77-1.91-1.06m18.54.2-.21-.17-.23-.14-.26-.09-.26,0h-.27l-.27,0-.26.09-.24.13m6.57,4.77-4.57-4.57m4.39,7,.25-.24.19-.28.14-.31.06-.34v-.34l-.09-.33-.15-.3-.21-.27m-29.49,2.41,2.38,1.56,2.56,1.27,2.68,1,2.77.65,2.83.33h2.86l2.83-.33,2.78-.65,2.68-1,2.55-1.27,2.39-1.56m-29.49-2.41-.22.27-.15.3-.08.33v.34l.06.34.13.31.2.28.25.24M231.22,2.2h53.29M231.33,7.06l-.49-.48L230.47,6l-.24-.65-.09-.68L230.2,4l.21-.66.34-.6.47-.51m.11,50.8,2.32-2.07,2.08-2.29,1.83-2.5,1.56-2.68,1.26-2.82,1-3,.64-3,.33-3.08v-3.1L242,25.4l-.64-3-1-2.94-1.26-2.83-1.56-2.68-1.83-2.5-2.08-2.29-2.32-2.07m53.18,50.81H231.22M284.51,2.2l3,.16,3,.49,2.91.8,2.8,1.12,2.66,1.41,2.5,1.69,2.29,2L305.73,12l1.82,2.4L309.1,17l1.27,2.74,1,2.85.65,3,.32,3v3l-.32,3-.65,2.95-1,2.85-1.27,2.74-1.55,2.58-1.82,2.4-2.08,2.19-2.29,1.95-2.5,1.69-2.66,1.41-2.8,1.12-2.91.8-3,.49-3,.17m0-16.71,1.88-.16,1.83-.47,1.72-.78,1.57-1.06,1.36-1.3L294,35.87l.85-1.69.55-1.8.24-1.88-.08-1.88-.39-1.85L294.45,25l-1-1.61L292.21,22l-1.46-1.18-1.65-.93-1.78-.62-1.86-.32h-1.89l-1.86.32-1.78.62-1.65.93L276.81,22l-1.25,1.42-1,1.61-.7,1.75-.4,1.85-.08,1.88.24,1.88.55,1.8.85,1.69,1.12,1.52,1.37,1.3,1.56,1.06,1.72.78,1.83.47,1.88.16m12.85-.86,4.57,4.56m-4.77-6.56-.13.24-.09.26,0,.26v.28l0,.26.09.26.14.23.17.21m-.2-18.54,1.06,1.91.77,2,.47,2.13.16,2.18-.16,2.18L299,34.35l-.77,2-1.06,1.91m.2-18.54-.17.21-.14.24-.09.25,0,.27V21l0,.26.09.26.13.24m4.77-6.56-4.57,4.56m7-4.38-.23-.26-.28-.19-.32-.13-.33-.07-.35,0-.33.08-.3.15-.27.22m2.41,29.49,1.56-2.39,1.27-2.55,1-2.69.65-2.77.33-2.83V28.6l-.33-2.83L308.14,23l-1-2.69-1.27-2.55-1.56-2.38m-2.41,29.48.27.22.3.15.33.09h.35l.33-.07.32-.13.28-.19.23-.25M271.66,19.76l-4.57-4.56m4.78,6.56.12-.24.09-.26,0-.26v-.27l-.05-.27-.1-.25-.14-.24-.17-.21m.21,18.54-1.07-1.91-.77-2-.47-2.14L269.4,30l.16-2.18.47-2.13.77-2,1.07-1.91m-.21,18.54.17-.21.14-.23.1-.26.05-.26v-.28l0-.26-.09-.26-.12-.24m-4.78,6.56,4.57-4.56m-7,4.39.23.25.28.19.31.13.34.07h.34l.33-.09.31-.15.26-.22m-2.4-29.48-1.56,2.38-1.28,2.55-1,2.69-.65,2.77-.33,2.83v2.86l.33,2.83.65,2.77,1,2.69,1.28,2.55,1.56,2.39m2.4-29.49-.26-.22-.31-.15-.33-.08-.34,0-.34.07-.31.13-.28.19-.23.26m101.52,139,5.29,3.71m-5.84-5.64-.09.26,0,.27v.27l0,.27.1.25.14.23.17.21.21.17m-3.42-18.22,1.37,1.7,1.12,1.88.84,2,.53,2.12.22,2.18-.09,2.18-.41,2.15-.71,2.06m-3-18.29-.13.24-.1.25-.05.27v.27l0,.27.09.25.13.24.17.21m3.56-7.29-3.71,5.29m6.11-5.53-.27-.21-.31-.14-.34-.08h-.34l-.33.07-.31.14-.28.2-.22.26m7.49,28.63,1.12-2.63.81-2.73.49-2.81.16-2.85-.16-2.84-.5-2.81-.82-2.74-1.12-2.62L372.4,133l-1.7-2.29-1.95-2.08m2.75,29.46.3.16.33.1.34,0,.34,0,.32-.12.28-.19.24-.24.19-.28m-36.51-18.87L332,134.94m5.84,5.64.08-.26,0-.27v-.27l-.05-.27-.1-.25-.14-.23-.17-.21-.21-.17m3.42,18.21-1.38-1.69-1.11-1.88-.84-2-.53-2.12-.22-2.18.09-2.18.41-2.15.71-2.06m3,18.29.14-.24.09-.25.06-.27v-.27l0-.27-.09-.25-.13-.24-.17-.22m-3.56,7.3,3.7-5.29m-6.1,5.53.27.21.31.14.33.08h.35l.33-.07.31-.14.27-.2.23-.26m-7.49-28.62-1.12,2.62-.81,2.73-.49,2.81-.16,2.85.16,2.84.5,2.81.81,2.74,1.13,2.61,1.42,2.48,1.7,2.29,2,2.08M332,134.94l-.3-.16-.33-.1-.34,0-.34,0-.32.12-.28.19-.25.24-.18.29m40.23-46.33,9.25,52.48m-14-51.52.4-.57.51-.47.6-.35.66-.21.69-.06.68.09.65.24.59.37m-50,8.93,2.43,1.92,2.62,1.66,2.78,1.36,2.91,1.07,3,.76,3.07.44,3.1.11,3.09-.22,3.05-.53,3-.86,2.87-1.16,2.73-1.46,2.57-1.74,2.36-2,2.15-2.24,1.89-2.45,1.63-2.63m-50,8.7.43-.54.53-.45.61-.32.67-.17.69,0,.68.12.64.26.57.4m4.44,53.22L315.1,98.87m64.08,42.82.36,3,0,3-.29,3-.61,3-.93,2.87-1.23,2.75-1.53,2.6-1.79,2.42-2.05,2.21-2.27,2-2.47,1.72-2.65,1.44L361,172.79l-2.89.85-3,.52-3,.2-3-.13-3-.45L343.2,173l-2.81-1.08-2.68-1.38-2.52-1.66L332.87,167l-2.1-2.16-1.85-2.38-1.58-2.56-1.3-2.72-1-2.85-.68-2.93m16.45-2.9.48,1.82.78,1.72,1.07,1.56,1.31,1.36L346,156l1.69.85,1.8.54,1.88.23,1.89-.09,1.84-.4,1.75-.72,1.6-1,1.41-1.26,1.18-1.47.92-1.66.62-1.78.31-1.86v-1.89l-.33-1.86-.64-1.78-.93-1.64-1.19-1.47-1.42-1.24-1.61-1-1.76-.7-1.85-.38-1.88-.08-1.88.25-1.8.56-1.68.86-1.52,1.13-1.3,1.37L342,141.14l-.77,1.72-.46,1.84-.15,1.88.17,1.88M343.89,161l-3.7,5.29m5.63-5.84-.26-.09-.26,0H345l-.26,0-.26.09-.23.14-.2.18-.18.21m18.22-3.43-1.7,1.38L358.53,160l-2,.83-2.12.54-2.17.22-2.19-.09-2.14-.41-2.07-.71m18.29-3-.23-.14-.26-.09-.26,0h-.28l-.26,0-.26.09-.24.13-.21.16m7.29,3.57-5.29-3.71m5.53,6.1.21-.27.15-.31.07-.33v-.34l-.07-.33-.14-.32-.2-.27-.26-.22m-28.62,7.48,2.62,1.13,2.74.81,2.8.49,2.85.16,2.85-.17,2.81-.49,2.73-.82,2.62-1.13,2.47-1.42,2.29-1.7,2.08-1.95m-29.45,2.76-.17.3-.1.32,0,.34.05.34.12.32.18.29.24.24.29.18m18.87-36.51,3.7-5.29m-5.63,5.85.26.08.26,0h.27l.27-.05.25-.09.24-.14.2-.18.18-.21m-18.22,3.43,1.7-1.38L345,133l2-.83,2.12-.54,2.17-.22,2.18.09,2.15.41,2.07.72m-18.29,3,.23.14.26.09.26.05h.27l.27,0,.26-.09.24-.12.21-.17m-7.29-3.57,5.29,3.71m-5.54-6.1-.2.27-.15.31-.07.33v.34l.08.33.14.32.2.27.26.22m28.62-7.48-2.62-1.13-2.74-.81-2.81-.49-2.84-.16-2.85.17-2.81.49-2.73.82-2.62,1.13-2.47,1.42-2.3,1.7-2.08,2m29.46-2.76.17-.3.1-.32,0-.34-.05-.34-.12-.32-.18-.29-.24-.24-.29-.18M243.47,248.58l-2.73,5.86m4.54-6.74-.27,0h-.27l-.27.05-.25.1L244,248l-.21.18-.17.2-.14.24m17.35-6.53-1.43,1.65-1.66,1.42-1.84,1.18-2,.89-2.1.6-2.17.28-2.18,0-2.16-.35m17.49-6.14-.26-.1-.27-.05H262l-.26.05-.26.08-.24.13-.21.17-.18.21m7.8,2.24-5.85-2.73m6.51,5.05.15-.31.09-.33,0-.34-.06-.33-.13-.32-.19-.28-.25-.24-.29-.17m-26.89,12.34,2.78.65,2.83.33h2.85l2.84-.33,2.77-.66,2.68-1,2.55-1.28,2.39-1.56L265.6,251l2-2.07,1.71-2.28m-28.54,7.83-.11.32,0,.34,0,.34.1.32.18.29.23.25.28.2.31.13M254,217.4l2.74-5.85m-4.54,6.73.27,0h.27l.26-.05.26-.1.23-.14.21-.17.17-.21.13-.24m-17.34,6.54,1.43-1.66,1.66-1.42,1.84-1.17,2-.9,2.1-.6,2.17-.28,2.18,0,2.16.34m-17.49,6.14.26.1.26,0h.27l.27,0,.26-.08.24-.13.21-.17.18-.2m-7.8-2.25,5.85,2.73m-6.51-5-.15.31-.09.33,0,.34.06.33.12.32.2.28.24.24.3.17m26.88-12.34-2.77-.65-2.83-.32h-2.86l-2.83.34-2.77.66-2.68,1-2.55,1.28L234,213.19,231.84,215l-2,2.07-1.71,2.28m28.54-7.82.11-.33,0-.34,0-.33-.11-.33-.17-.29-.23-.25-.28-.2-.32-.13m52.61,31.57-50.08,18.23m48.31-22.77.63.29.55.43.44.53.32.61.18.67,0,.69-.12.68-.27.64m-17.48-47.7L289.37,196l-1.17,2.87-.87,3-.54,3.05-.23,3.09.1,3.1.43,3.07.75,3L288.9,220l1.36,2.78,1.64,2.63,1.92,2.43,2.15,2.23,2.39,2,2.57,1.72,2.74,1.45,2.88,1.14m-17.27-47.77.62.32.53.44.42.55.29.63.15.68v.69l-.15.67-.29.63M239.2,206.83l50.08-18.22m-31,70.54-2.88.87-3,.56-3,.24-3-.09-3-.42-2.93-.74-2.82-1-2.7-1.35-2.53-1.63-2.35-1.9L228,251.52l-1.88-2.36-1.62-2.54-1.33-2.71-1-2.83-.72-2.93-.4-3-.07-3,.26-3,.57-3,.9-2.88,1.2-2.76,1.49-2.62,1.76-2.44,2-2.24,2.25-2,2.45-1.75,2.63-1.47,2.77-1.19m5.72,15.7-1.72.79-1.55,1.07-1.35,1.32-1.11,1.53-.84,1.7-.53,1.81-.22,1.87.09,1.89.42,1.84.72,1.75,1,1.59,1.27,1.41,1.48,1.17,1.65.91,1.79.61,1.87.3h1.88l1.86-.34,1.78-.65,1.64-.93,1.45-1.2,1.24-1.43,1-1.62.69-1.76.38-1.85.06-1.89-.26-1.87-.56-1.8-.87-1.68-1.14-1.5-1.37-1.3-1.58-1-1.73-.76L250.5,222l-1.88-.14-1.88.17-1.82.5m-11.78,5.21L227.28,225m6.73,4.53,0-.26V229l0-.26-.1-.25-.14-.24-.17-.2-.21-.17-.23-.14m6.53,17.35L238,243.65,236.59,242l-1.17-1.85-.9-2-.59-2.1-.29-2.17,0-2.19.34-2.16M240.16,247l.09-.25.05-.27v-.27l0-.27-.09-.25-.13-.24-.17-.21-.2-.18m-2.24,7.8,2.73-5.86m-5,6.51.3.16.33.09h.34l.34-.05.31-.13.29-.19.23-.25.18-.29M225.08,226l-.65,2.78-.32,2.83v2.85l.34,2.83.66,2.78,1,2.68,1.28,2.55,1.57,2.38,1.82,2.19,2.08,2,2.28,1.71M227.28,225l-.32-.11-.34,0-.34,0L226,225l-.29.17-.25.24-.2.28-.13.31m39.23,12.24,5.86,2.73m-6.73-4.53,0,.26V237l.06.26.09.26.14.23.18.2.21.18.23.13m-6.53-17.35,1.65,1.44,1.43,1.65,1.17,1.85.89,2,.6,2.1.29,2.17,0,2.19-.34,2.16M257.29,219l-.09.25-.05.27v.27l0,.27.09.25.13.24.17.21.2.18m2.24-7.8L257.29,219m5-6.51-.3-.16-.33-.09h-.34l-.34,0-.32.13-.28.19-.23.25-.18.29M272.37,240l.64-2.78.33-2.83v-2.85l-.33-2.83-.66-2.78-1-2.68-1.27-2.55-1.57-2.38-1.83-2.19-2.07-2-2.28-1.71M270.17,241l.32.11.34,0,.34,0,.32-.11.3-.17.25-.23.19-.28.14-.32m-41.93,20.85H177.15m0,0-3-.17-3-.49-2.91-.8-2.8-1.12-2.66-1.41-2.5-1.69-2.29-2L155.93,251l-1.82-2.4L152.56,246l-1.27-2.74-1-2.85-.65-2.95-.32-3v-3l.32-3,.65-3,1-2.85,1.27-2.74,1.55-2.58,1.82-2.4,2.08-2.19,2.29-1.95,2.5-1.69,2.66-1.41,2.8-1.12,2.91-.8,3-.49,3-.16m-10.27,40.68-4.57,4.57m6.57-4.77-.24-.13-.26-.09-.26,0h-.28l-.26.05-.25.09-.24.14-.21.17m18.54-.2-1.91,1.06-2,.77-2.13.47-2.18.16-2.18-.16-2.14-.47-2-.77-1.91-1.06m18.53.2-.2-.17-.24-.14-.25-.09-.27-.05h-.27l-.27,0-.25.09-.24.13m6.56,4.77-4.57-4.57m4.39,7,.25-.23.2-.28.13-.31.06-.34v-.34l-.08-.33-.15-.3-.22-.27m-29.49,2.4,2.39,1.57,2.55,1.27,2.68,1,2.78.65,2.83.33h2.86l2.83-.33,2.77-.65,2.68-1,2.56-1.27,2.38-1.57m-29.49-2.4-.21.27-.15.3-.09.33v.34l.06.34.14.31.19.28.25.23m24.92-32.67,4.57-4.57m-6.56,4.77.24.13.25.09.27,0h.27l.27,0,.25-.1.24-.14.2-.17m-18.53.2,1.91-1.06,2-.77L175,218l2.18-.16,2.18.16,2.13.47,2,.77,1.91,1.06m-18.54-.2.21.17.24.14.25.1.26,0h.28l.26,0,.26-.09.24-.13m-6.57-4.77,4.57,4.57m-4.39-7-.25.23-.19.28-.14.31-.06.34v.34l.09.33.15.3.21.27m29.49-2.4-2.38-1.56-2.56-1.28-2.68-1-2.77-.65-2.83-.33h-2.86l-2.83.33-2.78.65-2.68,1-2.55,1.28-2.39,1.56m29.49,2.4.22-.27.15-.3.08-.33v-.34l-.06-.34-.13-.31-.2-.28-.25-.23M230.33,256l.49.48.37.59.24.65.09.68-.06.69-.21.66-.34.6-.47.52M230.33,210,228,212.09l-2.09,2.29-1.83,2.5-1.56,2.68-1.26,2.83-1,2.94-.65,3-.32,3.08v3.1l.32,3.08.65,3,1,2.95,1.26,2.82,1.56,2.68,1.83,2.5,2.09,2.29,2.31,2.07m.11-50.8.47.51.34.6.21.66.06.69-.09.68-.24.65-.37.59-.49.48m-53.18-4.86h53.29m-53.29,16.7-1.88.16-1.83.47-1.72.78-1.57,1.06-1.36,1.31-1.12,1.51-.85,1.69-.55,1.8-.25,1.88.09,1.89.39,1.84.71,1.75,1,1.61,1.24,1.42,1.47,1.19,1.65.92,1.78.63,1.86.31h1.89l1.86-.31,1.79-.63,1.64-.92,1.47-1.19,1.25-1.42,1-1.61.71-1.75.39-1.84.08-1.89-.24-1.88-.55-1.8-.85-1.69-1.12-1.51-1.37-1.31-1.56-1.06-1.72-.78L179,222l-1.88-.16m-12.85.86-4.57-4.56m4.77,6.56.13-.24.09-.26,0-.26v-.27l-.05-.27-.09-.25-.14-.24-.17-.21m.2,18.54-1.06-1.91-.77-2-.47-2.13L162,233l.16-2.18.47-2.13.77-2.05,1.06-1.91m-.2,18.54.17-.21.14-.24.09-.25.05-.26V242l0-.26-.09-.26-.13-.24m-4.77,6.57,4.57-4.57m-7,4.39.24.25.27.19.32.13.34.07.34,0,.33-.08.3-.15.27-.21m-2.41-29.5-1.55,2.39-1.28,2.55-1,2.69-.65,2.77-.33,2.83v2.86l.33,2.83.65,2.77,1,2.69,1.28,2.55,1.55,2.39m2.41-29.49-.27-.22-.3-.15-.33-.08-.34,0-.34.07-.32.13-.27.19-.24.25M190,243.26l4.57,4.57m-4.77-6.57-.13.24-.09.26,0,.26v.28l.05.26.1.25.14.24.17.21m-.2-18.54,1.06,1.91.77,2.05.47,2.13.16,2.18-.16,2.18-.47,2.13-.77,2-1.06,1.91m.2-18.54-.17.21-.14.24-.1.25-.05.27V224l0,.26.09.26.13.24m4.77-6.56L190,222.72m7-4.39-.23-.25-.28-.19-.31-.13-.34-.07-.34,0-.33.08-.3.15-.27.22m2.4,29.49,1.56-2.39,1.28-2.55,1-2.69.65-2.77.33-2.83v-2.86l-.33-2.83-.65-2.77-1-2.69-1.28-2.55L197,218.33m-2.4,29.5.27.21.3.15.33.08.34,0,.34-.07.31-.13.28-.19.23-.25m125-23.82,1.67,6.24M322.8,222l-.23.14-.2.18-.17.21-.14.24L322,223l0,.27v.27l.05.27m9.09-16.16,0,2.19-.35,2.15L330,214.1l-.95,2-1.23,1.81-1.47,1.61-1.7,1.38L322.8,222m9.45-15.95-.26.09-.24.13-.2.17-.18.21-.14.23-.1.26-.05.26v.27m7.42-3.3-6.24,1.68m8.23-.32-.08-.33-.14-.31-.21-.27-.26-.22-.3-.16-.33-.1-.34,0-.33.05m-12.67,26.74,2.55-1.28,2.38-1.58,2.18-1.83,1.95-2.08,1.7-2.29,1.43-2.47,1.13-2.62.82-2.73.5-2.81.18-2.84-.16-2.85m-16.83,24.34.12.32.19.28.25.24.29.18.32.11.34.05.34,0,.32-.11M310,193.19,308.31,187m.86,8.07.23-.14.2-.18.17-.21.13-.24L310,194l0-.27v-.27l0-.27m-9.1,16.16,0-2.19.35-2.15.66-2.09,1-2,1.22-1.8,1.48-1.62,1.69-1.38,1.88-1.13M299.72,211l.25-.09.24-.13.21-.17.18-.21.14-.23.09-.25.06-.27v-.27m-7.41,3.3,6.24-1.68m-8.23.32.07.33.14.31.21.27.26.22.3.17.33.09.34,0,.34,0m12.66-26.74-2.54,1.28-2.38,1.58L299,190.6l-2,2.08-1.7,2.29L294,197.44l-1.13,2.62-.82,2.73-.5,2.81-.17,2.84.16,2.85M308.31,187l-.12-.31-.19-.29-.24-.24-.29-.18-.33-.11-.33,0-.34,0-.33.11m60.6-9.64-26.65,46.16m22.37-48.49.67-.18.69,0,.68.12.64.26.57.4.47.51.34.59.22.66M322.68,151l.63,3,.95,3,1.25,2.83,1.54,2.69,1.81,2.51,2.07,2.31,2.3,2.08,2.51,1.82,2.68,1.55,2.83,1.26,2.95,1,3,.64,3.08.31h3.1l3.08-.33,3-.66,2.94-1m-43.94-25.5.68-.15h.69l.68.15.62.3.55.42.45.53.31.61.18.67m-30.8,43.62,26.64-46.15m21.57,74L338.44,225l-1.91,2.33-2.15,2.12L332,231.26l-2.56,1.6-2.71,1.32-2.84,1-2.93.7-3,.38-3,.06-3-.28-3-.59-2.87-.91-2.76-1.22-2.61-1.5-2.43-1.78-2.23-2-2-2.26-1.74-2.46-1.46-2.64-1.16-2.78-.86-2.89-.54-3-.22-3,.11-3,.43-3,.76-2.92,1.06-2.82,1.37-2.69m14.46,8.35-.8,1.71-.5,1.82-.19,1.88.13,1.89.45,1.83.76,1.73,1,1.58,1.29,1.38,1.5,1.15,1.67.87,1.8.58,1.87.27,1.89-.06,1.85-.37,1.76-.68,1.63-1,1.43-1.22,1.21-1.45.94-1.64.66-1.77.34-1.86,0-1.89-.29-1.86-.61-1.79-.9-1.66-1.16-1.49-1.4-1.27-1.6-1-1.74-.73-1.84-.42-1.88-.11-1.88.21-1.81.53-1.7.83-1.54,1.1-1.32,1.34-1.08,1.55m-5.67,11.57-6.24,1.67m8.07-.85-.14-.23-.18-.21-.22-.17-.23-.13-.26-.09-.27,0h-.27l-.26,0m16.15,9.09-2.18,0-2.16-.35-2.09-.66-2-1-1.81-1.23L305,218.89l-1.38-1.69-1.12-1.87m15.95,9.44-.1-.25-.13-.24-.17-.21-.21-.17-.23-.14-.25-.1-.27,0h-.27m3.3,7.42-1.67-6.25m.31,8.24.33-.08.31-.14.28-.21.22-.26.16-.3.09-.33,0-.34-.05-.33m-26.74-12.67,1.29,2.55,1.57,2.37,1.84,2.19,2.07,1.95,2.29,1.7,2.47,1.43,2.62,1.13,2.73.82,2.81.5,2.84.17,2.85-.15m-24.33-16.83-.32.12-.29.19-.24.25-.18.29-.11.32,0,.34,0,.34.1.32m37.92-15.84,6.24-1.67m-8.07.85.14.23.18.21.21.17.24.13.25.09.27,0H331l.27-.05m-16.16-9.09,2.19,0,2.16.35,2.08.66,2,.95,1.81,1.23,1.61,1.48,1.38,1.69,1.13,1.87m-16-9.44.09.25.13.24.18.21.2.17.23.14.26.1.26,0h.27M311.85,186l1.67,6.24M313.2,184l-.33.08-.31.14-.27.21-.22.26-.16.3-.1.33,0,.34.06.34m26.74,12.66-1.29-2.54-1.57-2.38-1.84-2.19-2.08-1.95-2.29-1.7-2.47-1.43-2.61-1.13-2.74-.82-2.8-.5-2.85-.17-2.85.15m24.34,16.83.32-.12.28-.19.24-.25.18-.28.12-.33,0-.34,0-.33-.1-.33M212.86,57.87h-53.3m0,0-.46-.52-.35-.6-.2-.66-.06-.69.09-.68.24-.65.37-.58.49-.49M212.86,2.2l3,.16,3,.49,2.91.8,2.8,1.12,2.66,1.41,2.49,1.69,2.3,2L234.07,12l1.83,2.4L237.45,17l1.27,2.74,1,2.85.65,3,.32,3v3l-.32,3-.65,2.95-1,2.85-1.27,2.74-1.55,2.58-1.83,2.4L232,50.24l-2.3,1.95-2.49,1.69-2.66,1.41-2.8,1.12-2.91.8-3,.49-3,.17m10.26-40.69,4.57-4.57m-6.56,4.77.24.13.25.09.27,0h.27l.27-.06.25-.09.24-.14.2-.17m-18.53.2,1.91-1.06,2-.77,2.14-.47,2.18-.16,2.18.16,2.13.47,2.05.77,1.91,1.06m-18.54-.2.21.17.23.14.26.09.26.06h.27l.27,0,.26-.09.24-.13M198,12.61l4.57,4.57m-4.39-7-.25.23-.19.28-.14.31-.06.34v.34l.09.33.15.3.21.27m29.49-2.4-2.38-1.56-2.56-1.28-2.68-1-2.77-.65-2.84-.33h-2.85l-2.83.33-2.78.65-2.68,1-2.55,1.28-2.39,1.56m29.49,2.4.22-.27.15-.3.08-.33v-.34l-.06-.34-.13-.31-.2-.28-.25-.23M202.59,42.88,198,47.45m6.57-4.77-.24-.13-.26-.09-.27,0h-.27l-.26,0-.26.09-.23.14-.21.17m18.54-.2-1.91,1.06-2.05.77L215,45l-2.18.16L210.68,45l-2.14-.47-2-.77-1.91-1.06m18.53.2-.2-.17-.24-.14-.25-.09-.27,0h-.27l-.27,0-.25.09-.24.13m6.56,4.77-4.57-4.57m4.39,7,.25-.24.2-.28.13-.31.06-.34v-.34l-.08-.33-.15-.3-.22-.27M198.2,49.86l2.39,1.56,2.55,1.27,2.68,1,2.78.65,2.83.33h2.85l2.84-.33,2.77-.65,2.68-1,2.56-1.27,2.38-1.56M198,47.45l-.21.27-.15.3-.09.33v.34l.06.34.14.31.19.28.25.24M159.56,2.2h53.3M159.68,7.06l-.49-.48L158.82,6l-.24-.65-.09-.68.06-.69.2-.66.35-.6.46-.51m.12,50.8L162,50.93l2.09-2.29,1.83-2.5,1.55-2.68,1.27-2.82,1-3,.65-3,.33-3.08v-3.1l-.33-3.08-.65-3-1-2.94-1.27-2.83-1.55-2.68-1.83-2.5L162,9.13l-2.31-2.07m53.18,34.1,1.88-.16,1.83-.47,1.72-.78,1.56-1.06,1.37-1.3,1.12-1.52.85-1.69.55-1.8L224,30.5l-.08-1.88-.4-1.85L222.8,25l-1-1.61L220.56,22l-1.47-1.18-1.65-.93-1.78-.62-1.86-.32h-1.89l-1.86.32-1.78.62-1.65.93L205.15,22l-1.24,1.42-1,1.61-.71,1.75-.4,1.85-.08,1.88.24,1.88.56,1.8.85,1.69,1.12,1.52,1.36,1.3,1.57,1.06,1.72.78L211,41l1.88.16m12.85-.86,4.57,4.56M225.5,38.3l-.13.24-.08.26,0,.26v.28l.05.26.1.26.14.23.17.21m-.21-18.54,1.06,1.91.78,2,.47,2.13L228,30l-.16,2.18-.47,2.14-.78,2L225.5,38.3m.21-18.54-.17.21-.14.24-.1.25-.05.27V21l0,.26.08.26.13.24m4.78-6.56-4.57,4.56m7-4.38-.23-.26-.28-.19-.31-.13-.34-.07-.34,0-.33.08-.3.15-.27.22m2.4,29.49,1.56-2.39,1.28-2.55,1-2.69.65-2.77.33-2.83V28.6l-.33-2.83L236.49,23l-1-2.69-1.28-2.55-1.56-2.38m-2.4,29.48.27.22.3.15.33.09h.34l.34-.07.31-.13.28-.19.23-.25M200,19.76l-4.56-4.56m4.77,6.56.13-.24.09-.26,0-.26v-.27l-.05-.27-.09-.25-.14-.24-.18-.21m.21,18.54-1.06-1.91-.77-2-.47-2.14L197.75,30l.16-2.18.47-2.13.77-2,1.06-1.91M200,40.3l.18-.21.14-.23.09-.26.05-.26v-.28l0-.26-.09-.26-.13-.24m-4.77,6.56L200,40.3m-7,4.39.23.25.28.19.32.13.33.07h.34l.34-.09.3-.15.27-.22M193,15.38l-1.56,2.38-1.27,2.55-1,2.69-.65,2.77-.33,2.83v2.86l.33,2.83.65,2.77,1,2.69,1.27,2.55L193,44.69m2.41-29.49-.27-.22-.3-.15-.34-.08-.34,0-.33.07-.32.13-.28.19-.23.26m-51.83,21-1.45-.17-1.38-.5-1.23-.81-1-1.07-.74-1.27-.42-1.4-.09-1.47.26-1.44.58-1.35.88-1.18,1.12-.94,1.31-.66,1.43-.34h1.47l1.43.34,1.31.66,1.12.94.88,1.18.58,1.35.25,1.44-.08,1.47-.42,1.4-.74,1.27-1,1.07-1.23.81-1.38.5-1.46.17m105.36,190.7,1.43-.34h1.47l1.43.34,1.31.66,1.12.94.88,1.18.58,1.35.25,1.44-.08,1.47-.42,1.4-.74,1.27-1,1.07-1.23.81-1.38.5-1.46.17-1.45-.17-1.38-.5-1.23-.81-1-1.07-.73-1.27-.42-1.4-.09-1.47.26-1.44.58-1.35.88-1.18,1.12-.94,1.31-.66m-69.41-.38,1.46.17,1.38.5,1.22.81,1,1.07.73,1.27.42,1.4.09,1.47-.26,1.44-.58,1.35-.87,1.18-1.13.94-1.31.66-1.43.34h-1.46l-1.43-.34-1.31-.66-1.13-.94-.87-1.18-.59-1.35-.25-1.44.08-1.47.43-1.4.73-1.27,1-1.07,1.22-.81,1.38-.5,1.46-.17M284.51,36.35l-1.46-.17-1.37-.5-1.23-.81-1-1.07-.73-1.27-.42-1.4-.09-1.47.26-1.44.58-1.35.87-1.18,1.13-.94,1.31-.66,1.43-.34h1.46l1.43.34,1.31.66,1.13.94.88,1.18.58,1.35.25,1.44-.08,1.47-.43,1.4-.73,1.27-1,1.07-1.22.81-1.38.5-1.46.17m61,111.27-.09-1.46.25-1.45.59-1.35.87-1.17,1.13-.94,1.31-.66,1.43-.34h1.46l1.43.34,1.31.66,1.13.94.87,1.17.58,1.35.26,1.45-.09,1.46-.42,1.41-.73,1.27-1,1.07-1.22.8-1.38.5-1.46.18-1.46-.18-1.38-.5-1.22-.8-1-1.07L346,149l-.42-1.41M212.86,36.35l-1.46-.17-1.38-.5-1.22-.81-1-1.07-.74-1.27-.42-1.4-.08-1.47.25-1.44.59-1.35.87-1.18,1.13-.94,1.31-.66,1.42-.34h1.47l1.43.34,1.31.66,1.13.94.87,1.18.58,1.35.26,1.44-.09,1.47-.42,1.4-.73,1.27-1,1.07-1.23.81-1.38.5-1.45.17M335.28,80.88l-1-1.07-.73-1.27-.42-1.4L333,75.67l.26-1.44.58-1.35.87-1.18,1.13-.94,1.31-.66,1.43-.34h1.46l1.43.34,1.31.66,1.13.94.87,1.18.58,1.35.26,1.44-.09,1.47-.42,1.4-.73,1.27-1,1.07-1.22.81-1.38.5-1.46.17-1.46-.17-1.38-.5-1.22-.81M310.51,205.35l.87-1.18,1.13-.94,1.31-.66,1.43-.34h1.47l1.42.34,1.31.66,1.13.94.88,1.18.58,1.35.25,1.44-.08,1.47-.42,1.4-.74,1.27-1,1.07-1.23.81-1.38.5-1.46.17-1.46-.17-1.37-.5-1.23-.81-1-1.07-.73-1.27-.42-1.4-.09-1.47.26-1.44.58-1.35M109.41,255.1l.72-20.59m-.72,20.59.09,1.26.33,1.22.57,1.13.78,1,1,.81,1.11.61,1.2.37,1.26.13m46.85,0H115.71m46.85,0,.52-.09.46-.25.35-.39.2-.48,0-.53-.14-.5-.31-.44-.42-.3m-13.67-36.73-1,2.9-.72,3-.39,3.05-.07,3.08.27,3.07.6,3,.92,2.94,1.23,2.82,1.52,2.68,1.81,2.5,2.06,2.29,2.29,2,2.51,1.8,2.68,1.52m-13.67-36.73.11-.42v-.44l-.13-.42-.23-.36L149,220l-.39-.19-.44-.07-.43.06m-32.89,8.81,32.89-8.81m-37.6,14.73.12-1,.27-1,.43-.92.56-.83.69-.74.8-.62.89-.49,1-.34M68,23.71l-1.46.17-1.38.5-1.23.81-1,1.07-.74,1.27-.42,1.4-.08,1.47.25,1.44.58,1.35.88,1.18,1.12.94,1.31.66,1.43.34h1.47L70.14,36l1.31-.66,1.12-.94.88-1.18L74,31.84l.25-1.44-.08-1.47-.42-1.4L73,26.26l-1-1.07-1.23-.81-1.38-.5L68,23.71M43.06,44.14l1.66,2.59,1.93,2.4,2.18,2.18,2.39,1.94,2.59,1.66,2.76,1.38,2.88,1.07,3,.76,3,.43,3.08.1,3.07-.22,3-.56,3-.88,2.84-1.19,2.69-1.49,2.52-1.77,2.32-2,2.08-2.26,1.83-2.48,1.55-2.66,1.26-2.81.94-2.93.63-3,.3-3.07,0-3.07-.37-3.06-.68-3-1-2.91-1.32-2.79-1.6-2.63-1.88-2.44L87.56,9.15l-2.36-2L82.65,5.45,79.92,4,77.06,2.88l-3-.82-3-.49L68,1.4m0,0H7.7m0,0-1.26.13L5.23,1.9l-1.1.61-1,.81-.78,1L1.81,5.44,1.48,6.66,1.4,7.92m0,0,.72,20.59m0,0,.12,1,.27,1,.42.92.57.84.69.73.8.63.89.48,1,.34m0,0,36.23,9.71M68,19.15l-1.89.17-1.84.49-1.71.8L61,21.7,59.64,23l-1.09,1.55-.8,1.72-.49,1.83L57.1,30l.16,1.89.49,1.83.8,1.72L59.64,37,61,38.37l1.56,1.08,1.71.8,1.84.5,1.89.16,1.88-.16,1.84-.5,1.72-.8L75,38.37,76.31,37l1.09-1.55.8-1.72.49-1.83L78.86,30l-.17-1.89-.49-1.83-.8-1.72L76.31,23,75,21.7l-1.55-1.09-1.72-.8-1.84-.49L68,19.15"/></g></g></svg>