<svg xmlns="http://www.w3.org/2000/svg" viewBox="0 0 271.3 333.7"><defs><style>.cls-1{fill:none;stroke:#000;stroke-linecap:round;stroke-linejoin:round;stroke-width:3px;}</style></defs><g id="Layer_2" data-name="Layer 2"><g id="Layer_1-2" data-name="Layer 1"><path class="cls-1" d="M145.2,235.9l1.4-2.4,1.3-2.8,1-2.8.7-3,.5-3,.1-1.1m-62.9-1.9v1.5l.3,3,.6,3,.9,2.9,1.1,2.8,1.4,2.7.7,1.1m-.2-33.8-1,1.7-1.3,2.7-1.1,2.9-.7,3-.5,3-.2,3,.1,3.1.4,3,.7,3,1,2.9,1.3,2.8,1.5,2.7m52.9,0,1.5-2.7,1.3-2.8,1-2.9.7-3,.4-3,.1-.7M38.4,326.2h0m0,0v.4l.2.5.2.4.2.3.4.3.4.2.4.1.4.1m156.3,0,.4-.1.5-.1.3-.2.4-.3.2-.3.3-.4.1-.5v-.4m0,0h0M40.6,328.5h0m0,0,34.3.9m87.7,0,34.3-.9m0,0h0m-122,.9v-.1m1.7,2.9-.2-.3-.2-.4-.2-.3-.2-.4-.3-.3-.2-.4-.2-.4-.2-.3m87.7,0-.2.3-.2.4-.2.4-.2.3-.3.4-.2.3-.2.4-.2.3m1.7-2.8v-.1m-86,2.9h0m10-9.2-.2,1.7-.4,1.6-.8,1.5-1,1.4L83,330.3l-1.5.9-1.5.7-1.7.3H76.6m10-9.2h0M73.3,298.3l.1-.2.1-.2.1-.3.1-.2.1-.2.1-.2.1-.2.1-.2m-.8,1.7-4.3.1m-20.8.5-7.6.2m0,0-.4.1-.4.1-.4.2-.4.3-.2.4-.2.4-.2.4v.4m0,0v24.8m0,0v.4l.2.4.2.4.2.4.4.3.4.2.4.1.4.1m0,0,34.3.8m1.7,2.9-.2-.4-.2-.3-.2-.4-.2-.3-.3-.4-.2-.3-.2-.4-.2-.4M86.6,323l-.2,1.7-.4,1.6-.8,1.5-1,1.4L83,330.3l-1.5.9-1.5.6-1.7.4H76.6m10-33.1V323m64.3,0h0m10,9.2h-1.7l-1.7-.3-1.5-.7-1.5-.9-1.2-1.1-1-1.4-.8-1.5-.4-1.6-.2-1.7m10,9.2h0m-10-9.2V299.1m10,33.1h-1.7l-1.7-.4-1.5-.6-1.5-.9-1.2-1.1-1-1.4-.8-1.5-.4-1.6-.2-1.7m11.7,6.3-.2.4-.2.4-.2.3-.2.4-.3.3-.2.4-.2.3-.2.4m1.7-2.9,34.3-.8m0,0,.4-.1.5-.1.3-.2.4-.3.2-.4.3-.4.1-.4v-.4m0,0V301.4m0,0V301l-.1-.4-.3-.4-.2-.4-.4-.3-.3-.2-.5-.1-.4-.1m0,0-7.6-.2m-20.8-.5-4.3-.1m-.8-1.7.1.2.1.2.1.2.1.2.1.2.1.3.1.2.1.2M30.7,292.8l-.6-.1-.5.1-.5.2-.5.2-.4.4-.3.4-.3.5-.1.5M210,295l-.1-.5-.3-.5-.3-.4-.4-.4-.5-.2-.5-.2-.5-.1-.6.1m-176.1,0L45.8,295m-15.1-2.2h0m176.1,0L191.7,295m15.1-2.2h0m-96.5,2.6h16.9m-16.9,0h-.5l-.5.1-.4.3-.5.3-.3.3-.3.4-.2.5-.1.5m2.8-2.5v.1m16.9,0v-.1m2.8,2.5-.1-.5-.2-.5-.3-.4-.3-.3-.4-.3-.5-.3-.5-.1h-.5M45.8,295h0m2.4,2.8v-.5l-.1-.4-.3-.5-.2-.4-.4-.4-.4-.2-.5-.2-.5-.2m145.9,0-.5.2-.5.2-.4.2-.3.4-.3.4-.2.5-.2.4v.5m2.4-2.8h0M69,298.4h0m3.3-2.2H71.2l-.5.2-.5.2-.4.4-.4.4-.2.5-.2.5m99.5,0-.2-.5-.2-.5-.4-.4-.4-.4-.5-.2-.5-.2h-1.1m3.3,2.2h0m-96.2-2.2,1.8.4M86.2,299l-12.1-2.4m-1.8-.4h0m92.9,0-1.8.4m1.8-.4h0M151.4,299l12-2.4M86.2,299h0m.4.1h-.2V299h-.2m2.2,2.8v-.5l-.1-.4-.2-.4-.2-.3-.2-.4-.4-.3-.3-.2-.4-.2m64.3,0-.4.2-.3.2-.3.3-.3.4-.2.3-.2.4-.1.4v.5m2.3-2.8h-.3v.1h-.2m.5-.1h0m-45.6,10.8,1.7-12m0,0h0m24.2,12-1.7-12m0,0h0M88.4,309.4h0m2.9,2.8h-.6l-.5-.2-.5-.3-.4-.3-.4-.5-.3-.4-.1-.6-.1-.5m17.4.4-.1.5-.2.4-.3.4-.4.4-.4.3-.4.2-.5.2H103m2.8-2.4h0m-14.5,2.4H103m0,0h0m-11.7,0h0m40.4-2.4h0m2.8,2.4H134l-.5-.2-.4-.2-.4-.3-.4-.4-.3-.4-.2-.4-.1-.5m14.5,2.4H134.5m0,0h0m11.7,0h0m2.9-2.8-.1.5-.1.6-.3.4-.4.5-.4.3-.5.3-.5.2h-.6m2.9-2.8h0m-83.5,6.3L69,298.4m0,0h0m102.9,17.3-3.4-17.3m0,0h0M65.6,315.7l-.1.5-.2.4-.3.4-.3.3-.4.3-.4.2-.4.2H63m2.6-2.3h0m106.3,0h0m2.6,2.3H174l-.4-.2-.4-.2-.4-.3-.3-.3-.3-.4-.2-.4-.1-.5M51.2,318.8,63,318m0,0h0m123.3.8-11.8-.8m0,0h0M48.2,315.9h0m3,2.9-.5-.1-.6-.1-.5-.3-.5-.3-.3-.4-.3-.6-.2-.5-.1-.6m3,2.8v.1m135.1,0v-.1m3-2.8-.1.6-.2.5-.2.6-.4.4-.5.3-.5.3-.6.1-.5.1m3-2.9h0M21.8,320.7,27.5,295m0,0v-.1m188.2,25.8L210,295m0-.1v.1M21.8,320.7l-.1.4-.2.5-.3.3-.3.4-.4.2-.4.2-.5.2h-.4m2.6-2.2h0m193.9,0h0m2.6,2.2h-.4l-.5-.2-.4-.2-.4-.2-.3-.4-.3-.3-.2-.5-.1-.4M4.5,323.4l14.7-.5m0,0h0m213.8.5-14.7-.5m0,0h0M1.5,320.6h0m3,2.8H3.9l-.5-.1-.5-.3-.5-.4-.4-.4-.2-.5-.2-.5-.1-.6m3,2.8h0m19.1-74.5L3.7,253.6m0,0-.4.1-.4.2-.4.3-.3.4-.3.4-.2.4-.1.5-.1.4m0,0v64.3m0,0,.1.6.2.5.2.5.4.4.5.4.5.2.5.2h.6m0,0,14.7-.5m0,0,.4-.1.5-.1.4-.2.4-.3.3-.3.3-.4.2-.4.1-.4m0,0,5.7-25.8m0,0,.1-.5.3-.4.3-.4.4-.4.5-.2.5-.2.5-.1.6.1m0,0L45.8,295m0,0,.5.1.5.2.4.3.4.4.2.4.3.4.1.5v.5m0,0v18.1m0,0,.1.6.2.5.3.5.3.5.5.3.5.3.6.1h.5m0,0L63,318m0,0h.5l.4-.2.4-.2.4-.3.3-.3.3-.4.2-.4.1-.5m0,0L69,298.4m0,0,.2-.5.2-.5.4-.4.4-.4.5-.3.5-.1.6-.1.5.1m0,0L86.2,299m0,0,.4.1.5.2.4.3.3.4.3.4.2.4.1.5v.5m0,0v7.6m0,0,.1.5.1.5.3.5.4.5.4.3.5.3.5.1.6.1m0,0H103m0,0,.5-.1.5-.1.4-.2.4-.3.4-.4.3-.4.2-.5.1-.4m0,0,1.7-12m0,0,.1-.5.2-.5.3-.4.3-.4.5-.3.4-.2.5-.1.5-.1m0,0h16.9m0,0,.5.1.5.1.5.2.4.3.3.4.3.4.2.5.1.5m1.7,12-1.7-12m1.7,12,.1.4.2.5.3.4.4.4.4.3.4.2.5.1.5.1m11.7,0H134.5m11.7,0,.6-.1.5-.1.5-.3.4-.3.4-.5.3-.5.1-.5.1-.5m0-7.6v7.6m0-7.6v-.5l.1-.5.2-.4.3-.4.4-.4.4-.3.4-.2.5-.1m13.8-2.8L151.4,299m13.8-2.8.5-.1.6.1.5.1.5.3.4.4.4.4.3.5.1.5m3.4,17.3-3.4-17.3m3.4,17.3.1.5.2.4.3.4.3.3.4.3.4.2.4.2h.5m11.8.7-11.8-.7m11.8.7h.5l.6-.1.5-.3.5-.3.4-.5.2-.5.2-.5.1-.6m0-18.1v18.1m0-18.1v-.5l.2-.5.2-.4.3-.4.3-.4.4-.3.5-.2.5-.1m15.1-2.2L191.7,295m15.1-2.2.6-.1.5.1.5.2.5.2.4.4.3.4.3.4.1.5m5.7,25.8L210,294.9m5.7,25.8.1.4.2.4.3.4.3.3.4.3.4.2.5.1.4.1m14.7.5-14.7-.5M236,256.3v64.3m0-64.3-.1-.4-.1-.5-.2-.4-.2-.4-.4-.4-.3-.3-.5-.2-.4-.1m-19.9-4.7,19.9,4.7m-19.9-4.7-.5-.1-.4-.2-.4-.3-.3-.4-.3-.4-.2-.4-.1-.5v-.4m0-26.1v26.1m0-26.1-.1-.6-.1-.5-.3-.5-.3-.4-.5-.4-.5-.3-.5-.1-.6-.1m-13.2,0h13.2m-13.2,0-.5.1-.5.1-.4.2-.4.3-.4.3-.3.4-.2.4-.1.5m-4.9,23.9,4.9-23.9m-4.9,23.9-.2.5-.3.5-.4.5-.4.3-.6.3-.5.1h-.6l-.6-.1m-13.8-4,13.8,4m-13.8-4-.4-.2-.4-.2-.4-.3-.3-.3-.2-.4-.2-.4-.1-.5v-.4m0-17.7v17.7m0-17.7-.1-.6-.1-.5-.3-.5-.4-.4-.4-.4-.5-.2-.5-.2-.6-.1m-11.8,0h11.8m-11.8,0-.5.1-.4.1-.5.2-.4.3-.3.3-.3.4-.2.5-.2.5m-2.4,13,2.4-13m-2.4,13-.1.5-.3.5-.3.5-.4.3-.5.3-.5.2h-1.1m-14.2-2.5,14.2,2.5m-14.2-2.5-.5-.1-.4-.2-.4-.3-.4-.4-.2-.4-.3-.4-.1-.5v-.5m0-9v9m0-9-.1-.5-.1-.5-.3-.5-.4-.5-.4-.3-.5-.3-.5-.1-.6-.1m0,0H111.5m0,0-.6.1-.5.1-.5.3-.4.3-.4.5-.2.5-.2.5-.1.5m0,0v9m0,0v.5l-.1.5-.2.4-.3.4-.4.4-.4.3-.4.2-.5.1m0,0-14.2,2.5m0,0H91l-.5-.2-.5-.3-.4-.3-.3-.5-.3-.5-.1-.5m0,0-2.4-13m0,0-.2-.5-.2-.5-.2-.4-.4-.3-.4-.3-.4-.2-.5-.1-.5-.1m0,0H71.9m0,0-.6.1-.5.2-.5.2-.4.4-.4.4-.2.5-.2.5-.1.6m0,0v17.7m0,0v.4l-.1.5-.2.4-.2.4-.3.3-.4.3-.4.2-.4.2m0,0-13.8,4m0,0-.6.1h-.5l-.6-.1-.5-.3-.5-.3-.4-.5-.3-.5-.2-.5m0,0-4.9-23.9m0,0-.1-.5-.2-.4-.3-.4-.4-.3-.4-.3-.4-.2-.5-.1-.5-.1m0,0H28.7m0,0-.6.1-.5.1-.5.3-.4.4-.4.4-.3.5-.1.5-.1.6m0,0v26.1m0,0v.4l-.1.5-.2.4-.3.4-.3.4-.4.3-.4.2-.5.1M233,323.4h.6l.5-.2.6-.2.4-.4.4-.4.2-.5.2-.5.1-.6m-3,2.8h0m3-2.8-.1.6-.2.5-.2.5-.4.4-.4.4-.6.3-.5.1H233m3-2.8h0M161,147.4l1.8-2.1,1.8-2.4,1.5-2.7,1.3-2.7,1-2.9.3-1m-61.8-8.1v1.4l.3,3.1.5,2.9.9,3,.4,1.1m6.5-33.1-1.3,1.4-1.9,2.5-1.6,2.6-1.3,2.7-1.1,2.9-.7,3-.5,3-.2,3,.1,3.1.4,3,.7,3,.9,2.9m51.9,10.4,2.1-2.3,1.7-2.5,1.6-2.7,1.3-2.7.9-2.9.2-.7M38.5,215.5v.4l.1.5.2.3.3.4.1.1m48.2-.9-.9,4.4m4.6-22.8-2.3,11.2m-44.4,9.6L69,224.3m9.2-29.8.1-.2.2-.2.1-.2.1-.2.2-.2.1-.1.1-.2.2-.2m-1.1,1.5-4.2-.7m-20.5-3.5L46,189m0,0-.5-.1-.4.1-.4.1-.4.2-.3.3-.3.3-.2.4-.1.4m0,0L38.5,215m0,0v.9l.1.4.2.4.3.4.2.1m5.1,1.4L69,224.2m22.1-26.3-4.6,22.8m66.1-2.2,1.6-8m39.2,7.7-1.6-.3m-20.3-4.6-4.2-1m-.4-1.8.1.2v.2l.1.3v.2l.1.2.1.3v.4m-19.6-82.6h0v.6m-41.6,3.8.2-13.2m0,0h0m-.2,13.2h0m80.6,2.8h0l-.1.5m-38.9-7.1-1.8,8.7m1.8-8.7v-.1m-1.8,8.8v.6m0-.6h0m83.4,5.4h0l-.1.5m-42.6-7.5-3.4,17.4m3.4-17.4h0m-3.4,17.4-.1.5v.1m.1-.6h0m46-9.9-5.1,25.6m5.1-25.6h0m-5.1,25.6-.1.5v.1m.1-.6h0M37.5,180.8l-.5-.2h-.6l-.5.1-.5.1-.5.3-.4.3-.3.4-.3.5M246,184.7v.1l-.1.4M37.5,180.8,51.9,186m-14.4-5.3v.1M51.9,186v-.1m1.9,2.7-.1-.4-.1-.5-.2-.5-.3-.4-.3-.3-.5-.3-.4-.2m22,7.8H74m3.7-1.5-.6-.2H76l-.5.2-.5.2-.4.4-.4.4-.2.5m3.7-1.5,1.6.7m11.4,4.7L79.3,193m-1.6-.7h0m37.4,6.6-.6-.1-.5.1-.4.1-.5.2-.4.3-.4.4-.3.4-.2.4m-21.1-3h0m.4.2H91l-.1-.1h-.1l-.1-.1m1.7,2.6V200l-.1-.4-.1-.4-.2-.4-.3-.3-.3-.3-.3-.3m24,1,16.5,3.3m-16.5-3.3h0m16.5,3.3h0m2.3,2.8v-.4l-.1-.5-.2-.4-.3-.4-.3-.4-.4-.3-.5-.2-.5-.2M5.8,205.7l-.6-.1-.5-.3-.4-.3-.4-.5-.3-.5-.1-.5-.1-.6m19.9,3.5,10.6-24.1m0,0h0M5.8,205.7h0m0,0,14.5,2.4m0,0h0m3-1.7-.2.4-.3.4-.3.3-.4.3-.4.2-.5.1h-.9m3-1.7h0m44,3.7,6.6-16.3m0,0h0M52.6,210.3l-.6-.2-.5-.2-.5-.4-.4-.4-.2-.5-.2-.5-.1-.6m118.6,3h-1.8m-12.3,0h12.3m-73.8,1.2-.5-.2-.5-.2-.5-.4-.3-.4L91,210l-.1-.5-.1-.6m-38.2,1.4,11.7,1.6m-11.7-1.7v.1m11.7,1.6h0m3-1.8-.3.5-.2.3-.4.4-.3.2-.5.2-.4.1-.5.1h-.4m3-1.8h0m40.5,2,4-11.4m0,0h0m42.4,9.8-.5.1-.4.2-.3.2-.4.3-.2.3-.3.4-.2.4-.1.4m2.8-2.3h-.4m.4,0h0m14.1,0v-.1m2.8,2.9v-.6l-.2-.5-.2-.5-.4-.4-.4-.4-.5-.2-.5-.2h-.6m-75.6,1.2,11.5,2.3m-11.5-2.3h0m11.5,2.3h0m3.2-1.9-.2.5-.3.4-.4.4-.4.3-.4.2-.5.1h-1m3.2-1.9h0m102.4,3.2-15.3-.8m0,0h-.5l-.5.1-.4.2-.5.3-.3.4-.3.4-.2.4-.2.5m2.9-2.3h0m15.3.8v-.1m2.7,2.8v-.5l-.2-.5-.2-.5-.4-.4-.4-.3-.4-.3-.5-.2h-.6m-74.7,4.9-.5-.2-.4-.2-.4-.3-.4-.4-.2-.4-.2-.5-.1-.5-.1-.3m18.6-4.6-1.5,7.4m1.5-7.4h0m-4.8,9.6-11.5-2.2m0-.1v.1m11.5,2.2h0m3.3-2.2-.1.6-.3.4-.3.5-.5.3-.5.3-.5.1-.5.1-.6-.1m3.3-2.2h0m23.3,13.5-.5-.2-.4-.2-.4-.3-.3-.3-.2-.4-.2-.4-.1-.5-.1-.5M192,216.8l-.2,1.1m.2-1.1h0m-.2,1.1-3.3,16.6m-3.5,2.2-11.4-3m0,0h0m11.4,3h0m3.5-2.2-.2.6-.3.5-.4.4-.4.4-.5.2-.6.2h-.6l-.5-.1m3.5-2.2h0m24.9,9.9-.5-26.4m0,0h0m.5,26.4v-.1m2.2,2.8-.4-.2-.5-.2-.3-.3-.4-.3-.2-.4-.2-.4-.1-.5-.1-.4m32.5-59.2-12.6,63.1m12.6-63.1h0m-16,65.3-14.3-3.4m0-.1v.1m14.3,3.4v-.1m3.4-2.1-.1.5-.3.5-.4.4-.4.4-.5.2-.6.2h-1.1m3.4-2.3v.1M39.2,136.4l-20.5.6m0,0-.4.1-.5.1-.4.2-.4.3-.3.3-.3.4-.2.5-.2.4m0,0-12.5,63m0,0-.1.6.1.6.1.5.3.5.4.4.4.4.5.2.6.2m0,0,14.5,2.4m0,0h.5l.4-.1.5-.1.4-.2.4-.2.3-.3.3-.4.2-.4m0,0,10.6-24.1m0,0,.3-.5.3-.4.4-.3.5-.3.5-.2H37l.5.1m0,0,14.4,5.2m0,0,.4.3.5.2.3.4.3.4.2.5.1.5.1.5-.1.5m0,0-3.5,17.7m0,0-.1.6.1.5.2.6.2.5.4.4.5.4.5.2.6.1m0,0,11.7,1.7m0,0h.4l.5-.1.4-.1.5-.2.3-.3.4-.3.2-.4.3-.4m0,0,6.6-16.3m0,0,.3-.5.4-.4.4-.4.5-.2.5-.2.6-.1.5.1.6.2m0,0,13,5.4m0,0,.4.2.4.3.3.4.3.4.2.4.1.5v1m0,0-1.5,7.4m0,0-.1.6.1.5.1.6.3.5.3.4.5.3.5.3.5.2m0,0,11.5,2.3m0,0h1l.5-.1.4-.3.4-.2.4-.4.3-.4.2-.5m0,0,4-11.4m0,0,.2-.4.3-.5.4-.3.4-.3.5-.2.4-.1.5-.1.6.1m0,0,16.5,3.3m0,0,.5.1.5.3.4.3.3.3.3.5.2.4.1.5v.5m-.7,12.1.7-12.1m-.7,12.1.1.5.1.5.2.5.2.4.4.4.4.3.4.2.5.1m11.5,2.3-11.5-2.3m11.5,2.3.6.1.5-.1.5-.1.5-.3.5-.3.3-.5.3-.5.1-.5m1.5-7.4-1.5,7.4m1.5-7.4.2-.5.2-.5.3-.3.3-.4.4-.3.4-.2.5-.1h.5m14.1-.1-14.1.1m14.1-.1.6.1.5.2.5.2.4.4.4.4.2.5.2.5v.6m-.1,17.6.1-17.6m-.1,17.6.1.5.1.4.2.5.2.4.3.3.4.3.4.2.5.2m11.4,3-11.4-3m11.4,3,.5.1.6-.1.6-.1.5-.3.4-.3.4-.4.3-.6.2-.5m3.5-17.7-3.5,17.7m3.5-17.7.2-.5.2-.5.3-.4.3-.3.5-.3.4-.2.5-.1h.5m15.3.7-15.3-.7m15.3.7.6.1.5.2.4.2.4.4.4.4.2.5.2.5v.5m.5,26.3-.5-26.3m.5,26.3.1.5.1.5.2.4.2.4.4.3.3.3.5.2.4.1m14.3,3.4L215.6,247m14.3,3.4.6.1h.5l.6-.2.5-.2.4-.4.4-.4.3-.5.1-.6m12.6-63-12.6,63m12.6-63,.1-.5v-.4l-.1-.5-.2-.4-.3-.4-.3-.4-.4-.3-.4-.2m-18.6-8.5,18.6,8.5m-18.6-8.5-.4-.2-.4-.3-.3-.4-.2-.4-.2-.4-.1-.5-.1-.4.1-.5m5.1-25.6-5.1,25.6m5.1-25.6.1-.6-.1-.5-.1-.5-.3-.5-.4-.5-.4-.3-.5-.3-.5-.1M214,139l13,2.6M214,139l-.5-.1H213l-.5.1-.4.2-.4.3-.4.3-.3.4-.2.4m-9.5,22.5,9.5-22.5m-9.5,22.5-.3.5-.4.4-.4.4-.6.3-.5.1h-.6l-.6-.1-.5-.2m-12.8-6.6,12.8,6.6m-12.8-6.6-.3-.3-.4-.3-.3-.3-.2-.4-.2-.4-.1-.5v-.4l.1-.5m3.4-17.4-3.4,17.4m3.4-17.4.1-.5-.1-.6-.1-.5-.3-.5-.3-.4-.5-.4-.5-.2-.5-.2m-11.6-2.3,11.6,2.3m-11.6-2.3-.5-.1-.5.1-.4.1-.5.2-.4.2-.3.4-.3.4-.3.4m-4.9,12.3,4.9-12.3m-4.9,12.3-.2.5-.4.5-.4.3-.5.3-.5.1-.5.1h-.6l-.5-.2m-13.4-5.2,13.4,5.2m-13.4-5.2-.5-.2-.4-.3-.3-.3-.3-.5-.2-.4-.1-.5v-1m1.8-8.8-1.8,8.8m1.8-8.8v-1.1l-.2-.5-.2-.5-.4-.4-.4-.4-.5-.2-.5-.2m0,0-14.3-2.8m0,0-.6-.1-.5.1-.6.1-.4.3-.5.3-.3.5-.3.4-.1.6m0,0-1.8,8.8m0,0-.1.4-.3.5-.3.4-.3.3-.4.3-.5.2-.5.1h-.4m0,0-14.4-.3m0,0-.6-.1-.5-.1-.5-.3-.4-.4-.3-.4-.3-.5-.1-.5-.1-.6m0,0,.2-13.2m0,0v-.5l-.1-.5-.2-.4-.3-.5-.3-.3-.4-.3-.5-.2-.4-.1m0,0-11.6-2.4m0,0H91.4l-.6.2-.5.3-.4.3-.3.4-.3.5-.2.6m0,0-3.4,17.3m0,0-.2.5-.2.4-.2.4-.3.3-.4.3-.4.2-.4.1-.5.1m0,0-14.3,1.2m0,0h-.6l-.5-.1-.6-.2-.4-.4-.4-.4-.3-.5-.2-.6-.1-.6m0,0-.1-24.4m0,0-.1-.4-.1-.5-.2-.4-.3-.4-.3-.4-.4-.3-.4-.2-.5-.1m0,0-13-2.6m0,0-.6-.1-.5.1-.5.1-.5.3-.5.4-.3.4-.3.5-.1.5m0,0-5.2,25.6m0,0-.1.5-.2.4-.3.4-.3.3-.4.3-.4.2-.5.1-.4.1M193.7,63.7l2.2-1.7,2.2-2,2.1-2.3,1.8-2.4,1.5-2.6,1.3-2.8M144.3,37.8l.1,1.3.2,3,.2,1.3m60,6.5,1.1-2.9.7-2.9.5-3,.2-3v-.3M193.7,63.7l2.4-1.9,2.3-2.1,2-2.3,1.8-2.4,1.5-2.7,1.3-2.8,1-2.9.7-2.9.4-3.1.2-3-.2-3.1-.5-3-.7-3-1.1-2.9-1.3-2.7-1.6-2.7-1.8-2.4L198,15.5l-2.3-2-2.4-1.9-2.7-1.5-2.7-1.3L185,7.7,182,7l-3-.5-3.1-.2-3,.2-3.1.4-2.9.7-2.9,1-2.8,1.3-2.6,1.6-2.5,1.8-2.3,2-2.1,2.3L149.8,20l-1.6,2.6-1.3,2.8-1.1,2.8-.8,3-.5,3-.2,3.1.1,3,.4,3.1M60.2,107v.4l.2.4.2.4.1.2m47.4,8.5-1.8,4.2m9-21.5-4.4,10.5m-45.5.7,23.1,10.3m14.8-27.4.2-.1.1-.2.2-.2.2-.1.2-.2.1-.2.2-.1.2-.2m-1.4,1.3-4-1.5M79.9,84.7l-7.1-2.8m0,0-.4-.1h-.9l-.4.2-.4.2-.3.3-.3.3-.2.4m0,0-9.5,22.9m0,0-.2.4v.9l.2.4.2.4.1.2m4.7,2.4,23.1,10.3m26.8-21.5-9,21.5m65.2,10.7,3.2-7.5m36.9,15.2-1.5-.6m-18.9-8.5-3.9-1.8m-.1-1.9v1.5l.1.2v.2M107.2,9.5h0V10m38.2,16.4v.1l-.1.5m-42.7,6.9L107.2,10m0,0h0m-4.6,23.9-.1.6m.1-.6h0M142.5,40l2.8-13m0,0h0m-2.8,13v.6m0-.6h0m41.8,3.2h0l-.1.6-.2.5m0,0-3.4,8.3m3.4-8.3h0m-3.4,8.3-.1.4-.1.5v.2m.2-1.1h0M221,57.9h0v.5l-.2.6M66.1,72.3l-.5-.3-.5-.1-.5-.1-.6.1-.5.2-.5.2-.4.4-.3.4m199,.5h0v.5l-.2.5M220.8,59,214,75.3M220.8,59h0M214,75.3l-.1.5-.1.4v.2m.2-1.1h0m-147.9-3,13.1,7.9m-13.1-8v.1m13.1,7.9h0m1.4,2.4-.1-.4-.1-.5-.2-.4-.3-.5-.3-.3-.4-.3M30.1,90.5l-.5-.2-.4-.4-.4-.4-.3-.5-.2-.6v-.5m71,4.3h0m3.9-.8-.5-.2-.5-.2-.5-.1-.6.1-.5.1-.5.3-.4.3-.4.5M47.2,94.6,62.3,73.1m0,0V73M30.1,90.5h0m0,0,13.8,5.2m0,0h0m3.3-1.1-.3.4-.4.3-.3.2-.5.2-.4.1h-1l-.4-.1m3.3-1.1h0m213.9-20-10,24.1m10-24.1h0M103.2,91.4l1.5,1m10.2,6.9-10.2-6.9m-1.5-1h0m147.9,7.3-.1.5-.1.5v.1m.2-1.1h0m-136.2.6h0m.4.3-.1-.1h-.1v-.1H115v-.1h-.1m1.3,2.4v-.2l-.1-.4-.1-.5-.2-.4-.2-.3-.3-.3m-40.2,4.5-.5-.2-.5-.3-.4-.5-.3-.5-.1-.5-.1-.6m65.4,3.7-.5-.1-.5-.1h-.5l-.5.2-.4.2-.5.2-.3.4-.3.4m-45.6.5,9.8-14.7m0,0h0M75.1,104.1,86.2,108m-11.1-3.9h0M86.2,108h0m3.3-1.1-.3.4-.3.3-.4.2-.4.2-.5.1-.4.1-.5-.1-.5-.1m3.3-1.1h0m49.1-1.7,15.6,6.5m-15.6-6.5h0m-24,8.3-.5-.3-.5-.4-.3-.4-.3-.5-.1-.5-.1-.6m41.4.9h0m1.8,2.6-.1-.3-.1-.5-.1-.4-.3-.5-.3-.3-.4-.3-.5-.3m-25.3,5.1,6.2-10.4m0,0h0m134.7,10v.6l-.2.5m-155-4,10.8,4.5m-10.8-4.6v.1m10.8,4.5v-.1m3.5-1.1-.3.4-.4.4-.4.2-.4.2-.5.2h-.5l-.5-.1-.5-.1m3.5-1.2h0m45.8,7.5h-.5l-.4.1-.4.1-.4.2-.3.3-.3.3-.3.3-.2.4m3.2-1.7h-.4m14.2,2.8-1.7-.4m-12.1-2.4h0m0,0,12.1,2.4m-32.7,3.4-.4-.3-.4-.3-.4-.3-.2-.5-.2-.4-.1-.5v-.3m36.1-.4h0m2.3,2.8v-.6l-.2-.5-.3-.5-.3-.5-.4-.3-.5-.3-.6-.1m-17-1.1-2.9,7m2.9-7h0m-6.6,8.6-10.8-4.5m0,0h0m10.8,4.5h0M169,133l-.2.5-.4.5-.4.3-.5.3-.5.1-.6.1-.5-.1-.6-.1M169,133h0m44.9,3.2-.5-.1h-.5l-.5.1-.5.2-.4.3-.4.3-.3.4-.2.4m18.1,2.1-14.8-3.7m0,0h0m14.8,3.7h0m2.2,2.7h0l-.1-.5-.1-.5-.3-.5-.3-.4-.4-.4-.5-.2-.5-.2m-39.5,10.9-.4-.2-.4-.3-.3-.4-.2-.4-.2-.4-.1-.5v-.3m23-10.5-.5,1.1m.5-1.1h0m-.5,1.1-6.5,15.6m-3.8,1.5-10.6-5.2m0,0h0m10.6,5.2h0m3.8-1.5-.3.5-.3.5-.5.3-.5.3-.6.1-.5.1-.6-.1-.5-.2m3.8-1.5h0m24.2,17.6-.4-.2-.4-.3-.3-.3-.3-.4-.1-.4-.1-.5-.1-.4m43.5-52.1-24.7,59.3m24.7-59.3v-.1m-28.5,60.9-13.3-6.2m0,0h0m13.3,6.2h0m3.8-1.5-.2.5-.4.4-.4.4-.5.2-.6.2h-1.1l-.6-.2m3.8-1.5h0M76.4,29.1,56.2,25.7m0,0h-.9l-.5.1-.4.2-.4.3-.3.3-.3.4-.2.4m0,0L28.5,86.7m0,0-.2.6v1.1l.2.6.3.5.4.4.4.3.5.3m0,0,13.8,5.2m0,0,.4.1h1l.4-.1.5-.2.3-.2.4-.3.3-.4m0,0L62.3,73m0,0,.3-.4.4-.3.5-.3.5-.1.6-.1.5.1.5.1.5.2m0,0,13.1,8m0,0,.4.2.3.4.3.4.2.5.1.5.1.5-.1.5-.2.5m0,0-6.9,16.7m0,0-.2.5v.6l.1.6.1.5.3.5.4.4.5.4.5.2m0,0L86.2,108m0,0,.5.1h.9l.5-.1.4-.2.4-.2.3-.4.3-.3m0,0,9.8-14.7m0,0,.3-.4.5-.4.5-.3.5-.1.5-.1.6.1.5.1.5.3m0,0,11.7,7.9m0,0,.4.3.3.4.3.4.1.4.1.5.1.5-.1.5-.2.4m0,0-2.9,7m0,0-.1.6-.1.5.1.6.1.5.3.5.3.4.5.4.5.2m0,0,10.8,4.5m0,0,.5.2.5.1.5-.1.5-.1.4-.2.4-.3.4-.3.3-.4m0,0,6.2-10.4m0,0,.3-.4.3-.4.5-.3.4-.2.5-.1h.5l.5.1.5.1m0,0,15.6,6.5m0,0,.5.2.4.3.3.4.3.5.1.4.1.5v1m-3.1,11.7,3.1-11.7m-3.1,11.7v1l.1.5.2.5.2.4.4.4.4.3.4.3m10.8,4.5-10.8-4.5m10.8,4.5.6.1.5.1.6-.1.5-.1.5-.3.4-.4.4-.4.2-.5m2.9-7-2.9,7m2.9-7,.3-.4.3-.4.3-.3.4-.3.5-.2.4-.1h1m13.8,2.8-13.8-2.8m13.8,2.8.6.1.5.3.4.3.4.5.2.5.2.5v1.1m-3.6,17.3,3.6-17.3m-3.6,17.3v.9l.1.5.2.4.2.4.3.3.4.3.4.3m10.6,5.2-10.6-5.2m10.6,5.2.5.2.6.1.5-.1.6-.1.5-.3.5-.3.3-.5.3-.5m7-16.7-7,16.7m7-16.7.2-.4.3-.4.4-.4.4-.2.5-.2.5-.1h.5l.5.1m14.8,3.7-14.8-3.7m14.8,3.7.5.2.5.2.4.4.3.4.3.5.1.5.1.5-.1.5M226.2,169l4.6-25.9M226.2,169l-.1.5.1.5.1.4.1.5.3.4.3.3.4.3.4.2m13.3,6.2-13.3-6.2m13.3,6.2.6.1.5.1h.6l.6-.2.5-.2.4-.4.4-.4.2-.5m24.7-59.4-24.7,59.4m24.7-59.4.2-.4v-1l-.1-.4-.1-.5-.3-.4-.3-.4-.3-.3m-16.6-11.9L268.7,114m-16.6-11.9-.4-.3-.3-.4-.2-.4-.2-.4-.1-.5v-.5l.1-.4.1-.5m10-24.1-10,24.1m10-24.1.2-.5V73l-.2-.5-.2-.5-.4-.5-.4-.3-.5-.3m-12.3-5.1,12.3,5.1m-12.3-5.1-.4-.1-.5-.1h-.5l-.5.1-.4.2-.4.2-.4.4-.3.3M230.2,87l13.7-20.2M230.2,87l-.4.4-.5.4-.5.3-.5.1h-.6l-.6-.1-.6-.2-.4-.3m-11.2-9,11.2,9m-11.2-9-.4-.3-.2-.4-.3-.4-.1-.4-.1-.4v-.5l.1-.4.1-.5M220.8,59,214,75.3M220.8,59l.2-.6V57.3l-.2-.5-.2-.5-.4-.4-.4-.4-.5-.2m-10.9-4.6,10.9,4.6m-10.9-4.6-.5-.1-.5-.1h-.5l-.4.1-.5.2-.4.3-.4.3-.3.4m-7.2,11.1,7.2-11.1m-7.2,11.1-.3.4-.5.4-.4.3-.6.1-.5.1h-.6l-.5-.2-.5-.2M181.7,56l12.1,7.8M181.7,56l-.4-.3-.3-.3-.3-.4-.2-.5-.1-.5v-.5l.1-.5.1-.4m3.4-8.3-3.4,8.3m3.4-8.3.2-.5.1-.6-.1-.5-.2-.6-.2-.5-.4-.4-.4-.4-.5-.2m0,0L169.1,35m0,0-.6-.2h-1.1l-.5.2-.5.2-.4.4-.4.4-.2.5m0,0-3.5,8.3m0,0-.2.4-.3.4-.4.4-.4.2-.4.2-.5.1h-1m0,0-14-3.2m0,0-.6-.2-.4-.2-.5-.4-.3-.4-.2-.5-.2-.5V40m0,0,2.8-13m0,0,.1-.5V26l-.2-.5-.1-.4-.3-.4-.3-.4-.4-.3-.5-.2m0,0-10.9-4.5m0,0-.5-.2-.6-.1-.5.1-.5.2-.5.2-.5.4-.3.4-.3.5m0,0-6.8,16.3m0,0-.2.4-.3.4-.3.3-.4.3-.4.2-.4.1-.5.1h-.4m0,0L105,37.3m0,0-.6-.1-.5-.3-.5-.3-.3-.5-.3-.5-.2-.5-.1-.6.1-.6m0,0L107.2,10m0,0V9l-.1-.5-.2-.4-.3-.4-.3-.4-.4-.3-.4-.2m0,0L93.2,1.7m0,0-.5-.1-.6-.1-.5.1-.6.1-.4.3-.5.3-.3.5-.3.5m0,0-10,24.1m0,0-.2.4-.3.4-.4.3-.4.2-.4.2-.4.2h-1M87.3,218.8v.1m19.6-93.4h0m-68.4,90h0m109.2-85.8h0m39,7.2h0m42.6,7.5v-.1M246,184.7h0M3.4,202.9h0m46.7,4.5v.1m40.7,1.4h0m42.4,8.5h0M207.3,37.8h0m-63,0h0M60.2,106.9v.1m127.1,21.5h0M107.2,9.5V9.4m38.2,17h0m38.9,16.8h0M221,57.9h0m40.3,15.7v-.1M28.3,87.8v.1m44.9,13.5v.1m39.6,9.3h0m157,5.6v-.1m-117,11.1v.1m34.8,20.7v.1m38.5,21.2v.1"/></g></g></svg>