<svg xmlns="http://www.w3.org/2000/svg" viewBox="0 0 479.02 513.52"><defs><style>.cls-1{fill:none;stroke:#000;stroke-linecap:round;stroke-linejoin:round;stroke-width:2.8px;}</style></defs><g id="Layer_2" data-name="Layer 2"><g id="Layer_1-2" data-name="Layer 1"><path class="cls-1" d="M16.48,512.12h7.09M423.25,77l-6.39,0-6.39.15-6.38.25-6.38.35-6.37.46-6.37.55-6.36.65-6.34.75-6.33.85-6.32,1-6.3,1L347,84.21l-6.27,1.24-6.24,1.35-6.23,1.44-6.2,1.54-6.18,1.64-6.14,1.73L303.64,95l-6.09,1.93-6.06,2-6,2.12-6,2.21-6,2.31-5.92,2.4-5.89,2.49L255.86,113l-5.8,2.68-5.76,2.76-5.72,2.86-5.67,2.94-5.62,3-5.58,3.12-5.52,3.21-5.48,3.29-5.42,3.38-5.37,3.47-5.31,3.55L189.36,151l-5.2,3.72L179,158.48l-5.08,3.88-5,4-4.95,4-4.9,4.11-4.82,4.19-4.76,4.26-4.69,4.34-4.63,4.41-4.55,4.48-4.48,4.55-4.41,4.63L122.39,210l-4.26,4.76-4.19,4.82-4.11,4.9-4,4.95-4,5L98,239.54l-3.79,5.14-3.72,5.2-3.63,5.25-3.55,5.32-3.47,5.36-3.38,5.42-3.29,5.48-3.21,5.52-3.13,5.58-3,5.62-2.94,5.67L58,304.82l-2.77,5.76-2.67,5.8-2.58,5.84-2.5,5.89L45,334l-2.3,6-2.21,6-2.12,6-2,6.06-1.93,6.09-1.83,6.13-1.73,6.15-1.64,6.17-1.54,6.2L26.28,395l-1.35,6.24-1.24,6.27-1.15,6.29-1.05,6.3-.95,6.32-.85,6.33-.75,6.35-.65,6.35-.56,6.37-.45,6.37-.35,6.38L16.68,471l-.15,6.38-.05,6.39m0,0v28.35m7.09-28.35v28.35m399.68-428-6.34,0-6.34.15-6.34.25-6.33.35-6.32.46-6.32.55-6.31.65-6.3.75-6.28.86-6.27,1-6.25,1-6.24,1.15-6.22,1.25-6.19,1.35L329,95.35l-6.15,1.55-6.12,1.64-6.1,1.74-6.07,1.83-6,1.93-6,2-6,2.12-5.94,2.22-5.91,2.31-5.87,2.4-5.82,2.5-5.79,2.59-5.75,2.68-5.71,2.77-5.66,2.86-5.61,2.95-5.56,3-5.52,3.12-5.47,3.22-5.41,3.3-5.36,3.39L201.86,151l-5.25,3.55-5.2,3.64-5.14,3.72-5.07,3.8-5,3.88-5,4-4.89,4-4.83,4.11-4.76,4.19-4.69,4.27-4.62,4.34-4.56,4.41-4.48,4.48L134,208l-4.34,4.62-4.27,4.69L121.19,222l-4.12,4.83-4,4.89-4,4.95-3.88,5-3.8,5.08-3.72,5.13L94,257.13l-3.55,5.25L87,267.69l-3.38,5.36-3.3,5.41-3.22,5.47L74,289.45,71,295l-3,5.62-2.86,5.66L62.36,312l-2.67,5.75-2.59,5.79-2.5,5.83-2.4,5.86-2.31,5.91-2.22,5.94-2.12,6-2,6-1.93,6-1.83,6.07L38,377.27l-1.64,6.12-1.55,6.15-1.44,6.18L32,401.91l-1.25,6.22-1.15,6.24-1.05,6.25-1,6.27-.85,6.28-.75,6.3-.65,6.31-.56,6.32-.45,6.32L24,464.75l-.25,6.34-.15,6.34-.05,6.34m428-399.68H423.25M451.6,77v7.09m0-7.09H423.25m-165,435.12H242.64m15.63-28.56,0,28.56M423,318.8l-4.11.05-4.1.16-4.1.26-4.09.36-4.08.47-4.07.56-4.05.67-4,.77-4,.87-4,1-4,1.07-3.94,1.16-3.91,1.27-3.87,1.36-3.84,1.45-3.81,1.55-3.76,1.65-3.72,1.73L347.91,337l-3.63,1.92-3.58,2-3.53,2.1-3.47,2.19-3.42,2.27-3.37,2.36-3.3,2.44-3.24,2.52-3.18,2.6-3.11,2.68L311,362.84l-3,2.83-2.91,2.91-2.83,3-2.75,3.05-2.68,3.11-2.6,3.18-2.52,3.24-2.44,3.3L287,390.8l-2.27,3.42-2.19,3.47-2.1,3.53-2,3.58-1.92,3.63-1.83,3.68-1.74,3.72-1.64,3.76-1.55,3.81-1.46,3.84-1.35,3.87L265.64,435,264.48,439l-1.07,4-1,4-.86,4-.77,4-.67,4.05-.56,4.07-.47,4.08-.36,4.09-.26,4.1-.16,4.1-.06,4.11M451.6,318.8H423m28.56-15.59V318.8M423,303.21H451.6M242.69,483.54l.05-4.29.16-4.29.26-4.28.36-4.28.46-4.26.57-4.25.67-4.24.76-4.22.87-4.21,1-4.18,1.07-4.15,1.16-4.13,1.26-4.1,1.36-4.07,1.45-4,1.55-4,1.65-4,1.74-3.93,1.83-3.88L262.8,401l2-3.79,2.11-3.74,2.19-3.69,2.27-3.64,2.37-3.58L276.2,379l2.53-3.47,2.61-3.4,2.69-3.34,2.77-3.27,2.85-3.21,2.93-3.14,3-3.07,3.07-3,3.14-2.92,3.21-2.85,3.28-2.77,3.34-2.7,3.4-2.61,3.47-2.53,3.52-2.45,3.58-2.36,3.64-2.28,3.69-2.19,3.74-2.1,3.79-2,3.83-1.93,3.88-1.83,3.93-1.73,4-1.65,4-1.55,4-1.45,4.07-1.36,4.1-1.26,4.13-1.16,4.15-1.07,4.18-1,4.21-.87,4.22-.77,4.24-.66,4.25-.57,4.26-.46,4.28-.36,4.28-.26,4.29-.16,4.29-.05M242.64,512.12l.05-28.58M393.69,75v.16l.05.16.08.15.1.13.13.1.15.08.16,0,.17,0m-.85-3.69V75m39.74-9.22v-3m0,0,0-.17-.05-.15-.08-.15-.1-.13-.13-.11L432.9,62l-.16,0-.16,0m0,0h-13m0,0-.16,0-.16,0-.15.08-.13.11-.1.13-.08.15-.05.15,0,.17m0,0v3m0,0H412.6m0,0h-.17l-.08,0-.08,0-.08,0-.07,0-.07.06-.06,0m0,0-4.84,5m0,0-.06.06-.07.05-.07,0-.08,0-.08,0-.08,0h-.17m0,0h-12m0,0-.17,0-.16.05-.15.07-.13.11-.1.13-.08.15-.05.16v.16m.85,3.69h44.87m0,0,.16,0,.16,0,.15-.08.13-.1.11-.13.07-.15.05-.16,0-.16m0,0V66.65m0,0,0-.16-.05-.16-.07-.15-.11-.13-.13-.1-.15-.08-.16-.05-.16,0m0,0h-6M409.08,329.14v.17l.05.16.08.14.11.13.13.11.14.08.16.05h.17m-.85-9.21v8.36m6.83.85v3m0,0,0,.16,0,.16.08.15.11.13.13.1.14.08.16.05.17,0m0,0h13m0,0,.17,0,.16-.05.14-.08.13-.1.11-.13.08-.15.05-.16V333m0,0v-3m0,0h6m0,0h.17l.16-.05.15-.08.13-.11.1-.13.08-.14.05-.16v-.17m0,0v-8.36m0,0v-.17l-.05-.16-.08-.14-.1-.13-.13-.11-.15-.08-.16,0-.17,0m0,0H409.93m0,0-.17,0-.16,0-.14.08-.13.11-.11.13-.08.14-.05.16v.17m.85,9.21h6m-156.5,167.1v.17l.05.16.08.15.11.13.13.1.14.08.16.05.17,0m9.21-6.84h3m0,0h.17l.16-.05L273,491l.13-.11.1-.12.08-.15,0-.16v-.17m0,0v-13m0,0v-.17l0-.15-.08-.15-.1-.13-.13-.11-.15-.07-.16-.05-.17,0m0,0h-3m0,0v-6m0,0v-.17l0-.16-.08-.14-.11-.13-.13-.11-.14-.08-.16,0-.17,0m0,0h-8.36m0,0-.17,0-.16,0-.14.08-.13.11-.11.13-.08.14-.05.16v.17m0,0v26.64m.85.86h8.36m0,0,.17,0,.16-.05.14-.08.13-.1.11-.13.08-.15,0-.16v-.17m0,0v-6M2.25,479.26l-.17,0-.16.05-.14.08-.13.1-.11.13-.08.15,0,.16,0,.17m0,0v13m.85.85h3m0,0v6m0,0,0,.17,0,.15.08.15.1.13.13.11.15.08.16,0,.16,0m0,0H14.5m0,0,.16,0,.16,0,.15-.08.13-.11.1-.13.08-.15.05-.15,0-.17m0,0V455.06m0,0,0-.17-.05-.16-.08-.15-.1-.12-.13-.11-.15-.08-.16,0H14.5m0,0H11.66m0,0H11.5l-.16,0-.15.08-.13.11-.11.12-.07.15-.05.16,0,.17m0,0v12m0,0v.09l0,.08,0,.08,0,.08,0,.08-.05.07-.05.07-.06.06m0,0-5,4.84m0,0-.06.06-.05.07,0,.07,0,.08,0,.08,0,.08v.17m0,0v6.14m0,0h-3M1.4,493.1l0,.16,0,.16.08.15.11.13.13.11.14.07.16.05.17,0M405.52,55.85l0,.33.1.32.16.29L406,57l.26.21.29.15.32.09.33,0m0,0h37.71m0,0,.33,0,.32-.09.29-.16.26-.21.21-.26.16-.29.09-.32,0-.34m0,0V52.48m0,0,0-.33.1-.32.15-.29.21-.26.26-.21.3-.16.32-.1.33,0m0,0h11.41m0,0,.33,0,.32-.1.29-.16.26-.21.21-.26.16-.29.1-.32,0-.33m0,0V47m0,0,0-.33.1-.32.15-.3.22-.26.25-.21.3-.15.32-.1.33,0m0,0h12.78m0,0,.33,0,.32-.09.29-.16.26-.21.21-.26.16-.29.1-.32,0-.33m0,0V21.53m0,0,0-.34-.1-.31-.16-.3-.21-.26-.26-.21-.29-.16-.32-.09-.33,0m0,0H463.14m0,0-.33,0-.32-.1-.3-.15-.25-.21-.22-.26-.15-.3-.1-.31,0-.34m0,0V16.07m0,0,0-.33-.1-.32-.16-.29-.21-.26-.26-.21-.29-.16-.32-.1-.33,0m0,0H448.33m0,0-.33,0-.32-.1-.3-.16-.26-.21-.21-.26-.15-.29-.1-.32,0-.33m0,0V3.1m0,0,0-.33-.09-.32-.16-.29-.21-.26-.26-.21-.29-.16-.32-.1-.33,0m0,0H406.3m0,0-.34,0-.32.1-.3.16-.26.22-.21.26-.15.3-.1.32,0,.34m0,0,.92,52.72M29.66,512.12H236.59M423.25,90.18l-6.31,0-6.3.15-6.31.26L398,91l-6.29.45-6.28.56-6.28.66-6.26.75-6.25.86-6.24,1-6.22,1L348,97.44l-6.18,1.26-6.16,1.35-6.14,1.45-6.11,1.55-6.09,1.65-6.07,1.75-6,1.84-6,1.94-6,2-5.94,2.13-5.9,2.23L275.55,119l-5.83,2.41-5.79,2.51-5.74,2.6-5.71,2.69-5.66,2.78-5.62,2.88-5.57,3-5.52,3.05L224.64,144l-5.42,3.23-5.37,3.31-5.32,3.4-5.26,3.48-5.2,3.57-5.14,3.65-5.09,3.73-5,3.82-5,3.89-4.9,4-4.84,4-4.77,4.13-4.7,4.21L154,196.69,149.44,201l-4.5,4.42-4.42,4.5-4.36,4.56-4.28,4.64-4.2,4.7-4.13,4.78-4,4.83-4,4.9-3.89,5-3.82,5-3.73,5.09-3.65,5.14-3.57,5.21-3.48,5.25L90,274.37l-3.32,5.37-3.22,5.42-3.14,5.47-3,5.52-3,5.57-2.87,5.62L68.64,313,66,318.71l-2.6,5.74-2.51,5.79-2.41,5.83-2.33,5.87-2.22,5.9-2.13,5.94-2,6-1.94,6-1.84,6-1.75,6.07-1.65,6.09L41,390.05l-1.45,6.14-1.36,6.16-1.25,6.18-1.16,6.21-1,6.21-1,6.24-.86,6.25-.75,6.26L31.48,446l-.56,6.28-.45,6.29-.35,6.3-.26,6.31-.15,6.3-.05,6.31m0,0v28.35m206.93,0V483.77m0,0,0-4.31.15-4.31.25-4.3.35-4.3.44-4.29.55-4.28.64-4.26.75-4.25.84-4.23.94-4.2,1-4.19,1.14-4.16,1.22-4.13,1.33-4.11,1.41-4.07,1.51-4,1.61-4,1.7-4,1.78-3.93,1.88-3.88,2-3.84,2.06-3.79,2.14-3.74,2.23-3.69,2.31-3.64,2.4-3.59,2.47-3.53,2.56-3.47,2.64-3.41,2.72-3.35,2.79-3.28,2.87-3.22,2.94-3.15,3-3.09,3.09-3,3.15-2.94,3.22-2.87,3.28-2.79,3.35-2.72,3.41-2.64,3.47-2.56,3.53-2.47,3.59-2.4,3.64-2.31,3.69-2.23,3.74-2.14,3.79-2.05,3.84-2,3.88-1.88,3.92-1.78,4-1.7,4-1.6,4-1.52,4.07-1.41,4.11-1.33,4.13-1.22,4.16-1.14,4.18-1,4.21-.94,4.23-.84,4.25-.74,4.26-.65,4.28-.55,4.29-.44,4.3-.35,4.3-.25,4.31-.15,4.31-.05m0,0H451.6m0,0V90.18m0,0H423.25"/></g></g></svg>