<svg xmlns="http://www.w3.org/2000/svg" viewBox="0 0 268.5 325.2"><defs><style>.cls-1{fill:none;stroke:#000;stroke-linecap:round;stroke-linejoin:round;stroke-width:2.8px;}</style></defs><g id="Layer_2" data-name="Layer 2"><g id="Layer_1-2" data-name="Layer 1"><path class="cls-1" d="M5.6,224.6l-.8.1-.8.2-.8.4-.6.5-.5.7-.4.7-.3.8v.8m99.2,0-.1-.8-.3-.8-.3-.7-.6-.7-.6-.5-.8-.4-.8-.2-.8-.1m70.9,4.2-.1-.8-.2-.8-.4-.7-.6-.7-.6-.5-.7-.4-.8-.2-.9-.1M34,228.8l-.1-.8-.3-.8-.4-.7-.5-.7-.6-.5-.8-.4-.8-.2-.8-.1m204.1,4.2-.1-.8-.2-.8-.4-.7-.5-.7-.7-.5-.7-.4-.8-.2-.9-.1m0,0h-24m33.3,99.2h24.1m0,0,.8-.1.8-.2.7-.4.7-.6.5-.6.4-.7.2-.8.1-.9m0,0V254.3m0,0-.1-.8-.2-.8-.4-.7-.5-.7-.7-.5-.7-.4-.8-.2-.8-.1m0,0H238.1m0,0-.9-.1-.8-.2-.7-.4-.7-.6-.5-.6-.4-.7-.2-.8-.1-.9m0,0v-17m-28.3-4.2-.9.1-.8.2-.7.4-.7.5-.5.7-.4.7-.2.8-.1.8m0,0v17m0,0-.1.9-.2.8-.4.7-.5.6-.7.6-.7.4-.8.2-.9.1m0,0H171.4m0,0-.8-.1-.8-.2-.7-.4-.7-.6-.5-.6-.4-.7-.2-.8-.1-.9m0,0v-17m-4.3-4.2H138.8m0,0-.8.1-.8.2-.7.4-.7.5-.5.7-.4.7-.2.8-.1.8m0,0v17m0,0-.1.9-.2.8-.4.7-.6.6-.6.6-.7.4-.8.2-.9.1m0,0H104.8m0,0-.8-.1-.8-.2-.7-.4-.7-.6-.5-.6-.4-.7-.2-.8-.1-.9m0,0v-17m-4.3-4.2H72.2m0,0-.8.1-.8.2-.7.4-.7.5-.5.7-.4.7-.2.8-.1.8m0,0v17m0,0-.1.9-.3.8-.3.7-.6.6-.6.6-.8.4-.8.2-.8.1m0,0H38.2m0,0-.8-.1-.8-.2-.8-.4-.6-.6-.5-.6-.4-.7-.3-.8v-.9m0,0v-17m-4.3-4.2H5.6m-4.2,4.2V294m0,0v.9l.3.8.4.7.5.6.6.6.8.4.8.2.8.1m0,0H30.4m0,0,.8.1.8.2.8.4.6.5.5.7.4.7.3.8.1.8m0,0v17m0,0v.9l.3.8.4.7.5.6.7.6.7.4.8.2.8.1m0,0H63m0,0,.8-.1.8-.2.8-.4.6-.6.5-.6.4-.7.3-.8.1-.9m0,0v-17m0,0v-.8l.3-.8.4-.7.5-.7.7-.5.7-.4.8-.2.8-.1m0,0H97m0,0,.9.1.8.2.7.4.6.5.6.7.4.7.2.8.1.8m0,0v17m0,0,.1.9.2.8.4.7.5.6.7.6.7.4.8.2.8.1m0,0h24.1m0,0,.9-.1.8-.2.7-.4.6-.6.6-.6.4-.7.2-.8.1-.9m0,0v-17m0,0,.1-.8.2-.8.4-.7.5-.7.7-.5.7-.4.8-.2.8-.1m0,0h25.5m0,0,.9.1.8.2.7.4.6.5.6.7.4.7.2.8.1.8m0,0v17m0,0,.1.9.2.8.4.7.5.6.7.6.7.4.8.2.8.1m0,0h24.1m0,0,.9-.1.8-.2.7-.4.6-.6.6-.6.4-.7.2-.8.1-.9m0,0v-17m0,0,.1-.8.2-.8.4-.7.5-.7.7-.5.7-.4.8-.2.8-.1m0,0h25.6m0,0,.8.1.8.2.7.4.7.5.5.7.4.7.2.8.1.8m0,0v17m0,0,.1.9.2.8.4.7.6.6.6.6.7.4.8.2.9.1M5.6,150.2l-.8.1-.8.2-.8.4-.6.5-.5.7-.4.7-.3.8v.8m99.2,0-.1-.8-.3-.8-.3-.7-.6-.7-.6-.5-.8-.4-.8-.2-.8-.1m70.9,4.2-.1-.8-.2-.8-.4-.7-.6-.7-.6-.5-.7-.4-.8-.2-.9-.1m70.9,4.2-.1-.8-.2-.8-.4-.7-.5-.7-.7-.5-.7-.4-.8-.2-.9-.1m0,0h-24m33.3,99.2h24.1m0,0,.8-.1.8-.2.7-.4.7-.6.5-.6.4-.7.2-.8.1-.9m0,0V179.9m0,0-.1-.8-.2-.8-.4-.7-.5-.7-.7-.5-.7-.4-.8-.2-.8-.1m0,0H238.1m0,0-.9-.1-.8-.2-.7-.4-.7-.6-.5-.6-.4-.7-.2-.8-.1-.9m0,0v-17m-28.3-4.2-.9.1-.8.2-.7.4-.7.5-.5.7-.4.7-.2.8-.1.8m0,0v17m0,0-.1.9-.2.8-.4.7-.5.6-.7.6-.7.4-.8.2-.9.1m0,0H171.4m0,0-.8-.1-.8-.2-.7-.4-.7-.6-.5-.6-.4-.7-.2-.8-.1-.9m0,0v-17m-4.3-4.2H138.8m0,0-.8.1-.8.2-.7.4-.7.5-.5.7-.4.7-.2.8-.1.8m0,0v17m0,0-.1.9-.2.8-.4.7-.6.6-.6.6-.7.4-.8.2-.9.1m0,0H104.8m0,0-.8-.1-.8-.2-.7-.4-.7-.6-.5-.6-.4-.7-.2-.8-.1-.9m0,0v-17m-4.3-4.2H72.2m0,0-.8.1-.8.2-.7.4-.7.5-.5.7-.4.7-.2.8-.1.8m0,0v17m0,0-.1.9-.3.8-.3.7-.6.6-.6.6-.8.4-.8.2-.8.1m0,0H38.2m0,0-.8-.1-.8-.2-.8-.4-.6-.6-.5-.6-.4-.7-.3-.8v-.9m0,0v-17m0,0-.1-.8-.3-.8-.4-.7-.5-.7-.6-.5-.8-.4-.8-.2-.8-.1m0,0H5.6m-4.2,4.2v65.2m0,0v.8l.3.8.4.8.5.6.6.6.8.3.8.3.8.1m0,0H30.4m0,0,.8.1.8.2.8.4.6.5.5.7.4.7.3.8.1.8m0,0v17m0,0v.9l.3.8.4.7.5.6.7.6.7.4.8.2.8.1m0,0H63m0,0,.8-.1.8-.2.8-.4.6-.6.5-.6.4-.7.3-.8.1-.9m0,0v-17m0,0v-.8l.3-.8.4-.7.5-.7.7-.5.7-.4.8-.2.8-.1m0,0H97m0,0,.9.1.8.2.7.4.6.5.6.7.4.7.2.8.1.8m0,0v17m0,0,.1.9.2.8.4.7.5.6.7.6.7.4.8.2.8.1m0,0h24.1m0,0,.9-.1.8-.2.7-.4.6-.6.6-.6.4-.7.2-.8.1-.9m0,0v-17m0,0,.1-.8.2-.8.4-.7.5-.7.7-.5.7-.4.8-.2.8-.1m0,0h25.5m0,0,.9.1.8.2.7.4.6.5.6.7.4.7.2.8.1.8m0,0v17m0,0,.1.9.2.8.4.7.5.6.7.6.7.4.8.2.8.1m0,0h24.1m0,0,.9-.1.8-.2.7-.4.6-.6.6-.6.4-.7.2-.8.1-.9m0,0v-17m0,0,.1-.8.2-.8.4-.7.5-.7.7-.5.7-.4.8-.2.8-.1m0,0h25.6m0,0,.8.1.8.2.7.4.7.5.5.7.4.7.2.8.1.8m0,0v17m0,0,.1.9.2.8.4.7.6.6.6.6.7.4.8.2.9.1M5.6,75.8H4.8l-.8.3-.8.4-.6.5-.5.7-.4.7-.3.8V80m99.2,0-.1-.8-.3-.8-.3-.7-.6-.7-.6-.5-.8-.4-.8-.3h-.8M167.2,80l-.1-.8-.2-.8-.4-.7-.6-.7-.6-.5-.7-.4-.8-.3h-.9m66.6,0h-24M233.8,80l-.1-.8-.2-.8-.4-.7-.5-.7-.7-.5-.7-.4-.8-.3h-.9m-66.6,0H138.8m100,99.2h24.1m0,0,.8-.1.8-.2.7-.4.7-.6.5-.6.4-.8.2-.7.1-.9m0,0V105.5m0,0-.1-.8-.2-.8-.4-.7-.5-.7-.7-.5-.7-.4-.8-.2-.8-.1m0,0H238.1m0,0-.9-.1-.8-.3-.7-.3-.7-.6-.5-.6-.4-.8-.2-.7-.1-.9m0,0V80m-28.3-4.2h-.9l-.8.3-.7.4-.7.5-.5.7-.4.7-.2.8-.1.8m0,0V97m0,0-.1.9-.2.7-.4.8-.5.6-.7.6-.7.3-.8.3-.9.1m0,0H171.4m0,0-.8-.1-.8-.3-.7-.3-.7-.6-.5-.6-.4-.8-.2-.7-.1-.9m0,0V80m-28.4-4.2H138l-.8.3-.7.4-.7.5-.5.7-.4.7-.2.8-.1.8m0,0V97m0,0-.1.9-.2.7-.4.8-.6.6-.6.6-.7.3-.8.3-.9.1m0,0H104.8m0,0-.8-.1-.8-.3-.7-.3-.7-.6-.5-.6-.4-.8-.2-.7-.1-.9m0,0V80m-4.3-4.2H72.2m0,0h-.8l-.8.3-.7.4-.7.5-.5.7-.4.7-.2.8L68,80m0,0V97m0,0-.1.9-.3.7-.3.8-.6.6-.6.6-.8.3-.8.3-.8.1m0,0H38.2m0,0-.8-.1-.8-.3-.8-.3-.6-.6-.5-.6-.4-.8-.3-.7V97m0,0V80m0,0-.1-.8-.3-.8-.4-.7-.5-.7-.6-.5-.8-.4-.8-.3h-.8m0,0H5.6M1.4,80v65.2m0,0v.8l.3.8.4.8.5.6.6.5.8.4.8.3.8.1m0,0H30.4m0,0h.8l.8.3.8.4.6.5.5.7.4.7.3.8.1.8m0,0v17m0,0v.9l.3.7.4.8.5.6.7.6.7.4.8.2.8.1m0,0H63m0,0,.8-.1.8-.2.8-.4.6-.6.5-.6.4-.8.3-.7.1-.9m0,0v-17m0,0v-.8l.3-.8.4-.7.5-.7.7-.5.7-.4.8-.3h.8m0,0H97m0,0h.9l.8.3.7.4.6.5.6.7.4.7.2.8.1.8m0,0v17m0,0,.1.9.2.7.4.8.5.6.7.6.7.4.8.2.8.1m0,0h24.1m0,0,.9-.1.8-.2.7-.4.6-.6.6-.6.4-.8.2-.7.1-.9m0,0v-17m0,0,.1-.8.2-.8.4-.7.5-.7.7-.5.7-.4.8-.3h.8m0,0h25.5m0,0h.9l.8.3.7.4.6.5.6.7.4.7.2.8.1.8m0,0v17m0,0,.1.9.2.7.4.8.5.6.7.6.7.4.8.2.8.1m0,0h24.1m0,0,.9-.1.8-.2.7-.4.6-.6.6-.6.4-.8.2-.7.1-.9m0,0v-17m0,0,.1-.8.2-.8.4-.7.5-.7.7-.5.7-.4.8-.3h.8m0,0h25.6m0,0h.8l.8.3.7.4.7.5.5.7.4.7.2.8.1.8m0,0v17m0,0,.1.9.2.7.4.8.6.6.6.6.7.4.8.2.9.1m0-74.4h24.1m0,0,.8-.1.8-.3.7-.4.7-.5.5-.6.4-.8.2-.8.1-.8m0,0V31.1m0,0-.1-.8-.2-.8-.4-.7-.5-.7-.7-.5-.7-.4-.8-.3h-.8m0,0H238.1m0,0-.9-.1-.8-.3-.7-.4-.7-.5-.5-.6-.4-.8-.2-.8-.1-.8m0,0V5.6m0,0-.1-.8-.2-.8-.4-.8-.5-.6-.7-.5-.7-.4-.8-.3h-.9m0,0h-24m0,0h-.9l-.8.3-.7.4-.7.5-.5.6-.4.8-.2.8-.1.8m0,0v17m0,0-.1.8-.2.8-.4.8-.5.6-.7.5-.7.4-.8.3-.9.1m0,0H171.4m0,0-.8-.1-.8-.3-.7-.4-.7-.5-.5-.6-.4-.8-.2-.8-.1-.8m0,0V5.6m0,0-.1-.8-.2-.8-.4-.8-.6-.6-.6-.5-.7-.4-.8-.3h-.9m0,0H138.8m0,0H138l-.8.3-.7.4-.7.5-.5.6-.4.8-.2.8-.1.8m0,0v17m0,0-.1.8-.2.8-.4.8-.6.6-.6.5-.7.4-.8.3-.9.1m0,0H104.8m0,0-.8-.1-.8-.3-.7-.4-.7-.5-.5-.6-.4-.8-.2-.8-.1-.8m0,0V5.6m0,0-.1-.8-.3-.8-.3-.8-.6-.6-.6-.5-.8-.4-.8-.3h-.8m0,0H72.2m0,0h-.8l-.8.3-.7.4-.7.5-.5.6-.4.8-.2.8-.1.8m0,0v17m0,0-.1.8-.3.8-.3.8-.6.6-.6.5-.8.4-.8.3-.8.1m0,0H38.2m0,0-.8-.1-.8-.3-.8-.4-.6-.5-.5-.6-.4-.8-.3-.8v-.8m0,0V5.6m0,0-.1-.8L33.6,4l-.4-.8-.5-.6-.6-.5-.8-.4-.8-.3h-.8m0,0H5.6m0,0H4.8L4,1.7l-.8.4-.6.5-.5.6L1.7,4l-.3.8v.8m0,0V70.8m0,0v.8l.3.8.4.8.5.6.6.5.8.4.8.3.8.1m0,0H30.4m0,0h.8l.8.3.8.4.6.5.5.6.4.8.3.8.1.8m0,0v17m0,0v.8l.3.8.4.8.5.6.7.5.7.4.8.3.8.1m0,0H63m0,0,.8-.1.8-.3.8-.4.6-.5.5-.6.4-.8.3-.8.1-.8m0,0v-17m0,0v-.8l.3-.8.4-.8.5-.6.7-.5.7-.4.8-.3h.8m0,0H97m0,0h.9l.8.3.7.4.6.5.6.6.4.8.2.8.1.8m0,0v17m0,0,.1.8.2.8.4.8.5.6.7.5.7.4.8.3.8.1m0,0h24.1m0,0,.9-.1.8-.3.7-.4.6-.5.6-.6.4-.8.2-.8.1-.8m0,0v-17m0,0,.1-.8.2-.8.4-.8.5-.6.7-.5.7-.4.8-.3h.8m0,0h25.5m0,0h.9l.8.3.7.4.6.5.6.6.4.8.2.8.1.8m0,0v17m0,0,.1.8.2.8.4.8.5.6.7.5.7.4.8.3.8.1m0,0h24.1m0,0,.9-.1.8-.3.7-.4.6-.5.6-.6.4-.8.2-.8.1-.8m0,0v-17m0,0,.1-.8.2-.8.4-.8.5-.6.7-.5.7-.4.8-.3h.8m0,0h25.6m0,0h.8l.8.3.7.4.7.5.5.6.4.8.2.8.1.8m0,0v17m0,0,.1.8.2.8.4.8.6.6.6.5.7.4.8.3.9.1"/></g></g></svg>