<svg xmlns="http://www.w3.org/2000/svg" viewBox="0 0 392.56 410.28"><defs><style>.cls-1{fill:none;stroke:#000;stroke-linecap:round;stroke-linejoin:round;stroke-width:2.8px;}</style></defs><g id="Layer_2" data-name="Layer 2"><g id="Layer_1-2" data-name="Layer 1"><path class="cls-1" d="M204.69,355.73H387.62m0,0,.69-.07.67-.2.61-.33.54-.44.44-.53.32-.62.21-.66.06-.69m0,0V341.56m0,0-.06-.69-.21-.67-.32-.61-.44-.54-.54-.44-.61-.33-.67-.2-.69-.07m0,0H204.69m0,0h-2.11l-2.11,0-2.11,0-2.11,0-2.11-.05-2.11-.07-2.11-.08-2.1-.1m0,0-18.6-.89-18.33-.9-17.73-.89L116.09,334l-16.23-.9-15.1-.89-13.09-.83-11.91-.85-10.55-.84-9.06-.84-7.54-.84-4.09-.56-3.37-.55-2.63-.55L21,326,20,325.56l-.64-.42-.12-.14-.07-.13,0-.14m0,0v17.71m0,0,0,.14.07.14.12.14.64.42,1.07.41,1.48.41,2.63.55,3.37.56,4.09.56,6.79.76,8.05.76,9.29.77,10.45.77,11.48.76,12.41.76,13.32.77,19.52,1.05,20.56,1.05,21.44,1,21.9,1.06m0,0,2.1.09,2.11.08,2.11.07,2.11.06,2.11,0,2.11,0h4.22m168.76-61.12,0-.14-.07-.14-.12-.14-.64-.42-1.06-.41-1.48-.41-2.63-.55-3.37-.56-4.1-.56-7.11-.79-8.47-.79-9.82-.8-11.06-.81-12.15-.79-13.16-.79-14.12-.8-20.65-1.1-21.69-1.09-22.56-1.11-22.88-1.09-19.41-.93-19.25-.93-18.74-.93-18-.92-17.18-.94-16-.93L76,275l-10.78-.73-9.83-.73-8.75-.74-7.6-.72-6.47-.73-4.09-.56-3.37-.56-2.63-.55L21,269.28,20,268.87l-.64-.42-.12-.14-.07-.14,0-.14m0,0v17.72m0,0,0,.14.07.14.12.14.64.41L21,287l1.48.41,2.63.55,3.37.56,4.09.55,7.11.8,8.47.79,9.82.8,11.06.81,12.16.79,13.16.79,14.12.8,20.64,1.1,21.7,1.09,22.56,1.1,22.87,1.1,19.42.92,19.25.94,18.73.93,18,.92,17.17.94,16,.93,11.63.73,10.79.73,9.82.73,8.75.74,7.61.72L360,309l4.1.56,3.37.55,2.63.56,1.48.41,1.06.41.64.42.12.14.07.14,0,.14m0,0V294.61m0-56.69,0-.14-.07-.14-.12-.14-.64-.42-1.06-.41-1.48-.41-2.63-.55-3.37-.56-4.1-.56-7.11-.8-8.47-.79-9.82-.8-11.06-.8-12.15-.79-13.16-.8-14.12-.8-20.65-1.1-21.69-1.08-22.56-1.11-22.88-1.09-19.41-.93-19.25-.93-18.74-.93-18-.93L103.7,220l-16-.94L76,218.32l-10.78-.73-9.83-.74-8.75-.73-7.6-.72-6.47-.73-4.09-.56-3.37-.56L22.52,213,21,212.59,20,212.18l-.64-.42-.12-.14-.07-.14,0-.14m354.33,44.29V237.92M19.12,211.34v17.72m0,0,0,.14.07.14.12.14.64.41,1.07.41,1.48.42,2.63.55,3.37.55,4.09.56,7.11.8,8.47.79,9.82.8,11.06.8,12.16.8,13.16.79,14.12.8,20.64,1.1,21.7,1.09,22.56,1.1,22.87,1.09,19.42.93,19.25.94,18.73.93,18,.92,17.17.94,16,.93,11.63.72,10.79.73,9.82.74,8.75.73,7.61.73,6.46.73,4.1.56,3.37.55,2.63.55,1.48.41,1.06.42.64.41.12.14.07.14,0,.14m0-74.41,0-.14-.07-.14-.12-.14-.64-.41-1.06-.42-1.48-.41-2.63-.55-3.37-.55-4.1-.56-7.11-.8-8.47-.79-9.82-.8-11.06-.8-12.15-.8-13.16-.79-14.12-.8-20.65-1.1-21.69-1.09L219.16,169l-22.88-1.09L176.87,167l-19.25-.94-18.74-.93-18-.92-17.18-.94-16-.93L76,161.63l-10.78-.73-9.83-.74-8.75-.73-7.6-.73L32.61,158l-4.09-.56-3.37-.55-2.63-.55L21,155.9,20,155.48l-.64-.41-.12-.14-.07-.14,0-.14m0,0v17.71m0,0,0,.14.07.14.12.14.64.42,1.07.41,1.48.41,2.63.56,3.37.55,4.09.56,7.11.8,8.47.79,9.82.8,11.06.8,12.16.79,13.16.8,14.12.8,20.64,1.1,21.7,1.09,22.56,1.1,22.87,1.09,19.42.93,19.25.94,18.73.92,18,.93,17.17.93,16,.94,11.63.72,10.79.73,9.82.74,8.75.73,7.61.72,6.46.73,4.1.56,3.37.56,2.63.55,1.48.41,1.06.41.64.42.12.14.07.14,0,.14m0,0V181.22m0-39V124.53m0,0,0-.14-.07-.14-.12-.14-.64-.41-1.06-.42-1.48-.41-2.63-.55-3.37-.56-4.1-.56-7.11-.79-8.47-.79-9.82-.8-11.06-.8-12.15-.8-13.16-.79-14.12-.8-20.65-1.1-21.69-1.09-22.56-1.1-22.88-1.1-19.41-.92-19.25-.94-18.74-.93-18-.92-17.18-.94-16-.93L76,104.94l-10.78-.74-9.83-.73-8.75-.74-7.6-.72-6.47-.73-4.09-.56-3.37-.55-2.63-.56L21,99.2,20,98.79l-.64-.42-.12-.14-.07-.14,0-.14m0,0v17.72m0,0,0,.14.07.14.12.14.64.42,1.07.41,1.48.41,2.63.55,3.37.56,4.09.56,7.11.79,8.47.79,9.82.8,11.06.81,12.16.79,13.16.79,14.12.8,20.64,1.1,21.7,1.09,22.56,1.1,22.87,1.1,19.42.93,19.25.93,18.73.93,18,.92,17.17.94,16,.93,11.63.73,10.79.73,9.82.73,8.75.74,7.61.72,6.46.73,4.1.56,3.37.56,2.63.55,1.48.41,1.06.41.64.42.12.14.07.14,0,.14M1.4,58.09V68.72m0,0,.07.69.2.67.33.61.44.54.54.44.61.33.66.2.69.07m0,0H187.88m0,0H190l2.11,0,2.11,0,2.11.05,2.1,0,2.11.07,2.11.08,2.11.1m0,0,18.6.89,18.32.9,17.74.89,17.07.89,16.22.9,15.11.89,13.08.83,11.91.85,10.55.84,9.06.84,7.54.84,4.1.56,3.37.55,2.63.55,1.48.41,1.06.42.64.42.12.13.07.14,0,.14m0,0V67.84m0,0,0-.14-.07-.14-.12-.14-.64-.42-1.06-.41-1.48-.41-2.63-.55-3.37-.56-4.1-.56-6.79-.76L345.11,63l-9.29-.77-10.45-.77-11.48-.76-12.4-.76-13.32-.77-19.53-1-20.55-1L226.65,56,204.75,55m0,0-2.11-.09-2.11-.09-2.11-.06-2.1-.06-2.11,0-2.11,0h-4.22m0,0H4.94m0,0-.69.07-.66.2L3,55.15l-.54.44L2,56.12l-.33.62-.2.66-.07.69M320.3,95.82l9.08-.62,9.68-.75,8.58-.73,7.41-.73,4.7-.54,4-.55,3.34-.54,3-.64,2.05-.63.65-.31.41-.31.11-.16.05-.15V89l-.07-.16-.2-.22-.31-.22-.44-.22-1.48-.51-1.87-.45-2.38-.46-3.5-.56L359,85.65l-4.89-.55-7.65-.73-8.84-.75-10-.75-7.34-.5m-248,5.32-9.08.62-9.69.74-8.58.74-7.41.73-4.7.54-4,.55-3.35.54-3,.63-2.05.63-.65.32-.4.31-.12.16-.05.15v.16l.07.16.19.22.32.22.43.21,1.48.52,1.87.45,2.39.46,3.5.55,4.21.56,4.88.55,7.66.73,8.84.75,10,.75,7.34.5m248,51.38,9.08-.63,9.68-.74,8.58-.74,7.41-.73,4.7-.54,4-.54,3.34-.55,3-.63,2.05-.63.65-.31.41-.32.11-.15.05-.16v-.16l-.07-.15-.2-.22-.31-.22-.44-.22-1.48-.52-1.87-.45-2.38-.46-3.5-.55-4.21-.55-4.89-.55-7.65-.74-8.84-.74-10-.75-7.34-.5m-248,5.31-9.08.63-9.69.74-8.58.73-7.41.73-4.7.54-4,.55-3.35.54-3,.64-2.05.63-.65.31-.4.31-.12.16-.05.16v.15l.07.16.19.22.32.22.43.22,1.48.51,1.87.46,2.39.46,3.5.55,4.21.55,4.88.55,7.66.74,8.84.74,10,.75,7.34.5m248,51.38,9.08-.63,9.68-.74,8.58-.74,7.41-.73,4.7-.54,4-.54,3.34-.54,3-.64,2.05-.63.65-.31.41-.31.11-.16.05-.16v-.15l-.07-.16-.2-.22-.31-.22-.44-.22-1.48-.51-1.87-.46-2.38-.46-3.5-.55L359,199l-4.89-.55-7.65-.74L337.6,197l-10-.75-7.34-.5m-248,5.31-9.08.63-9.69.74-8.58.74-7.41.73-4.7.54-4,.54-3.35.55-3,.63-2.05.63-.65.31-.4.31-.12.16-.05.16v.16l.07.15.19.22.32.22.43.22,1.48.51,1.87.46,2.39.46,3.5.55,4.21.55,4.88.55,7.66.74,8.84.74,10,.75,7.34.5m0,43.24-9.08.63-9.69.74-8.58.74-7.41.73-4.7.54-4,.54-3.35.55-3,.63-2.05.63-.65.31-.4.32-.12.15-.05.16v.16l.07.15.19.23.32.21.43.22,1.48.51,1.87.46,2.39.46,3.5.55,4.21.56,4.88.54,7.66.74L55,270l10,.74,7.34.5m248-5.31,9.08-.63,9.68-.74,8.58-.73,7.41-.73,4.7-.55,4-.54,3.34-.54,3-.64,2.05-.63.65-.31.41-.31.11-.16.05-.15v-.16l-.07-.16-.2-.22-.31-.22-.44-.22-1.48-.51-1.87-.46-2.38-.46-3.5-.55-4.21-.55-4.89-.55-7.65-.73-8.84-.75-10-.75-7.34-.5m0,70.15,9.08-.63,9.68-.75,8.58-.73,7.41-.73,4.7-.54,4-.55,3.34-.54,3-.63,2.05-.63.65-.32.41-.31.11-.16.05-.15v-.16l-.07-.16-.2-.22-.31-.22-.44-.21-1.48-.52-1.87-.45-2.38-.46-3.5-.56-4.21-.55-4.89-.54-7.65-.74-8.84-.75-10-.75-7.34-.5m-248,5.32-9.08.62-9.69.75-8.58.73-7.41.73-4.7.54-4,.55-3.35.54-3,.63-2.05.64-.65.31-.4.31-.12.16-.05.15v.16l.07.16.19.22.32.22.43.22,1.48.51,1.87.45,2.39.46,3.5.56,4.21.55,4.88.55,7.66.73,8.84.75,10,.75,7.34.5M309.67,1.4H82.9M320.3,12,320.09,10l-.6-2-1-1.84-1.33-1.61-1.61-1.32-1.83-1-2-.61-2.07-.2M82.9,1.4l-2.08.2-2,.61L77,3.19,75.38,4.51,74.06,6.12,73.08,8l-.61,2L72.27,12m0,337.13v49.09m0-105.78v39m0-95.68v39m0-95.67v39m0-95.67v39m0-89.1v32.41m0-92.65V54.55m0,343.7.2,2.07.61,2,1,1.84,1.32,1.61L77,407.09l1.84,1,2,.61,2.08.2m0,0H309.67m0,0,2.07-.2,2-.61,1.83-1,1.61-1.32,1.33-1.61,1-1.84.6-2,.21-2.07m0-337.14V12m0,105.78v-39m0,95.68v-39m0,95.67v-39m0,95.67v-39m0,89.1V305.6m0,92.65V355.73"/></g></g></svg>