<svg xmlns="http://www.w3.org/2000/svg" viewBox="0 0 235.8 257.4"><defs><style>.cls-1{fill:none;stroke:#000;stroke-linecap:round;stroke-linejoin:round;stroke-width:2.8px;}</style></defs><g id="Layer_2" data-name="Layer 2"><g id="Layer_1-2" data-name="Layer 1"><path class="cls-1" d="M142,1.4H93.8m0,0-.6.1-.5.1-.5.3-.4.4-.4.4-.2.5-.2.5v.6m0,0V33.2m0,0-.1.8-.3.8-.4.7-.5.7-.6.5-.8.4-.8.2-.8.1m0,0H61.5m0,0-.8-.1-.8-.2-.8-.4-.6-.5-.6-.7-.3-.7-.3-.8-.1-.8m0,0V19.6m0,0-.1-.9-.2-.8-.4-.7-.5-.6-.7-.6-.7-.4-.8-.2-.8-.1m0,0H7.1m0,0L6,15.4l-1.1.3-1,.6L3,17l-.7.8-.5,1-.3,1.1L1.4,21m0,0v97.2m0,0,.1,1.1.3,1.1.5,1,.7.8.9.7,1,.5,1.1.4,1.1.1m0,0H54.4m0,0,.8.1.8.2.8.4.6.5.5.7.4.7.3.8v.8m0,0v15.1m0,0,.1.5.2.5.2.5.4.5.4.3.5.3.5.1.6.1m0,0H86.7m0,0,.6-.1.5-.1.5-.3.4-.3.4-.5.2-.5.2-.5v-.5m0,0v-29m0,0,.1-.8.3-.8.4-.7.5-.7.6-.5.8-.4.8-.2.8-.1m0,0H142m0,0,.8.1.8.2.7.4.7.5.5.7.4.7.3.8v.8m0,0v29m0,0,.1.5.2.5.2.5.4.5.4.3.5.3.5.1.6.1m0,0h25.2m0,0,.6-.1.5-.1.5-.3.4-.3.4-.5.2-.5.2-.5v-.5m0,0V128.1m0,0,.1-.8.3-.8.4-.7.5-.7.6-.5.8-.4.8-.2.8-.1m0,0h47.3m0,0,1.1-.1,1.1-.4,1-.5.8-.7.7-.8.6-1,.3-1.1.1-1.1m0,0V21m0,0-.1-1.1-.3-1.1-.6-1-.7-.8-.8-.7-1-.6-1.1-.3-1.1-.1m0,0H182.8m0,0-.8.1-.8.2-.8.4-.6.6-.5.6-.4.7-.3.8v.9m0,0V33.2m0,0-.1.8-.3.8-.4.7-.5.7-.6.5-.8.4-.8.2-.8.1m0,0H149.1m0,0-.9-.1-.8-.2-.7-.4-.6-.5-.6-.7-.4-.7-.2-.8-.1-.8m0,0V4.3m0,0V3.7l-.2-.5-.3-.5-.3-.4-.4-.4-.5-.3-.6-.1-.5-.1m0,110H93.8m0,0-.6.1-.5.1-.5.3-.4.3-.4.5-.2.5-.2.5v.5m0,0v29m0,0-.1.8-.3.8-.4.7-.5.7-.6.5-.8.4-.8.2-.8.1m0,0H61.5m0,0-.8-.1-.8-.2-.8-.4-.6-.5-.6-.7-.3-.7-.3-.8-.1-.8m0,0V129.6m0,0-.1-.9-.2-.8-.4-.7-.5-.7-.7-.5-.7-.4-.8-.2-.8-.1m0,0H7.1m0,0-1.1.1-1.1.3-1,.6L3,127l-.7.8-.5,1-.3,1.1L1.4,131m0,0v97.2m0,0,.1,1.1.3,1.1.5.9.7.9.9.7,1,.5,1.1.4,1.1.1m0,0H54.4m0,0h.8l.8.3.8.4.6.5.5.7.4.7.3.8v.8m0,0v15m0,0,.1.6.2.5.2.5.4.4.4.4.5.3.5.1.6.1m0,0H86.7m0,0,.6-.1.5-.1.5-.3.4-.4.4-.4.2-.5.2-.5v-.6m0,0V224.2m0,0,.1-.8.3-.8.4-.7.5-.7.6-.5.8-.4.8-.2.8-.1m0,0H142m0,0,.8.1.8.2.7.4.7.5.5.7.4.7.3.8v.8m0,0v28.9m0,0,.1.6.2.5.2.5.4.4.4.4.5.3.5.1.6.1m0,0h25.2m0,0,.6-.1.5-.1.5-.3.4-.4.4-.4.2-.5.2-.5v-.6m0,0v-15m0,0,.1-.8.3-.8.4-.7.5-.7.6-.5.8-.4.8-.3h.8m0,0h47.3m0,0,1.1-.1,1.1-.4,1-.5.8-.7.7-.9.6-.9.3-1.1.1-1.1m0,0V131m0,0-.1-1.1-.3-1.1-.6-1-.7-.8-.8-.7-1-.6-1.1-.3-1.1-.1m0,0H182.8m0,0-.8.1-.8.2-.8.4-.6.5-.5.7-.4.7-.3.8v.9m0,0v13.6m0,0-.1.8-.3.8-.4.7-.5.7-.6.5-.8.4-.8.2-.8.1m0,0H149.1m0,0-.9-.1-.8-.2-.7-.4-.6-.5-.6-.7-.4-.7-.2-.8-.1-.8m0,0v-29m0,0v-.5l-.2-.5-.3-.5-.3-.5-.4-.3-.5-.3-.6-.1-.5-.1"/></g></g></svg>