<svg xmlns="http://www.w3.org/2000/svg" viewBox="0 0 326.8 265.8"><defs><style>.cls-1{fill:none;stroke:#000;stroke-linecap:round;stroke-linejoin:round;stroke-width:2.8px;}</style></defs><g id="Layer_2" data-name="Layer 2"><g id="Layer_1-2" data-name="Layer 1"><path class="cls-1" d="M1.4,53.3v85.6m223,10.7v-.8M10,147.4h91.1m1.4,1.4v.8m1.4,1.4H122m1.4-1.4V119.4m8.5-8.5H195m8.5,8.5v30.2m1.4,1.4H223m-28-40.1,1.7.2,1.6.5,1.4.7,1.3,1.1,1.1,1.3.8,1.5.4,1.6.2,1.6m0,30.2v.2l.1.3.1.2.2.3.2.1.3.2h.2l.3.1m18.1,0,.3-.1h.2l.3-.2.2-.1.2-.3.1-.2.1-.3v-.2m0-.8v-.2l.1-.3.1-.3.2-.2.2-.1.3-.2.2-.1h.3m0,0h91.1m0,0,1.7-.1,1.6-.5,1.5-.8,1.3-1.1,1-1.3.8-1.4.5-1.6.1-1.7m0,0V53.3m0,0-.1-1.6-.5-1.6-.7-1.4-1-1.3-1.2-1-1.4-.8-1.6-.6-1.6-.2m0,0-115-5.2m0,0-.5-.1-.5-.1-.5-.3-.4-.4-.4-.4-.2-.5-.2-.5v-.5m0,0V10m0,0-.2-1.7-.5-1.6-.7-1.5-1.1-1.3-1.3-1-1.5-.8-1.6-.5-1.6-.2m0,0H135.8m0,0-1.6.2-1.6.5-1.5.8-1.3,1-1.1,1.3L128,6.7l-.5,1.6-.2,1.7m0,0V36.8m0,0v.5l-.2.5-.2.5-.4.4-.4.4-.5.3-.5.1-.5.1m0,0L9.6,44.8m0,0L8,45l-1.6.6L5,46.4l-1.2,1-1,1.3-.7,1.4-.5,1.6-.2,1.6m0,85.6.2,1.7.5,1.6.8,1.4,1,1.3L5.2,146l1.5.8,1.6.5,1.7.1m91.1,0h.3l.2.1.3.2.2.1.2.2.1.3.1.3v.2m0,.8v.2l.1.3.1.2.2.3.2.1.3.2h.2l.3.1m18.1,0,.3-.1h.2l.3-.2.2-.1.2-.3.1-.2.1-.3v-.2m0-30.2.2-1.6.4-1.6.8-1.5,1.1-1.3,1.3-1.1,1.4-.7,1.6-.5,1.7-.2M1.4,166.7v85.6m8.6,8.5h91.1m1.4,1.4v.7m1.4,1.5h19.9m1.4-1.5V241.3m8.5-8.5h59.5m8.5,8.5v21.6m1.4,1.5H223m1.4-1.5v-.7m1.4-1.4h91.1m8.5-8.5V166.7m-8.1-8.5-115-5.2m-2.7-2.8V123.3m-8.5-8.5H135.8m-8.5,8.5v26.9m-2.7,2.8-115,5.2m126.2-43.4-1.6.2-1.6.5-1.5.8-1.3,1-1.1,1.3-.7,1.5-.5,1.6-.2,1.6m0,26.9v.5l-.2.5-.2.5-.4.4-.4.4-.5.3-.5.1-.5.1m-115,5.2-1.6.2-1.6.5-1.4.8-1.2,1.1-1,1.3-.7,1.4-.5,1.6-.2,1.6m0,85.6.2,1.7.5,1.6.8,1.4,1,1.3,1.3,1.1,1.5.8,1.6.4,1.7.2m91.1,0h.3l.2.1.3.1.2.2.2.2.1.3.1.2v.3m0,.7v.3l.1.3.1.2.2.2.2.2.3.2h.2l.3.1m19.9,0,.2-.1h.3l.3-.2.2-.2.1-.2.2-.2.1-.3v-.3m0-21.6.1-1.7.5-1.5.8-1.5,1.1-1.3,1.3-1.1,1.4-.8,1.6-.4,1.7-.2m59.5,0,1.7.2,1.6.4,1.4.8,1.3,1.1,1.1,1.3.8,1.5.5,1.5.1,1.7m0,21.6v.3l.1.3.2.2.1.2.2.2.3.2h.3l.2.1m19.9,0,.3-.1h.2l.3-.2.2-.2.2-.2.1-.2.1-.3v-.3m0-.7v-.3l.1-.2.1-.3.2-.2.2-.2.3-.1.2-.1h.3m91.1,0,1.7-.2,1.6-.4,1.5-.8,1.3-1.1,1-1.3.8-1.4.5-1.6.1-1.7m0-85.6-.1-1.6-.5-1.6-.7-1.4-1-1.3-1.2-1.1-1.4-.8-1.6-.5-1.6-.2m-115-5.2-.5-.1-.5-.1-.5-.3-.4-.4-.4-.4-.2-.5-.2-.5v-.5m0-26.9-.2-1.6-.5-1.6-.7-1.5-1.1-1.3-1.3-1-1.5-.8-1.6-.5-1.6-.2"/></g></g></svg>