<svg xmlns="http://www.w3.org/2000/svg" viewBox="0 0 428.2 113.2"><defs><style>.cls-1{fill:none;stroke:#000;stroke-linecap:round;stroke-linejoin:round;stroke-width:3px;}</style></defs><g id="Layer_2" data-name="Layer 2"><g id="Layer_1-2" data-name="Layer 1"><path class="cls-1" d="M249.35,111.7H275m7.09-7.09V54.3m7.09-7.09h65.9m28.35-17.72H44.73m-7.09,7.09V57.84m0,0,.14,1.38.4,1.33.66,1.22.88,1.08,1.07.88,1.23.66,1.33.4,1.38.14m0,0H58.9m0,0,1.38-.14,1.33-.4,1.23-.66,1.07-.88.88-1.08.66-1.22.4-1.33L66,57.84m0,0V54.3m0,0,.13-1.39.41-1.33.65-1.22.88-1.08,1.08-.88,1.22-.65,1.33-.41,1.38-.13m0,0H139m0,0,1.38.13,1.33.41,1.23.65,1.07.88.88,1.08.66,1.22.4,1.33.14,1.39m0,0v50.31m0,0,.13,1.38.41,1.33.65,1.23.88,1.07,1.08.88,1.22.66,1.33.4,1.38.14m0,0h25.69m0,0,.69-.07.67-.2.61-.33.54-.44.44-.54.33-.61.2-.67.07-.69m0,0V97.52m0,0-.07-.69-.2-.66-.33-.62-.44-.53-.54-.44-.61-.33-.67-.2-.69-.07m0,0H167.33m0,0V47.21m0,0h93.54m0,0V94m0,0H249.35m0,0-.69.07-.66.2-.61.33-.54.44-.44.53-.33.62-.2.66-.07.69m0,0v10.63m0,0,.07.69.2.67.33.61.44.54.54.44.61.33.66.2.69.07m25.69,0,1.39-.14,1.32-.4,1.23-.66,1.07-.88.89-1.07.65-1.23L282,106l.14-1.38m0-50.31.14-1.39.4-1.33.65-1.22.89-1.08,1.07-.88,1.22-.65,1.33-.41,1.39-.13m65.9,0,1.38.13,1.33.41,1.23.65,1.07.88.88,1.08.66,1.22.4,1.33.14,1.39m0,0v3.54m0,0,.13,1.38.41,1.33.65,1.22.88,1.08,1.08.88,1.22.66,1.33.4,1.38.14m0,0h14.18m0,0,1.38-.14,1.33-.4,1.23-.66,1.07-.88.88-1.08.66-1.22.4-1.33.13-1.38m0,0V36.58m0,0-.13-1.38-.4-1.33-.66-1.23-.88-1.07-1.07-.88L386.18,30l-1.33-.4-1.38-.14m-338.74,0-1.38.14L42,30l-1.23.66-1.07.88-.88,1.07-.66,1.23-.4,1.33-.14,1.38M426.7,1.5V92.92m-425.2,0V1.5m0,0H426.7M63.51,92.92H1.5m62-21.26V92.92M28.07,71.66H63.51M28.07,22.76v48.9m372.05-48.9h-372m372.05,48.9V22.76m-35.43,48.9h35.43M364.69,92.92V71.66m62,21.26h-62"/></g></g></svg>